/* XPM */
static char *result[] = {
/* columns rows colors chars-per-pixel */
"64 64 237 2 ",
"   c #020201",
".  c #090903",
"X  c #090A05",
"o  c #100A04",
"O  c #0D1A07",
"+  c #141407",
"@  c #1A1509",
"#  c #1B1B09",
"$  c #1F1F10",
"%  c #21160A",
"&  c #2A1508",
"*  c #241B0B",
"=  c #2D1E0B",
"-  c #311C0B",
";  c #201F10",
":  c #132209",
">  c #1D230B",
",  c #1B2A0C",
"<  c #27270D",
"1  c #28270E",
"2  c #222D0E",
"3  c #2C2C0F",
"4  c #36220D",
"5  c #3D290F",
"6  c #2B300F",
"7  c #202111",
"8  c #2E2D11",
"9  c #24241C",
"0  c #2B2819",
"q  c #2A281D",
"w  c #352112",
"e  c #332C11",
"r  c #3A2F12",
"t  c #30291E",
"y  c #273410",
"u  c #2C3112",
"i  c #353513",
"p  c #383713",
"a  c #373B15",
"s  c #3D3D15",
"d  c #3B3419",
"f  c #3B3D1D",
"g  c #191E25",
"h  c #2C2C24",
"j  c #2B392E",
"k  c #3C3B26",
"l  c #472F12",
"z  c #443E16",
"x  c #40361B",
"c  c #443718",
"v  c #5C3516",
"b  c #56391A",
"n  c #773B17",
"m  c #423A24",
"M  c #264814",
"N  c #3B4015",
"B  c #2B5016",
"V  c #375C1A",
"C  c #35641B",
"Z  c #414417",
"A  c #43431A",
"S  c #4A451C",
"D  c #4A4A19",
"F  c #5D411E",
"G  c #564B1C",
"H  c #48531B",
"J  c #4E5E1C",
"K  c #52511B",
"L  c #5C511E",
"P  c #54591E",
"I  c #5D5D1F",
"U  c #614B1B",
"Y  c #7E421A",
"T  c #63521F",
"R  c #6B581F",
"E  c #4B422C",
"W  c #4E5328",
"Q  c #575922",
"!  c #57572D",
"~  c #5B5B2F",
"^  c #4B4B3E",
"/  c #565734",
"(  c #5E5D30",
")  c #614424",
"_  c #694C21",
"`  c #6A5E23",
"'  c #695925",
"]  c #6C582D",
"[  c #715323",
"{  c #785725",
"}  c #7D5F27",
"|  c #446D20",
" . c #586323",
".. c #5D6B23",
"X. c #4B7123",
"o. c #547625",
"O. c #51753A",
"+. c #636523",
"@. c #646B23",
"#. c #6B6926",
"$. c #766726",
"%. c #7B6429",
"&. c #7E692B",
"*. c #667326",
"=. c #6A7627",
"-. c #627D2A",
";. c #7B7A27",
":. c #75732A",
">. c #7C752B",
",. c #74782A",
"<. c #7A7A2D",
"1. c #676736",
"2. c #6E7D39",
"3. c #727136",
"4. c #797237",
"5. c #7D7B30",
"6. c #75753D",
"7. c #1F2D5A",
"8. c #375065",
"9. c #5C5C4C",
"0. c #557541",
"q. c #6C7247",
"w. c #737549",
"e. c #7E7D4B",
"r. c #676350",
"t. c #6F6F52",
"y. c #767655",
"u. c #7A775A",
"i. c #586D74",
"p. c #7C7C67",
"a. c #686E78",
"s. c #8A4E1E",
"d. c #82551E",
"f. c #8A4E22",
"g. c #885E27",
"h. c #985522",
"j. c #945D23",
"k. c #965B32",
"l. c #985C33",
"z. c #896628",
"x. c #826F2C",
"c. c #93652C",
"v. c #9A6A2A",
"b. c #8B742F",
"n. c #817B2A",
"m. c #9D7427",
"M. c #9D7528",
"N. c #83663D",
"B. c #9D6234",
"V. c #877B36",
"C. c #907730",
"Z. c #A4682A",
"A. c #B16729",
"S. c #AE7C2D",
"D. c #B27D2E",
"F. c #A86A37",
"G. c #B4763B",
"H. c #86764C",
"J. c #857053",
"K. c #8C7656",
"L. c #B57A42",
"P. c #5A8729",
"I. c #58902B",
"U. c #69812D",
"Y. c #638732",
"T. c #6C8A30",
"R. c #748630",
"E. c #788831",
"W. c #7D8932",
"Q. c #709A31",
"!. c #598646",
"~. c #608349",
"^. c #8D8737",
"/. c #828D33",
"(. c #868B38",
"). c #958F3B",
"_. c #8B9438",
"`. c #929739",
"'. c #989D3C",
"]. c #AB8D34",
"[. c #B18532",
"{. c #AF9636",
"}. c #B29336",
"|. c #B59938",
" X c #88A739",
".X c #97AA3D",
"XX c #C18733",
"oX c #C28833",
"OX c #948E44",
"+X c #828252",
"@X c #828259",
"#X c #89895B",
"$X c #97855A",
"%X c #A39446",
"&X c #A99948",
"*X c #B2974E",
"=X c #B3984E",
"-X c #A4895C",
";X c #BB8554",
":X c #88A445",
">X c #99A446",
",X c #A3A943",
"<X c #AAA349",
"1X c #A8AA4C",
"2X c #B4A943",
"3X c #B5A44C",
"4X c #BDAD4F",
"5X c #BBB34E",
"6X c #BDB450",
"7X c #BEBE50",
"8X c #8D8D62",
"9X c #85846B",
"0X c #8F8F6D",
"qX c #968F6E",
"wX c #929B62",
"eX c #95956F",
"rX c #8B8970",
"tX c #989670",
"yX c #9A9A76",
"uX c #A48F64",
"iX c #AB976C",
"pX c #BA9065",
"aX c #B0A868",
"sX c #C5824F",
"dX c #C8AE5F",
"fX c #CEB657",
"gX c #C6BB54",
"hX c #E1B558",
"jX c #C1AA6E",
"kX c #C0B272",
"lX c #C5C053",
"zX c #D1C359",
"xX c #E5C963",
"cX c #9B9B80",
"vX c #A3A383",
"bX c #A7A78A",
"nX c #A8A88B",
/* pixels */
"'.`.W.=.-.-.-.W.`./.X.X./.W.X.-.aXkXOXW.`.`.W./.`./.X.X./.`.W.-.-.-.2.W.`.`.W.W.`.`.W.W.`./.X.C o.o.T.W.`./.X.X./.W.X.X.(.<XaXyX",
"^.&.S A ` ` S S &.%.a a %.%.N k B.H.W A &.x.S S %.%.a i $.z.S A ` ` A S &.%.S S %.x.S S &.%.a f ' ] A S N.} a a $.%.a a %.x./ / ",
"x._ * * _ [ r r [ [ e r [ [ i e b b @ = _ [ e d [ [ p r [ [ r r [ _ * * T T * * ) _ * 1 ] J.m m N.J.E E N.N.m k ) b e r [ { l z ",
":.G # * G ` K K ' ` K K ` ` K c e % . # G ' K K R ` K G +.R K K ` G * # F G # * G G * h J.qXK.rXqXqX9X9XqXqXrXr.k w z K ` ] [ %.",
">.G # + p K I I K D D W  . .9.^ E e o # H I H D D K I I K D D K Q D @ + p p + + p a 1 k p.cXcXp.p.p.p.p.p.9XcXp.h # Z I K L } C.",
"C._ * . + 3 K K 3 # # u C O.8.i.K.V.t : V C y # # 3 G K 3 # # 3 K D @ . + +   . + < s 1.rXp.^ h h q h h 9 9.rXp.h # D K 3 e L >.",
"b._ & . + < s s < # : M o.~.i.a.aX=Xp , | | M : : < s s 2 +   + p f g g 9 > .     + i r.rXp.h         . + k 9Xp.h + i p + * G >.",
"=.G # + p s < < s H V o.>X<Xw.w.dX*Xc 2 U.Q.| V H s < < s p + . + g 7.8.O. .<     . + k 9Xp.h X       + p ( 0Xp.h . + + . * _ C.",
"#.G # + p s 1 3 H o.T.>XzXdXH.H.dX*Xx 3 n.`.Q.U.;.U e < p z l 4 e j 8.i.Q.E.h X O O X h p.rX9.j h h h k 1.~.yXp.h . + + . % T C.",
"b.T * . + < z H X.T.1XzXxXaXa.a.jX*Xx 4 v.[.'.`.S.Z.U z < 5 Y j.n.Y.O.0.:XR.u O M M O h p.cX~.K.p.p.p.9XqXyXvXp.h + i i + # G n.",
"C.R * . + e T x.E.:XfXxXxXaXa.a.jX*Xx 4 h.XX|.|.XXD.v.U * 4 d.[.5X:X!.!.>X/.i : J J : h t.eXeXeXeXeXeXeXtXtXeXt.9 + i p + % G :.",
">.F * + p T Z.D.gXfXxXxXlX>Xw.+XdX*Xx 3 n.|.XXoX|.[.D.s.- : J /.7XaXi.i.aX%Xd = d.{ = $ ! 6.6.6.6.6.4.w.4.w.6.~ 7 . + + . * _ x.",
":.G % * U z.S.XXhXxXxXzX7X>Xw.e.dX=Xc e n.{.oXoX|.}.S.d.= > J /.6XaXa.i.aX%Xd 4 d.d.- * ! 6.6.1.Q D D Q 1.6.6.~ # . + + . * _ x.",
"x.T * - s.Z.;._.fXzXlXlXzXaXa.a.jX=Xd 4 j.oX|.|.oX[.n.J > = d.[.1X>X!.!.>X/.u > J J : 0 t.eXeXy.k # @ k y.eXeXt.9 + i i + # G :.",
"x._ & 4 d.m.;._.gXzXlX7XzXaXa.a.jX=Xl 4 j.oX|.|.XX[./.J : = d.S.{._.X.| U. .> : H J > h p.nXnXrX9.h h 9.rXbXnXp.h + p p + % G >.",
":.G # : J ;.m.[.2XlXzXzX7X>Xw.u.dX&Xc e n.|.oXoX{.].S.s.4 > J n.[.v.z : 2 , X 4 d.d.= h p.nXnXcXp.p.p.p.cXnXnXp.h . + + . * _ C.",
">.G # > J ;.M.[.2X7XzXzX7X>Xq.e.jX=Xx e n.|.oXoX}.{.[.d.- > J ;.j.n r ; q q 7 5 n n & g r.K.~.p.p.p.p.p.p.p.p.9.$ X + + X % _ C.",
"C._ * - d.M.;._.6XzXlX7XzXaXa.a.jX=Xx - j.oX|.|.XX[.n.J > = d.s.v l z ! t.t.! z l & o X g h j h h h h h h h h 9 X + i i + # G >.",
"C._ = = { m.;._.6XzXlX7XzXaXa.i.uXOXr w j.oX|.|.oXD./.J > & n Y 5 < s ! t.t.! N < + X X @ ; h 9 7 7 9 9 ; # # + X + d i + # G >.",
">.G # > J ;.m.[.2X7XzXzX7X>Xw.1.5.` * 8 n.|.oXoX}.}.S.d.= o & 5 z s < > q 9 7 1 s i + + d / t.t.! ! t.t.! D D a + X + + . * _ C.",
"n.G # : J ;.Z.[.2XlXzXzX7X'.+.D D p + 3 n.}.oXoX|.{.S.d.*     # S D e > 9 q 7 1 s i + ; ! H.yXyX+Xe.8X8Xe.3.+.A # . + + . * _ C.",
"C.T & = d.m.;._.6XzX7X7XzX&XE # # + . - j.XX|.|.oXS.n.J >     # D I K ! t.t.! a < + . 9 t.tXvXvXyX8Xe.e.8X#X3.W # + i i + # G #.",
"C.T * 4 d.m.R./.6XzX7X5X3XV.z # # # # 5 Y Z.].|.oX[.n.J >     + i D D ! t.t./ d +     ; 9.p.p.p.p.t.! ( ~.K.( a + # D D # # G #.",
"x.G * > J ;.m.[.<X7XzX3X] z S D D D S c l v Z.oX|.{.S.d.=     . + # + < 9 9 $ + X     o 9 h h h h q 7 i 1.] u +   # D D # * _ C.",
":.F # > J ;.m.[.2X4X3XV.z i ( 4.&.&.3.~ d r Y Z.].].S.d.=       + + . . + + . X > u p x x x d d i 6 y N +.Q i + . # D D # * _ C.",
"x.R * = d.m.;./.gX&X] c E  .@X$XG.G.-X@X( z l v Z.S.n.J #     + p i + + p p + >  .(.%X=X=X=X*X%X/.R.R.W._.W.I p + # D Z # # G >.",
"x.T * - d.m.;.E.].H.z i ] H.uXpXsXsXpXuXH. .e l s.d.$.J > . + i ~ ( i 1 s s 1 N ,.>X4XfXhXzXfXgX1X.X X'. X/.=.D # + i i + # G >.",
":.G # > J ;.m.c.) x A ( 9XuXL.sXpXpXsX;XuX@X~ Z 5 v j.d.= + i ~ @X@X/ s < 1 s P #.<.n.).1X1X).`..X.X/.,.,.,.#.D # X + + . * _ C.",
":.G # O M J d.Y r i ( +XuX-XF.l.J.J.l.F.L.qXH.~ e 5 Y n & + i / @X@X~ A z E @.<.n.^.,./.,X,X/./.,X,X/.n.5./.:.P > . + + . * _ C.",
"z.T % . O > 1 5 z ( @XuXsXF.v w t 0 w v F.sXuXK.' Z 5 & .   + i ~ ( i z V.&X'.,X4X4X,X,XlXlX,X,XlXlX,X,X4X4X>X=.1 + p i + # G >.",
"x._ *     . + 3 K 4.-XpXsXk.-         w l.sXpXqX3.D #     . + i ( ( i E %XzXgX7XzXzX7X7XzXzX7X7XzXzXgX7XzXzX7XOXH a N i + # G >.",
">.G %     + i K Q &.G.sXpXJ.t         q J.pXsXL.&.D #     + p ( @X@X( @.'.7XzXzX7X7XzXzX7XlXzXzX7X7XzXzX7X7XzXgX`...i + . * _ x.",
":.G *     + a D D ' F.sXpXJ.h         t J.pXsXG.&.G 8 +   $ / W.8X#X3.@.,.(.%X%X(.OX3X3XOX(.%X&X'.>X&X%X(._.3X3X)...i + . * _ x.",
"x._ *     . + O # m K.pXsXl.w         w l.sXpX$X3.+.D a + h t.8Xe.3.#.P N u d d u A =.#.A u i W +.#.E r u A #.3.A i N i + # G :.",
"x._ * X > 2 , O . t J.pXG.f.&         - f.G.pX-X4.Q K i @ h t.8Xe.1.Q s 1 + .     # D D #     # D D #     # D D # + i i + # G >.",
":.G # >  .-.C M O - l.G.v.) ;         * U c.G.L.z.P 8 +   $ ~ H.8Xy.k < s i +     # D D #     # D S #     @ G D # X + + . * _ C.",
">.G # u R. XI.C : - s.F.V.1.m j h h h k 1.V.L.L.V.1.k h j m r.H.8Xt.q * U ' m t w c ] ] l - t m ' ' m 0 w c 1.! <   + + . * _ C.",
"C._ * u R. XI.C : * U V.#X0XK.p.p.p.p.9XqXyXiXiXyXqX9Xp.~.9XqX8Xe.~ 7 - f.F.K.J.l.l.$X$XF.k.J.K.F.F.K.J.k.F.K.t.9 + i i + # G >.",
"V._ * <  .-.| B , 3 K 3.#XyXvXvXyXyXvXvXyXyXvXvXyXyXvXvXyXyXvXyX+X! # - s.F.K.J.k.k.J.J.k.k.J.J.l.l.J.J.k.k.J.9.9 + p p + * G >.",
"#.G # X > 2 , 2 N K I #.3.+XyXyX$X~.yXyX+X+XyXyX@Xe.yXyX+X+XyXvXyXt.q < U ' m t w w t q w w t t 4 w t t w w q ; X   + + . * _ C.",
":.G % X 2 2 , , N K I I K  .@X@X( ( @X@X( / @X@X( ( @X#X3.w.tXvXyXu.^ k N s 7 < < u u u d d x x d d i 3 u u u 8 < # # + . * T C.",
"b.T * >  .-.| B 2 6 K K e i +.~ e d  .~ d i ( ( i i ( 3.#.6.eXyX+Xw.u.9.k 1 Z P =.R.R./.%X*X=X=X*X%X(.R.R.R.R.=.Q D D i + # G >.",
"C._ & u E. XI.C : # D U l c P J E S Q K r l Q H u 1 z K 1.+XyXyX@XH.#Xt.q # D =.(. X`.>X4XfXfXfXzXgX,X X_. X XW.Q D D i + # G :.",
">.G # u E.Q.I.C : > D R s.d.*.U.`.OXY.*.d.z...X.H s < k y.yXvXvXyXrXW.~ * @ D #.,.,.,.<.V.V.V.).1X,X(.,.,.:.,.Q u # # + . & _ x.",
":.L # >  .-.| B 2 6 K $.Z.m.=.T.<X<XT.=.Z.m.=.o...H 3 k u.yXvXvXyX8XH.~ $ > P <.V.n.<.<./.n.>./.,X,X/.n.5./.:.Q : . + + . * _ x.",
"x._ * X , y , , N K I +.$.$.@.*.>.<.*.@.:.$.@...+.I K P 1.+XyXyX9XW.8Xt.h 2 =.>X4X4X,X>X4X4X,X,XgXgX,X,X4X4X,X=.1 + p p + # G :.",
"x._ * + 7 2 , , N K I R $.$.@.*.<.V.*.*.<.<.*.....I K Q 3.+XyXyX+XW.rXt.9 u (.7XzXzX7X7XzXzX7X7XzXzXlX7XzXzX7XOXH a N a + * G >.",
":.G # >  .-.| B 2 6 K } Z.m.=.T.<X<XT.T.<X2XU.o...K 3 k y.yXvXvXyX8Xe./ $ d %XzX7X7XzXzX7X7XzXzX7X7XzXzX7X7XzXgX`...i + . * _ C.",
">.G * y E. XI.C : : D $.Z.m.=.R.<X<XT.T.<X<XT.o...K 6 f y.yXvXvXyX8Xe.! ; r OX3XOX(.%X%X(.`.3X3X_.(.%X%X(.`.3X3X_.+.i +   % b %.",
"C._ ; 8 E.Q.I.C : # D ` $.$.@.*.V.<.*.*.5.5.*...+.I G P 1.+XyXyX+XH.#Xt.h 7 ' #.N u d d u A $.#.Z i i d u Z #.3.Z i A p + . % z ",
"C.[ r i ..U.| B , 6 K #.} $.@.*.<.<.*.@.$.$.@...+.I K Q 3.+XyXyX+XW.8Xy.k < N s 1 # X     # D K e + .     # D D # # V Z # o % z ",
">.` K N i 2 , , N K I $.Z.m.=.T.<X<XT.=.m.v.=.o...K 3 k u.yXvXvXyXrXe.1.Q s 1 1 a a +     # S I K i +     # D D # : V V O @ b %.",
",.Q K p +   + 1 s K I $.Z.m.@.T.<X<XT.=.m.m.*.o...H 3 f y.yXvXvXyX8Xe.w.6.! * * U ' m t w l 1.4.&.' m q w l L D # O M B 2 e b %.",
":.P 3 + . + i p < 3 K ` $.$.@.@.<.;.@.@.$.$.@...+.I K L 1.+XyXyX#Xe.#XeXeXt.9 - s.F.K.J.l.l.$X-XG.F.K.J.k.h.R S # X O 2 N z e i ",
",.D #     # D D # + i D D D D D D D D D D D D K I +.+.+.+.6.tXyX+X+X8XtXeXt.0 & n k.J.J.l.l.J.J.k.k.J.J.k.s.G Z y > X # D K 8 y ",
"=.S #     # D D # . + # # # # < # # # # # @ # 3 D +.+.+.+.4.tXvXtX8X+X6.6.! $ o & w t q w - t t w w q t w = * p .. .> # D Q Q Q ",
"I z l - % < a c 5 - * + . o & - % + . o & - * < s D D W 3.+XyXnXnXeX( D D Z 5 - * + . o & - * + . o & - % + . 8 <.n.s < s G +.>.",
"y 5 n s.U z < l Y s.G p + & n s.U p + & n s.U s < # # k y.yXvXnXvX9XE # # r Y s.U p + & n s.U p + & n s.U p + 4 j.S.R z < r [ C.",
"y l h.A.z.L e l h.A.z.L e l h.A.z.L u l h.A.z.F # . + k y.yXvXvXyXy.k + . - h.A.z.L e l h.A.z.L e l h.A.z.L e l h.A.z.L e r [ C.",
" .T c.Z.c.%.L Q c.Z.c.g.L T j.Z.c.%.L _ c.Z.c.T * + i Q 1.+XyXyX+X1.P p + % f.Z.c.} Q U j.F.c.} T U c.Z.c.%.K _ j.F.c.} L G ` n.",
"=.$.z.B.c.} L _ g.c.c.} L T g.B.c.} L _ z.c.c.T * # D +.X.2.wXwX2.....A @ = _ B.c.} Q _ z.c.c.} L T g.B.c.} Q _ z.c.c.} L G ` >.",
"@.$.z.c.%.L e r { c.&.L e r { c.%.L e r { c.%.G % # Z ..P.Q.:X:XY.o...D # = [ c.%.L e r { c.%.L e r { c.%.L e r { c.%.L e p [ b.",
"+.$.z.} L i + @ b _ G p + @ b _ G i + % v _ G i + # H o.I.Q. X XQ.P.o.H # @ b _ G i @ @ b _ G a + % b _ G i @ @ b _ G p + @ b %.",
"*.+.$.Q e @ . o % = * + . o % * * + . o % * * + . : V P.Q. X.X,X XQ.P.V # o % & * + X o % & * + . . % * * + X o % & * + . o % a "
};
