/* XPM */
static char *result[] = {
/* columns rows colors chars-per-pixel */
"64 64 237 2 ",
"   c #A0B841",
".  c #95B23D",
"X  c #719F32",
"o  c #4E8E28",
"O  c #5A942B",
"+  c #7CA536",
"@  c #94B13D",
"#  c #9AB540",
"$  c #9DB740",
"%  c #88AB3A",
"&  c #669A2F",
"*  c #58932B",
"=  c #8CAD3B",
"-  c #98B43F",
";  c #9DB640",
":  c #97B33E",
">  c #77A234",
",  c #59932B",
"<  c #97B33F",
"1  c #7DA63C",
"2  c #639938",
"3  c #6B9D39",
"4  c #83A93C",
"5  c #8BAD3B",
"6  c #9FB741",
"7  c #99B43F",
"8  c #A1B841",
"9  c #4D8D28",
"0  c #4F8E28",
"q  c #63982E",
"w  c #76A234",
"e  c #89AC3A",
"r  c #93B13D",
"t  c #7FA637",
"y  c #72A033",
"u  c #7FA737",
"i  c #9FB841",
"p  c #9BB540",
"a  c #89AB3A",
"s  c #9FB846",
"d  c #9FB957",
"f  c #9DBA65",
"g  c #91B35B",
"h  c #7EA844",
"j  c #72A034",
"k  c #9CB640",
"l  c #95B23E",
"z  c #468925",
"x  c #4B8C27",
"c  c #77A334",
"v  c #96B33E",
"b  c #8DAE3B",
"n  c #9FB740",
"m  c #9EB740",
"M  c #A8BD4C",
"N  c #C3CD71",
"B  c #DADC93",
"V  c #B8C97D",
"C  c #7AA64B",
"Z  c #59932D",
"A  c #87AB39",
"S  c #65992F",
"D  c #5D952D",
"F  c #719F33",
"G  c #88AB39",
"H  c #84A938",
"J  c #A8BC4B",
"K  c #C1CC6A",
"L  c #D8D987",
"P  c #BBCA75",
"I  c #83AB4B",
"U  c #679A31",
"Y  c #64992F",
"T  c #85A938",
"R  c #9EB741",
"E  c #5D952C",
"W  c #A3BA45",
"Q  c #AEC052",
"!  c #B7C65E",
"~  c #ABC057",
"^  c #95B245",
"/  c #56922A",
"(  c #80A737",
")  c #9CB540",
"_  c #94B23D",
"`  c #4E8D28",
"'  c #9CB541",
"]  c #98B440",
"[  c #99B440",
"{  c #9CB641",
"}  c #55912A",
"|  c #75A134",
" . c #8DAD3B",
".. c #62982E",
"X. c #8BAD3A",
"o. c #83A93A",
"O. c #79A335",
"+. c #699B30",
"@. c #5E962D",
"#. c #81A737",
"$. c #94B245",
"%. c #83A93B",
"&. c #679B35",
"*. c #689B30",
"=. c #85AA38",
"-. c #A1B942",
";. c #6A9C38",
":. c #5E9633",
">. c #659A2F",
",. c #A0B842",
"<. c #A4BA47",
"1. c #A7BC4A",
"2. c #AFC25C",
"3. c #D5D886",
"4. c #9EBA66",
"5. c #629937",
"6. c #7AA439",
"7. c #A5BB48",
"8. c #C8D073",
"9. c #C1CB6A",
"0. c #AEC053",
"q. c #73A034",
"w. c #8CAF48",
"e. c #B3C566",
"r. c #C2CD71",
"t. c #7CA63B",
"y. c #87AA39",
"u. c #A7BC4C",
"i. c #C7CF73",
"p. c #E5E196",
"a. c #D8DA87",
"s. c #B6C55E",
"d. c #9FB742",
"f. c #9AB53F",
"g. c #689B33",
"h. c #8FB043",
"j. c #A0B846",
"k. c #78A334",
"l. c #8FAF43",
"z. c #B3C466",
"x. c #C7D078",
"c. c #A0B953",
"v. c #89AC3B",
"b. c #5B942C",
"n. c #63992E",
"m. c #79A435",
"M. c #699C33",
"N. c #AFC15C",
"B. c #78A43D",
"V. c #669A30",
"C. c #7DA636",
"Z. c #6C9D31",
"A. c #78A336",
"S. c #8AAC3B",
"D. c #A1B943",
"F. c #90B043",
"G. c #699C34",
"H. c #508E29",
"J. c #508F29",
"K. c #498B26",
"L. c #5F962D",
"P. c #95B23F",
"I. c #AFC15B",
"U. c #96B23F",
"Y. c #709F32",
"T. c #A1BA53",
"R. c #79A43D",
"E. c #679A30",
"W. c #8DAE3C",
"Q. c #7FA738",
"!. c #5B952C",
"~. c #5C952C",
"^. c #7EA636",
"/. c #478925",
"(. c #4C8C27",
"). c #96B23E",
"_. c #71A033",
"`. c #98B33E",
"'. c #61982E",
"]. c #81A837",
"[. c #98B33F",
"{. c #92B03D",
"}. c #D6D886",
"|. c #C7D079",
" X c #A0BA53",
".X c #A1B842",
"XX c #A3BA49",
"oX c #9BB543",
"OX c #DBDC93",
"+X c #CDD484",
"@X c #ABC05B",
"#X c #96B33F",
"$X c #57922A",
"%X c #92B13D",
"&X c #78A335",
"*X c #7EA744",
"=X c #77A335",
"-X c #649930",
";X c #81A838",
":X c #86AA39",
">X c #C7D073",
",X c #E4E096",
"<X c #C0CD80",
"1X c #7DA84D",
"2X c #5A942D",
"3X c #619837",
"4X c #559231",
"5X c #518F2C",
"6X c #9CB643",
"7X c #95B345",
"8X c #8EAF43",
"9X c #D4D886",
"0X c #BACA75",
"qX c #64992E",
"wX c #A4BB4A",
"eX c #ACC057",
"rX c #679B33",
"tX c #A9BD4D",
"yX c #B0C25C",
"uX c #8EAF3D",
"iX c #71A032",
"pX c #57922B",
"aX c #6A9D38",
"sX c #84A93B",
"dX c #508E28",
"fX c #478A25",
"gX c #8FAF3C",
"hX c #94B13E",
"jX c #6E9E32",
"kX c #7EA637",
"lX c #6F9E32",
"zX c #7DA637",
"xX c #5A942C",
"cX c #94B23E",
"vX c #9AB43F",
"bX c #61972E",
"nX c white",
/* pixels */
"      . X o O + @ # $ % & * X = - ;           : > , & % < 1 2 3 4 5 X * & % 6         . X o O + @ # $ % & * X = - ;           7 ",
"    8 . X 9 0 q w e # r t y X y u r i         p a > t r s d f g h j X y t r i       8 . X 9 0 q w e # r t y X y u r i         k ",
"6 6   l y o z x * c v $ 7 b y * & % 6 i 6 n 6 m # v - ; M N B V C Z y b 7 ;   i 6 6   l y o z x * c v $ 7 b y * & % 6 i 6 n 6 m ",
"A b 7 - t S D D S t -   8 7 t & F b k r G H H G r $     J K L P I U t 7 8   ; r % b 7 - t S D D S t -   8 7 t & F b k r G H H A ",
"Y F b k r G T T % r R     ; r % b 7 - t S E E S t -     W Q ! ~ ^ e r ;   8 7 t & F b k r G T T % r R     ; r % b 7 - t S E D q ",
"/ q ( l # ; ) : _ . . - ;   i 6 k - b y / ` ` * c :     6 ' ] [ { 6 i   ; 7 b y * q ( l # ; ) : _ . . - ;   i 6 k - b y / ` o } ",
"X X X w e # r t y X y t r i   i r t y X X X X w a p     p a > t r i   i r t y X X X X w e # r t y X y t r i   i r t y X X X X | ",
" .u .., c l a & 0 o 0 & % 6 i $ A & * X = . . v p 6   i l w , & % 6   6 e U Z j X.( .., c l a & 0 o 0 & % 6 i $ A & * X = . . v ",
"o.O.+.& t < b F @.D @.F b k r A O.+...X #.b 7       - b ( X q F b 6   i $.I C h %.O.+.& t < b F @.D @.F b k r A O.+...X #.b 7   ",
"&.*.O.A r ; 7 b =.H T = 7 - t & *.O.u X q F b 6   6 b F q X ( b 7     -.~ P V g ;.*.O.A r ; 7 b =.H T = 7 - t & *.O.u X q F b 6 ",
":.>.A k # v - k ,.<.M 1.W : c , & A @ > , & % 6   6 % & , w l k - l . < 2.3.B 4.5.S A k # v - k ,.<.M 1.W : c , & A @ > , & % 6 ",
"6.t r # e c t r 7.! 8.9.0.{ a c t r # a c t r i   i r t c a # r t y X q.w.e.r.d t.t r # e c t r 7.! 8.9.0.{ a c t r # a c t r i ",
"< - k l w , & y.u.i.p.a.s.d.f.v - ; 6 p : - k m 6 m k - : p m % & 0 9 o g.h.u.j.] - k l w , & y.u.i.p.a.s.d.f.v - ; 6 p : - k m ",
"  7 b ( X ..+.k.l.z.3.x.c.v.r $           7 b =.H =.b 7     6 b F b.0 z E H m     7 b ( X ..+.k.l.z.3.x.c.v.r $           7 b =.",
"6 b F n.F ( m.*.M.w.N.c.B.V.t -         n = X @.D @.F b i     - b C.q x D H n   6 b F n.F ( m.*.M.w.N.c.B.V.t -         n = X @.",
"m =.@.o Z.e ( .., A.< S.V., c :     D.7.M F.G.H.o 0 n.( l p 6   i l w * S G 6   n =.@.o Z.e ( .., A.< S.V., c :     D.7.M F.G.J.",
"m T D K., Z.F X w a # r t c a p     7.! i.z.w.q.X X X X w a p     p a c t r i   6 H D K., Z.F X w a # r t c a p     7.! i.z.w.q.",
"m =.L.z K.o n.( l # ; ) : l # 6   n M i.p.3.2.P.. @ ( q , w l i   6 p : - k 6 i m =.L.z K.o n.( l # ; ) : l # 6   n M i.p.3.I.U.",
"; b F L.D @.F b k r G T T % r ; - = F.z.3.x.c.S.r k b F q X ( b -       7 b % r k b F L.D @.F b k r G T T % r ; - = F.z.3.x.c.v.",
"f.7 b =.H =.b 7 - t S D D S u < b Y.M.w.2.T.R.E.t - 7 b ( X q F b 6   i b F & t - 7 b =.H =.b 7 - t S D D S u < b Y.M.w.2.T.R.S ",
"7   6 n 6 m k - b y / x z o y _ e & * q.W.Q.!.0 y l   i l w , & % m p l ( q , c :   6 n 6 m k - b y / x z o y _ e & * q.W.Q.~.9 ",
"k         i r t y X Y.q 0 9 X . r t y X Y.q 0 9 X . 8   p a c t r # a w X X w a p         i r t y X Y.q 0 9 X . r t y X Y.q 0 x ",
"6   6 6 i 6 % & * y = ^.b.0 y . R 7 b y / x z o y l     6 # l < ; v c , q ( l p 6   6 6 i 6 % & * y = ^.b.0 y . R 7 b y / x /.(.",
"  - b % r k b F & t - b F & t -   8 7 t S D D S t -     ; r a b 7 - t & F b i     - b % r k b F & t - b F & t -   8 7 t S D D n.",
"6 b F & t - 7 b % r ; - b % r $     ; r G H H G r $ 8 8 7 t & F b k r % b 7     6 b F & t - 7 b % r ; - b % r $     ; r G H H A ",
"m % & , c :   6 6 i     6 m # v - ;   i 6 n 6 m # v . ).b y * q ( l # $ k - : p m % & , c :   6 6 i     6 m # v - ;   i 6 n 6 m ",
"p r t c a p               p a c t r i         p e w X X X X X X X w a # r t c a # r t c a p               p a c t r i         k ",
"7 ; < l # 6   6 6 i       : c , & % 6       i l > * 9 9 } _.= #.q , A.< S.V., c v ; < l # 6   6 6 i       : c , & % 6       i `.",
"f.7 b a r ; - b % r ;     - t & F b 6     - b ( X '.} K.9 _.. b X M.w.N.c.B.V.t - 7 b a r ; - b % r ;     - t & F b 6     - b ].",
"; b F & t [.b F & t 7 8   ; {.G = 7     6 b F q X t _.} 9 X . 7 = F.e.}.|. XS.r k b F & t [.b F & t 7 8   ; {.G = 7     6 b F ..",
"m % & * y = #.q * y b 7 ; .X7.M XXoX: p m % & , > @ A Y * w v   n u.r.OX+X@X#X# $ % & * y = #.q * y b 7 ; .X7.M XXoX: p m % & $X",
"p r t y X X X X X X y t %X7.! i.z.w.&Xa # r t c e # r t c a p     j.d 4.g *X=Xa # r t y X X X X X X y t %X7.! i.z.w.&Xa # r t w ",
"7 ; 7 b j Z -X;X= X / S :Xu.>X,X<X1X2X> v ; < l # 6 ; - v # m 6   ] t.3X4X5X* c v $ 7 b j Z -X;X= X / S :Xu.>X,X<X1X2X> v ; < . ",
"f.  8 6Xw.1XI 7Xl X 9 } Y.8Xe.9X0XI U t - 7 b a r ;     $ r % b 7 - t qX~.~.S t -   8 6Xw.1XI 7Xl X 9 } Y.8Xe.9X0XI U t - 7 b G ",
"R     wXz.<X0XeX#XX 9 K.} rXw.2.~ $.e r k b F & t -     - t & F b k r G H H G r $     wXz.<X0XeX#XX 9 K.} rXw.2.~ $.e r k b F Y ",
"v - ; tXi.,X9XyXuXX } 9 9 * A.] -.i m # l ( q , c :     : c , & % 6 i 6 n 6 m # v - ; tXi.,X9XyXuXX } 9 9 * A.] -.i m # l ( q $X",
"w t {.7.! >Xe.w.j X X iXX > a p     p e w X X w a p     p a c t r i         p a c t {.7.! >Xe.w.j X X iXX > a p     p e w X X | ",
"pX& % ,.7.u.l.M.* y b l _ l # 6     : c , q ( l # m 6   6 # l < ;   i 6 6   : c , & % ,.7.u.l.M.* y b l _ l # 6     : c , q ( . ",
"Y F b k r y.k.*.& t - 7 b a r ;     - t & F b k r % b - ; r a b 7 ; r % b 7 - t & F b k r y.k.*.& t - 7 b a r ;     - t & F b ; ",
"A b 7 - t & +.O.A r k b F & t 7 8   ; r % b 7 - t & F b : t & Y.b [.t & F b k r % b 7 - t & +.O.A r k b F & t 7 8   ; r % b 7 f.",
"6 6   l y 0 b.+ @ # $ % & * y b 7 ;   i 6 6   : c , & % < t.5.aXsX= y * & % 6 i 6 6   l y 0 b.+ @ # $ % & * y b 7 ;   i 6 6   7 ",
"    8 . X 9 0 q w e # r t y X y t r i         p a c t r s d 4.g h y X y t r i       8 . X 9 0 q w e # r t y X y t r i         k ",
"6 6   l y o z x * c v $ 7 b y * & % 6 i 6 n 6 m # v - ; M N B V C Z y b 7 ;   i 6 6   l y o z x * c v $ 7 b y * & % 6 i 6 n 6 m ",
"A b 7 - t S D D S t -   8 7 t & F b k r G H H G r $     J K L P I U t 7 8   ; r % b 7 - t S D D S t -   8 7 t & F b k r G H H A ",
"Y F b k r G T T % r R     ; r % b 7 - t S E E S t -     W Q ! ~ ^ e r ;   8 7 t & F b k r G T T % r R     ; r % b 7 - t S E D q ",
"/ q ( l # ; ) : _ . . - ;   i 6 k - b y / ` ` * c :     6 ' ] [ { 6 i   ; 7 b y * q ( l # ; ) : _ . . - ;   i 6 k - b y / ` o } ",
"X X X w e # r t y X y t r i   i r t y X X X X w a p     p a > t r i   i r t y X X X X w e # r t y X y t r i   i r t y X X X X | ",
" .u .., c l a & 0 o 0 & % 6 i $ A & * X = . . v p 6   i l w , & % 6   6 e U Z j X.( .., c l a & 0 o 0 & % 6 i $ A & * X = . . v ",
"o.O.+.& t < b F @.D @.F b k r A O.+...X #.b 7       - b ( X q F b 6   i $.I C h %.O.+.& t < b F @.D @.F b k r A O.+...X #.b 7   ",
"&.*.O.A r ; 7 b =.H T = 7 - t & *.O.u X q F b 6   6 b F q X ( b 7     -.~ P V g ;.*.O.A r ; 7 b =.H T = 7 - t & *.O.u X q F b 6 ",
":.>.A k # v - k ,.<.M 1.W : c , & A @ > , & % 6   6 % & , w l k - l . < 2.3.B 4.5.S A k # v - k ,.<.M 1.W : c , & A @ > , & % 6 ",
"6.t r # e c t r 7.! 8.9.0.{ a c t r # a c t r i   i r t c a # r t y X q.w.e.r.d t.t r # e c t r 7.! 8.9.0.{ a c t r # a c t r i ",
"< - k l w , & y.u.i.p.a.s.d.f.v - ; 6 p : - k m 6 m k - : p m % & 0 9 o g.h.u.j.] - k l w , & y.u.i.p.a.s.d.f.v - ; 6 p : - k m ",
"  7 b ( X ..+.k.l.z.3.x.c.v.r $           7 b =.H =.b 7     6 b F b.0 z E H m     7 b ( X ..+.k.l.z.3.x.c.v.r $           7 b =.",
"6 b F n.F ( m.*.M.w.N.c.B.V.t -         n = X @.D @.F b i     - b C.q x D H n   6 b F n.F ( m.*.M.w.N.c.B.V.t -         n = X @.",
"m =.@.o Z.e ( .., A.< S.V., c :     D.7.M F.G.H.o 0 n.( l p 6   i l w * S G 6   n =.@.o Z.e ( .., A.< S.V., c :     D.7.M F.G.J.",
"m T D K., Z.F X w a # r t c a p     7.! i.z.w.q.X X X X w a p     p a c t r i   6 H D K., Z.F X w a # r t c a p     7.! i.z.w.q.",
"m =.L.z K.o n.( l # ; ) : l # 6   n M i.p.3.2.P.. @ ( q , w l i   6 p : - k 6 i m =.L.z K.o n.( l # ; ) : l # 6   n M i.p.3.I.U.",
"; b F L.D @.F b k r G T T % r ; - = F.z.3.x.c.S.r k b F q X ( b -       7 b % r k b F L.D @.F b k r G T T % r ; - = F.z.3.x.c.v.",
"f.7 b =.H =.b 7 - t S D D S u < b Y.M.w.2.T.R.E.t - 7 b ( X q F b 6   i b F & t - 7 b =.H =.b 7 - t S D D S u < b Y.M.w.2.T.R.S ",
"7   6 n 6 m k - b y / x z o y _ e & * q.W.Q.!.0 y l   i l w , & % m p l ( q , c :   6 n 6 m k - b y / x z o y _ e & * q.W.Q.~.9 ",
"k         i r t y X Y.q 0 9 X . r t y X Y.q 0 9 X . 8   p a c t r # a w X X w a p         i r t y X Y.q 0 9 X . r t y X Y.q 0 x ",
"6   6 m i 6 % & * y = ^.b.dXy l R 7 b y pXx /.0 y ).    6 # l : ; : =X, q ( l p 6   6 m i 6 % & * y = ^.b.dXy l R 7 b y pXx fX(.",
"  7 gXX.hXk = jXn.kX< b lXY zX- 8 8 - kX..xXxXq kX-     $ cXX.gXvX[.zXn.lX= i     7 gXX.hXk = jXn.kX< b lXY zX- 8 8 - kX..xXxXbX"
};
