/* XPM */
static char *result[] = {
/* columns rows colors chars-per-pixel */
"64 64 83 1 ",
"  c #14223C",
". c #16264F",
"X c #1E335B",
"o c #1D3166",
"O c #30435C",
"+ c #28457F",
"@ c #344C74",
"# c #243C83",
"$ c #294680",
"% c #2B4A86",
"& c #2C4C8E",
"* c #38578E",
"= c #2D4F93",
"- c #2E5097",
"; c #395993",
": c #30549E",
"> c #395B98",
", c #2C47A5",
"< c #2C49A7",
"1 c #2E4CAB",
"2 c #324EAA",
"3 c #3256A3",
"4 c #3452AF",
"5 c #3856AF",
"6 c #3358AB",
"7 c #2F4FB0",
"8 c #304FB0",
"9 c #3254B5",
"0 c #3856B0",
"q c #365DB5",
"w c #3B5CB7",
"e c #3357B9",
"r c #3459BA",
"t c #3B5DB8",
"y c #3B63B2",
"u c #3C60BB",
"i c #4261B5",
"p c #4565B8",
"a c #4669B8",
"s c #496ABB",
"d c #5275B6",
"f c #5478B6",
"g c #375EC1",
"h c #385EC1",
"j c #3B62C4",
"k c #3B66CB",
"l c #3D68CE",
"z c #3F6CD3",
"x c #4B6EC1",
"c c #416CCE",
"v c #4970C7",
"b c #4772CF",
"n c #4872CE",
"m c #597DC7",
"M c #5179CE",
"N c #406ED5",
"B c #4372D6",
"V c #4373DA",
"C c #467BDF",
"Z c #4D7CDA",
"A c #527CD1",
"S c #467AE4",
"D c #487DE6",
"F c #487DE8",
"G c #5E82B4",
"H c #678AB2",
"J c #5B82CE",
"K c #5A82D0",
"L c #648ACF",
"P c #6189D2",
"I c #6790D6",
"U c #729CDC",
"Y c #4A81EC",
"T c #5288ED",
"R c #4C85F0",
"E c #4D88F4",
"W c #548DF4",
"Q c #6498EC",
"! c #6B9EEE",
"~ c #74A2E3",
"^ c #7FACE4",
"/ c #80ADE6",
"( c #83B3ED",
/* pixels */
"91<7rkzzzgkzzg17kNlgkzzlgkzNlh91<7rkNNzhe1<7rkzVlhkzzh19kzlgkzzz",
"k91hBBjhzVzjr9<19hlVzjglVNkglVl91gNNjhlVl91hzzjhlVzjr7<19hzzzkhl",
"zhelDVutlSVh11,<19lSVhelSVhecSVjwcSNe7kSVh9lFVjwcSVh11,,19lSzh9l",
"zllllnJJMcllke17hlllzlllllllkcnJKAch7<9kllllzbJJMzllke12hlzlzlll",
"hVFlexU/JwhVSk1rBSlehVSl9hVSc9xU/Kw1<<<7hVSlrxU/JwhzFk4rBSl9hVSz",
"kzzlhvIUJjkzVnvvBVlhjBVnxvBVlhvI~mh91<8rjNVlhvIUJjkzVbvvBVlhjzVB",
"zjhlVVvvnVNjjmUIvhlVzkjmUIvhlVBvxnVl91hNNjhlVBvxnVBjjJUIvhlVNjjm",
"VhelSzr4kSVhtP/Ux9lSVe5J^UxelSVh9lFNg9lFVh9lSVr1jSVhtJ/UxelSVr5m",
"zzlllh219kzllMJJblllh72pJKBzllllllllzllllzlllh81ekllcMKmnlllh71p",
"gzSz91<,11gVScwjVSl91<,25uVFl9jVSlehzFlehzFle1,,11hVSctjVSl91<,2",
"kzzzh91,4rkzNh19lVlh91,7rjzzlhjzVlhjzVlhkzzzr91,7ekzVh19lVzh91<1",
"zkhzzl92hzzjr4,19glVl91hBNjjzzzjhlVNjhlNzkglVl92hNzke2<19tlVl91h",
"zgelSVjtcSVg11,<19lSVjwcSVh9lFVjwcSVe2kSVgelSVjwcDVh1<<,19lSVuwl",
"lllllnJJMzlzke17hlllnJJMclllllnJKMcr81eklllllbJKncllke17hlllbKKM",
"gVSlexU/KthzSk1rBSlesU^JwhVSl9sU/Kw21,17gSSlexU/PwhVSk1eBSlevU/P",
"kzVlhxIUJjlzzlhjNVljvIUKjjzVh1pLUJj91,1rhzNlhvIUmjjNVlhkzVluvIUK",
"zkhlVBxxbVzkhlVNjhlVBvxbVNjr9,4ixbVz9<jzNjhlVbvxbVNjhlVzjjkVBvsb",
"NgelSVhelSCuulSVj9lSVurlSVh71,,19zFzhelSVh9lSVh9zSVjwbSVh9lFVjek",
"lzllllllllbKJMcllllllllllllk917hllllllllllllzlclllnJJMlllzllllll",
"gVSl9hVSkexU/JwuzFlrhBSl9hVSk1rBSlejzSl9hVDl9hVSlrsU/JwhzFl9uBSl",
"zDYZvvbVluaGHfukBVvsayyqrjBVnvvBVlhjzVlhlSRZvvbVlhaGHdujzCvsayyu",
"DRWQ~IvjlBy@O;zzjjKUG@X=cNjjJUIvhlzzktlVFRWQ~InjlVy@O;BzjuKUG@X&",
"SYT!(UxrlSyX %zBr5J^HO %BB95J/UxelFVjtcSYYT!(Ux9lSyX %Bzr9J^HO +",
"-qcMJJnlkkq=%3jj12pJd;%3jh22aJKncllBJJMNllcMKmnzlkq=%3uj72pJd;%3",
".#240jVSl9tlBj91,,25ucBj91<<20jVSkesU/Ju71795jVFl9rzBj91<,20ucBj",
"o#,2ejNVlhjVVzr9111rkzVlj91<7rjNVljvIUJu91<7ejNVljkzVzr91,1rkzVl",
"611hBNktlVzkhlVl91jzzlhlVl71hzzjhlVbvsnVl7<hNNjtkVzkuzVl91jBzjjk",
"BrelSVjtlSVh9lSVh9lSzh9lSVjqcFVh9jBzuelFVgelSVjtlSzgekSVrrkSzjek",
"lllllbJJMclllllllllllllllnJJMcllj3%-ukklzllllnJJMcklllkzllllzzzl",
"jVSl9xU/JwhVSl9hVSl9hVSlrsU/LthVz% XyCl9hVSlrxU^JujVFleuzSl9hzFl",
"jzVlhvIUJjjNVnxvBVh19lVljvIUmjjNz;O@yzljjNVchvIUJjjzVnvvVVh19lzz",
"zkhlVBvvnVBjjJUIvr7<19rzVBvvbVNjufHGsgzzzjhkVBvxbCzjuJUIvr7<19hl",
"zhelSVr7kSVrtK/Uv1<<<19jBlrelSVgyJ/UsrlYzjrlSzr7kSzgwJ/Ux1<,<19j",
"zllllh7<ekllNAKmbke17uj3%=ylllllbMJJnlkklzlzkj7<rklzcMLKbkr<7gj6",
"gVSl91<,<8hVScwhVSk1rzz% XySl9hVFzujVSlegzFze1<,<7hzSlwjVSk1rzz&",
"zFRVh91<8ejNVcgkzVljkzb;O@uzlhkzzlrjzVlulFRzg91<7rkzVlhkBVlhkzb>",
"SREYSl91hNNkhlVzkjkzzkudHGaulVzjglSzjjkzFREYSl91jzzlgzVzjjzzzjud",
"YYYYFVg9lSNh9lSVuezFzhuJ^UselSVe1kSzjelFFYYYFVg9lFzhelFzg9lFVjqJ",
"llzlllllllllllllllllllbMJKblllh7<eklllllzllllllllllzlllzllkllllM",
"77117hVSlehVSl9gzSl9jzSlwjCSl91<<<1jVSle17177gVSlehzSl7hzSl9jBSN",
"71<7ekzVlhjNNh19zzlgjzzzhjzVzg91<7rkzVzge1<7rjNVzgjzzh19zzzgjzzz",
"l91gzzkgcVNjr8<1ejzzzkhzVNjhlVl91hzzjhlzl91hBNjhlVzjr411ejzzzkgl",
"zh9lSVjwcSVh71,<1elSzgelSVh9lSVjwlFzr7kSVg9lSVjtlFVh71,,19lSzhel",
"zllllbJJnclzke<7gkzlzlllllllllbmJMlj7<9klllllnJPMlllke,4hlllzlll",
"jVSlrxU/KthVSk4ezSl9hzFzetVDlrvU/Pw11,17gzSlexU/JttVSj4rzSl9hzFz",
"jBVkhvIUJujNVvvvVVlhkzVbxvVVltvIUJu91<1rlzNlhvPUJjkzVnvvBVlhkzVB",
"zjjkVBvvbVNjuJ~IvjlVzjjJUIvhlVBvxbVl91hBzkglVBxxbVzkjJUIvjlVNkum",
"zh9lSBe4kSVjtK/UselSV95J/Ux9lSVhelSVrelSVgelSVr9kSVhtJ/UxelSVr0m",
"zzlllh7<eklllMJJBlllh42pJJnllllllllllllllzllkj4<9kllcMKKnlllh72p",
"gVSl91,,<7hVFctuVSl91,,25jVSl9hVSz7gVSl9hzSz91<,11hVSNtuVSl91<,2",
"kzVlh91,7rkzNh19lNlh91<7ekNVlhjNNzhkzVlhkzzzh91,7rjzzg19lVlh91,7",
"zjglVl92hzzkr1119glVl91hNzktlVNjglVzkgzzzjhzzl91jzzke7<19hlVl91h",
"zgelSVjwcSVg71,,19lSVuwNSVh9lSVjwcSNr7kSVhelSVjwlFVh7<,<19lFVuwl",
"lzlllbKKnzlzke17hlllnJJAclllllbJKMch71ekzllllbJJMcllke17hlllbKJM",
"gVSlexU/PthzSk1rBSlrxU^KwhVSl9xU/Kw1<,<7gVSl9xU^JttVSk7rNSz9vU/P",
"kzVlhxIUJjlzzlhjNVlhvIUmjjzVh1iPUmj91<7rkzzljvIUJjkzzzhgzVltvIUK",
"zjjlVbvsvVNjtlVNjhlVBvxbVzjr4,4ixnVl91hVzjjlVBvxnVzjrlVzjhlVBvsn",
"Vr9lFVjezSVjtNSVh9zSVh9lSVh11,,1elSVh9lSVh9lSVhelFVjucFVhelSVjek",
"llklllllllnJPMcllllllzllzllke14hllllllllklllllllllnJJMclllllllll",
"jVFlruVSl9xU/JtrVSl9tVSl9hVSk1rVSl9hVSl9jVFleuVSlesU^PrhVSlejBSl",
"zSRZvvBVlupGHdtjNVnxpyyqrjNVnxvBVlhjzVlglSYZvvBVluaGHdujBVnsayyq",
"FRWQ~IvjlVy@O;cNjjJUG@X=lBjjmUIvhlVNkglVFRWQ~IvjlVy@O;bzjuJUG@X&",
"CYT!(UvelSyX %BVr0J^HO %BVr0J/Ux9lSVxtlDYYT!(Ux9lCyX %BNr5J/HO +",
"-uzAJKvkllq&+3jj23aJf*+3jh44aPKnkllbMJnclzcALJbkllu&+3jh92sJf*$:"
};
