/* XPM */
static char *result[] = {
/* columns rows colors chars-per-pixel */
"64 64 184 2 ",
"   c #050302",
".  c #090601",
"X  c #070805",
"o  c #0B0C02",
"O  c #02050D",
"+  c #05090A",
"@  c #0A0C0B",
"#  c #110F02",
"$  c #0D1404",
"%  c #0D1A04",
"&  c #0A120C",
"*  c #0B1A08",
"=  c #141301",
"-  c #1A1701",
";  c #171904",
":  c #1C1C01",
">  c #14170D",
",  c #061410",
"<  c #211F01",
"1  c #0E2503",
"2  c #112602",
"3  c #1D2205",
"4  c #132902",
"5  c #1B2508",
"6  c #242301",
"7  c #292701",
"8  c #262803",
"9  c #2C2A01",
"0  c #2D2E0A",
"q  c #27290B",
"w  c #312E00",
"e  c #2D3402",
"r  c #2F310B",
"t  c #343301",
"y  c #3A3701",
"u  c #353902",
"i  c #3C3C03",
"p  c #33340A",
"a  c #38390A",
"s  c #011137",
"d  c #01133A",
"f  c #413D01",
"g  c #444302",
"h  c #484600",
"j  c #4C4A02",
"k  c #414309",
"l  c #504F00",
"z  c #545302",
"x  c #5A5903",
"c  c #595702",
"v  c #646304",
"b  c #686808",
"n  c #747203",
"m  c #7D7B03",
"M  c #494D3F",
"N  c #4D5232",
"B  c #545C3C",
"V  c #5D5D3B",
"C  c #5E6236",
"Z  c #5F683E",
"A  c #6F702A",
"S  c #7B7C25",
"D  c #74762B",
"F  c #7B7B2C",
"G  c #666933",
"H  c #636D3B",
"J  c #636636",
"K  c #6B7235",
"L  c #737732",
"P  c #011949",
"I  c #031E58",
"U  c #05235D",
"Y  c #182F5C",
"T  c #1D345D",
"R  c #303F4F",
"E  c #253C5C",
"W  c #243659",
"Q  c #303E50",
"!  c #001E65",
"~  c #001F6B",
"^  c #001F71",
"/  c #022264",
"(  c #00226B",
")  c #142B62",
"_  c #192F60",
"`  c #1B3361",
"'  c #002474",
"]  c #002679",
"[  c #00287E",
"{  c #3D4A47",
"}  c #3B4A4D",
"|  c #2D435A",
" . c #324455",
".. c #424E49",
"X. c #424E46",
"o. c #4A5443",
"O. c #43514B",
"+. c #4A564A",
"@. c #505C43",
"#. c #667441",
"$. c #C40405",
"%. c #817F03",
"&. c #CF5403",
"*. c #D75903",
"=. c #D96C02",
"-. c #D96503",
";. c #DA7202",
":. c #DC7802",
">. c #7F822E",
",. c #848202",
"<. c #8F8C01",
"1. c #949101",
"2. c #9A9601",
"3. c #83801F",
"4. c #94921C",
"5. c #98961A",
"6. c #A39D02",
"7. c #A19E1D",
"8. c #ABA402",
"9. c #A7A002",
"0. c #B4AC02",
"q. c #BCB401",
"w. c #ACA615",
"e. c #A5A21C",
"r. c #ADA91D",
"t. c #AAA616",
"y. c #B3AE15",
"u. c #B1AC19",
"i. c #B6B115",
"p. c #B6B11B",
"a. c #BCB413",
"s. c #838321",
"d. c #8B8B25",
"f. c #88892A",
"g. c #908E22",
"h. c #8F9125",
"j. c #929224",
"k. c #999824",
"l. c #838730",
"z. c #E28502",
"x. c #E28F00",
"c. c #E49600",
"v. c #E79C00",
"b. c #E99C01",
"n. c #C4BB02",
"m. c #C8BE01",
"M. c #C0B701",
"N. c #C2BB12",
"B. c #C8BF13",
"V. c #E7A200",
"C. c #E8A400",
"Z. c #EAA901",
"A. c #EEB500",
"S. c #EFBB00",
"D. c #F0BA00",
"F. c #CDC201",
"G. c #CCC30C",
"H. c #D1C701",
"J. c #D6CB02",
"K. c #D4C90B",
"L. c #D9CF08",
"P. c #DDD204",
"I. c #DCD109",
"U. c #C7C010",
"Y. c #CBC210",
"T. c #E0C908",
"R. c #F1C400",
"E. c #F5CC00",
"W. c #E2D603",
"Q. c #EAD700",
"!. c #E5D904",
"~. c #ECDC02",
"^. c #E1D509",
"/. c #F6D200",
"(. c #F2DD00",
"). c #F9DC00",
"_. c #EEE003",
"`. c #F4E401",
"'. c #FAE500",
"]. c #F7E900",
"[. c #FEEE00",
"{. c #FFF100",
"}. c #FFF800",
"|. c None",
/* pixels */
"|.|.|.|.|.|.|.|.|.|.|.|.|.|.|.|.|.|.|.|.|.|.|.|.|.|.|.|.|.|.|.|.|.|.|.|.|.|.|.|.|.|.|.|.|.|.|.|.|.|.|.|.|.|.|.|.|.|.|.|.|.|.|.|.",
"|.|.|.|.|.|.|.|.|.|.|.|.|.|.|.|.|.|.|.|.|.|.|.|.`.`.].].].[.[.[.[.[.[.].].].`.(.|.|.|.|.|.|.|.|.|.|.|.|.|.|.|.|.|.|.|.|.|.|.|.|.",
"|.|.|.|.|.|.|.|.|.|.|.|.|.|.|.|.|.|.|.|.|.(.`.[.[.[.[.[.[.[.[.{.[.[.[.[.[.[.[.].`.~.Q.|.|.|.|.|.|.|.|.|.|.|.|.|.|.|.|.|.|.|.|.|.",
"|.|.|.|.|.|.|.|.|.|.|.|.|.|.|.|.|.|.|.(.`.[.{.{.{.[.{.[.[.[.[.).).].{.[.[.[.[.[.[.[.`.(.Q.|.|.|.|.|.|.|.|.|.|.|.|.|.|.|.|.|.|.|.",
"|.|.|.|.|.|.|.|.|.|.|.|.|.|.|.|.|.~.`.[.[.{.[.[.[.[.[.[.{.'.b.=.|.z./.[.[.[.[.[.[.[.[.[.'.~.~.|.|.|.|.|.|.|.|.|.|.|.|.|.|.|.|.|.",
"|.|.|.|.|.|.|.|.|.|.|.|.|.|.|.Q.~.`.[.[.{.[.[.[.[.[.[.{.[.Z.|.|.|.|.;.'.{.[.[.{.[.[.[.[.[.[.`.(.(.|.|.|.|.|.|.|.|.|.|.|.|.|.|.|.",
"|.|.|.|.|.|.|.|.|.|.|.|.|.|.Q.`.[.[.{.[.[.[.[.{.{.[.[.{.).-.|.|.|.|.|.A.{.[.[.[.[.[.[.[.[.[.[.].`.`.|.|.|.|.|.|.|.|.|.|.|.|.|.|.",
"|.|.|.|.|.|.|.|.|.|.|.|.|.(.`.[.[.[.[.[.[.[.[.[.[.[.{.R.=.|.|.|.|.|.|.|.Z.[.[.[.[.[.[.[.[.[.{.[.[.'.`.|.|.|.|.|.|.|.|.|.|.|.|.|.",
"|.|.|.|.|.|.|.|.|.|.|.`.(.].[.[.[.[.[.[.[.[.[.[.[.[.'.;.|.$.$.|.|.$.$.|.|.E.{.[.[.[.[.[.{.[.[.[.{.[.].].|.|.|.|.|.|.|.|.|.|.|.|.",
"|.|.|.|.|.|.|.|.|.|.`.`.].[.{.{.[.[.{.[.[.[.[.[.[.[.).&.$.$.|.|.|.$.|.$.|.S.{.[.[.{.[.[.[.[.[.[.[.[.[.[.].|.|.|.|.|.|.|.|.|.|.|.",
"|.|.|.|.|.|.|.|.|.|.'.].[.[.E.R.S.`.R.S./.E.[.[.[.[.'.:.|.|.|.|.|.$.|.|.|.E.{.[.[.[.[.{.[.[.[.[.[.[.[.[.[.].|.|.|.|.|.|.|.|.|.|.",
"|.|.|.|.|.|.|.|.|.].[.[.[.'.c.c.x.Z.c.V.E.V.Z./.[.[.[.D.|.|.$.$.$.$.$.|.z.[.[.[.{.[.[.[.[.{.[.[.[.[.[.[.[.[.].|.|.|.|.|.|.|.|.|.",
"|.|.|.|.|.|.|.|.].[.[.{.[.[.E.x.A.).v.c.A.v.A.E.[.[.{.'.b.|.|.$.$.$.|.*.E.{.[.[.[.[.[.{.[.[.[.[.{.[.[.[.{.[.[.].|.|.|.|.|.|.|.|.",
"|.|.|.|.|.|.|.].[.[.[.[.[.[./.A.S.).C.C./.A.S.).{.[.{.{.'.A.=.|.|.|.b.A.).{.{.[.[.[.[.[.[.{.{.{.[.[.{.[.[.[.[.].].|.|.|.|.|.|.|.",
"|.|.|.|.|.|.|.].[.[.[.[.{.[.[.[.[.[.[._.[.[.].[._._.`.^.!.I.L././.).[.{.[.r.f.I.{.{.[.`.`.t.f.^.[.{.[.[.{.[.[.[.`.`.|.|.|.|.|.|.",
"|.|.|.|.|.|.].[.[.[.[.[.[.[.[.[.[.].y.} h._.[.[.f.} F } ..V g.{.`.`.`._.~.U.` r.y.e.`.j.Z y.T i.{.[.[.[.[.[.[.[.].`.|.|.|.|.|.|.",
"|.|.|.|.|.`.[.[.[.[.{.[.[.[.[.{.[.>.X.e.H @.~.{.a.| L.H #.].{.].j.V A } +.I. .p.e.) 5.A E G. .e.^.].[.[.{.[.[.[.[.].`.|.|.|.|.|.",
"|.|.|.|.|.].[.[.[.[.[.[.{.[.[.{.~. .k.}.K.` B.}.K.` h.X.} h.5.]._.I.K.E l.(. .p.N.Y 5.>.| G. .o.G K.{.[.[.[.[.[.[.{.`.|.|.|.|.|.",
"|.|.|.|._.].[.[.{.[.[.[.[.[.[.[.[.L ..u.H O.!.[._.f.e.N.e.7.w._.[.{.l.O._.`. .p.U.) >.G  .P...y.].[.[.{.[.[.[.[.[.{.].(.|.|.|.|.",
"|.|.|.|.].[.[.[.[.[.[.[.[.[.{.[.[.`.k.) K ^.[.5.J F s.L s.d.Z C I.r.} K.{._.| p._.j.5.t.a.G.N I.{.[.[.[.[.[.{.[.[.[.[.`.|.|.|.|.",
"|.|.|.~.[.[.[.[.[.[.[.{.[.[.[.!.~._.K.T e.~.G.a.u.U.B.` h.!.^.^.u.B N.[.[.`.Q r.}.[.F O.a.d.T N.{.[.[.[.{.[.[.[.[.{.[.].(.|.|.|.",
"|.|.|.`.[.[.[.[.[.{.[.[.{.[.'.4.o.J S V D 3.G D ~.}.~.| e.}.{.`.t.I.{.[.{.~.Q r.{.{.r.Y s.F ` a.{.[.[.[.[.[.{.[.[.[.[.[.`.|.|.|.",
"|.|.~.`.[.[.[.[.[.[.{.[.[.[.[.].I.~.].].[.].].].[.[.`.} p.{.[.[.{.[.[.[.[.`.{ N.{.{.u.Y F F W Y.{.[.[.[.[.[.[.[.[.[.[.[.].|.|.|.",
"|.|.(.].[.[.{.[.[.[.[.[.[.[.{.[.[.[.[.[.[.[.[.{.[.[.[.u.~.{.[.[.[.{.{.[.[.[.u._.[.{.!.i.P.^.Y.].[.[.{.[.[.{.[.[.[.[.[.[.[.].|.|.",
"|.|.`.[.[.[.[.[.{.[.[.[.[.[.[.[.[.[.{.~.M.M.F.n.M.F.m.!.W.F.m.m.m.M.m.q.M.W.F.q.F.F.M.`.[.{.{.{.[.{.[.[.[.[.{.[.{.[.[.{.[.`.|.|.",
"|.|.'.[.[.[.[.[.[.[.[.{.[.[.[.[.[.[.[.W.6.m.P.m.9.0.2.H.H.0.9.0.8.6.8.8.9.J.q.9.0.q.6.W.[.[.[.[.[.[.[.[.[.[.[.[.[.[.[.[.[.].|.|.",
"|.|.].[.[.[.[.].`.~.W.|.|.|.|.|.|.|.|.|.|.P.W.~.~.`.`.[.[.].`.].`.`.`.].`.[.[.].].].`.[.[.{.[.[.[.[.[.{.{.[.[.[.[.[.[.[.[.[.|.|.",
"|.`.].].~.|.|.|.|.|.|.|.|.|.|.|.|.|.|.|.|.|.|.|.|.|.|.|.|._.|.|.|.|.|.|.|.I.[.[.{.[.{.[.[.[.[.[.[.[.[.[.[.[.[.[.[.{.{.[.[.(.|.|.",
"|.|.|.|.|.|.|.|.|.|.|.|.; 3 7 7 6 6 7 8 8 |.|.|.|.|.|.|.|.|.|.|.|.|.|.|.|.|.|.|.~.[.[.{.[.[.[.[.{.[.[.[.{.[.{.[.[.]._.J.|.|.|.|.",
"|.|.|.|.|.|.|.3 9 : < < 6 6 6 6 6 7 9 w t |.|.|.|.|.|.|.|.|.|.|.|.|.|.|.|.|.|.|.|.|.!.].[.].[.[.].[.].'.`._.W.|.|.|.|.|.|.|.|.|.",
"|.|.|.|.6 7 9 w t 9 9 9 7 7 6 7 9 t t 0 |.|.|.|.|.|.|.|.|.|.|.|.|.|.|.|.|.|.|.|.|.|.|.|.|.|.|.|.|.|.|.|.|.|.|.|.|.|.|.|.|.|.|.|.",
"|.|.9 7 6 9 w t y y t t t y y w t 9 |.|.|.|.|.|.|.|.|.|.|.|.|.|.|.|.|.|.|.|.|.|.|.|.|.|.|.|.|.|.|.|.|.|.|.|.|.|.|.|.|.|.|.u |.|.",
"|.9 w w w y w 7 9 t y i f h i |.|.|.|.|.|.|.|.|.|.|.|.|.|.|.|.|.|.|.|.|.|.|.|.|.|.|.|.|.|.|.|.|.|.|.|.t i i u e u e u u u e |.|.",
"|.a w y y i g y w 9 y i |.|.|.|.|.|.|.|.|.|.|.|.|.|.|.|.|.|.|.|.|.|.|.|.|.|.|.|.|.|.|.|.|.|.|.|.|.|.|.|.|.e e e |.|.|.4 |.|.|.|.",
"|.u y y w t y t 7 9 |.|.|.|.|.|.|.|.|.|.|.|.|.|.|.|.|.|.|.|.|.|.|.|.|.|.|.|.|.|.|.|.|.|.|.|.|.|.|.|.|.|.|.|.|.|.|.|.|.|.|.4 |.|.",
"|.i f w w w 9 9 |.|.|.|.|.|.|.|.|.|.|.|.|.|.|.|.|.|.|.|.|.|.|.|.|.|.|.|.|.|.|.|.|.|.|.|.|.|.|.|.|.|.|.|.|.|.|.|.|.|.|.|.4 4 |.|.",
"|.|.y t t w 6 |.|.|.|.|.|.|.|.|.|.|.|.|.|.|.|.|.|.|.|.|.|.|.|.|.|.|.|.|.|.|.|.|.|.|.|.|.|.|.|.|.|.|.|.|.|.|.|.|.|.|.4 1 4 4 |.|.",
"|.|.t w 9 6 |.|.|.|.|.|.|.|.|.|.|.|.|.|.|.|.|.|.|.|.|.|.|.|.|.|.|.|.|.|.|.|.|.|.|.|.|.|.|.|.|.|.|.|.|.|.|.|.|.|.|.|.|.4 4 4 |.|.",
"|.|.9 6 6 |.|.|.|.|.|.|.|.|.|.|.|.|.|.|.|.|.|.|.|.|.|.|.|.|.|.|.|.|.|.|.|.|.|.|.|.|.|.|.|.|.|.|.|.|.|.|.|.|.|.|.|.|.|.4 1 4 |.|.",
"|.|.6 ; o |.|.|.|.|.|.|.|.|.|.|.|.|.|.|.|.|.|.|.|.|.|.|.|.|.|.|.|.|.|.|.|.|.|.|.|.|.|.|.|.|.|.|.|.|.|.|.|.|.|.|.|.|.|.1 1 |.|.|.",
"|.|.= $ o |.|.|.|.|.|.|.|.|.|.|.|.|.|.|.|.|.|.|.|.|.|.|.|.|.|.|.|.|.|.|.|.|.|.|.|.|.|.|.|.|.|.|.|.|.|.|.|.|.|.|.|.|.|.1 1 |.|.|.",
"|.|.o o = $ |.|.|.|.|.|.|.|.|.|.|.|.|.|.|.|.|.|.|.|.|.|.|.|.|.|.|.|.|.|.|.|.|.|.|.|.|.|.|.|.|.|.|.|.|.|.|.|.|.|.|.|.1 4 1 |.|.|.",
"|.|.= ; : : |.|.|.|.|.|.|.|.|.|.I ( ~ ! ! / U U I ! ( ( ( ( ( / U / / ( / / |.|.|.|.|.|.|.|.|.|.|.|.|.|.|.] ( |.|.|.1 1 1 |.|.|.",
"|.|.|.7 6 : |.|.|.|.|.|.|.|.|.|.( ] ] |.' ] [ ] ' ' ] ] ] ] ] ] ] ' ] ] ] ^ |.|.|.+ |.|.O |.|.|.+ |.|.|.|.P |.|.|.|.1 1 |.|.|.|.",
"|.|.|.6 = o . |.|.|.|.|.|.|.|.|.|.|.|.|.|.|.|.|.|.|.|.|.|.|.|.|.|.|.|.|.|.|.|.|.|.+ |.|.O |.|.+ + |.|.|.|.|.+ |.|.1 1 1 |.|.|.|.",
"|.|.|.o = o   3 |.|.|.|.|.|.|.|.|.|.|.|.|.|.|.|.|.|.|.|.|.|.|.|.|.|.|.|.|.|.|.|.|.+ |.|.+ |.|.+ + |.|.|.@ O + |.|.1 1 |.|.|.|.|.",
"|.|.|.X h w   t |.|.|.|.|.|.|.|.|.|.|.|.|.|.|.|.|.|.|.|.|.|.|.|.|.|.|.|.|.|.|.|.|.|.|.|.|.|.|.|.|.|.|.|.|.@ + |.4 1 4 |.|.|.|.|.",
"|.|.|.  = i 6   + |.|.|.|.|.|.|.' ] ] ' ] ' ] ] ' ( ' ' ' ' ' ] ] ' ' ' ' ~ |.|.|.|.|.|.|.|.|.|.|.|.|.|.O O |.* 4 1 |.|.|.|.|.|.",
"|.|.|..   = j 9 . |.|.|.|.|.|.|.|.|.|.d d d d d d |.d d d d s d d d s d P P |.|.|.|.|.|.|.|.|.|.|.|.|.|.|.|.|.2 4 4 |.|.|.|.|.|.",
"|.|.|.      < z 6 X |.|.|.|.|.|.|.|.|.|.|.|.|.|.|.|.|.|.|.|.|.|.|.|.|.|.O |.|.O O O O O O O O O O O |.|.|.|.1 4 2 |.|.|.|.|.|.|.",
"|.|.|..     9 j v w   |.|.|.|.|.|.|.|.|.|.|.|.|.|.|.|.|.|.O |.|.O |.|.|.O |.O O O O O O O O O O O |.O |.|., ; 2 2 |.|.|.|.|.|.|.",
"|.|.|.|.o . - c c v 9 |.|.b |.|.|.|.|.|.|.|.|.|.|.|.|.|.|.|.|.|.|.|.|.O |.|.O |.O O O O |.O O O O |.|.|.|.% 1 1 |.|.|.|.|.|.|.|.",
"|.|.|.|.o o : z z z j 3 |.|.|.|.|.|.|.|.|.|.|.|.|.|.|.|.|.|.|.|.|.|.|.|.|.|.O |.O O O O O O O O |.|.|.|.$ * % |.|.|.|.|.|.|.|.|.",
"|.|.|.|.o $ = g j h i z 7 |.|.|.|.|.|.|.|.|.|.|.|.|.|.|.|.|.|.|.|.O |.|.O |.O |.O O O O O O O O |.|., * * % |.|.|.|.|.|.|.|.|.|.",
"|.|.|.|.o o . . t j c h g : |.|.|.|.|.|.|.|.|.|.|.|.|.|.|.|.|.|.|.|.|.|.O |.O O |.O O O O O O O |.+ % % = |.|.|.|.|.|.|.|.|.|.|.",
"|.|.|.|.$ o   # o h z g h h = @ |.|.|.|.|.|.|.|.|.|.|.|.|.|.|.|.|.|.|.|.|.O O O O O O O O O |.|.@ $ $ $ |.|.|.|.|.|.|.|.|.|.|.|.",
"|.|.|.|.o o o z 6 = h h z j h : + |.|.|.|.|.|.|.|.|.|.|.|.|.|.|.|.|.|.|.|.O O O O O O O O O O o $ $ $ |.|.|.|.|.|.|.|.|.|.|.|.|.",
"|.|.|.|.|.o o < h < # f y l z g # X i 5 |.|.|.|.|.|.|.|.|.|.|.|.|.|.|.O |.|.O O O O |.|.O + o o o o |.|.|.|.|.|.|.|.|.|.|.|.|.|.",
"|.|.|.|.|.o o . = . . # o ; - : h - . + |.|.|.|.|.|.|.|.|.|.|.|.|.|.O O O O O O X O O O X . . o o |.|.|.|.|.|.|.|.|.|.|.|.|.|.|.",
"|.|.|.|.|.|.o . . . # .         9 l =   |.|.& m b x v n v n n m v b v v j z k @ O O O O . . o |.|.|.|.|.|.|.|.|.|.|.|.|.|.|.|.|.",
"|.|.|.|.|.|.|.|.|.|.o .           t i   X |.> 0.2.,.m 1.m 2.,.6.<.2.1.1.n %.b @ O O O X . |.|.|.|.|.|.|.|.|.|.|.|.|.|.|.|.|.|.|.",
"|.|.|.|.|.|.|.|.|.|.|.|.|.|.|.|.|.o #     X @ 0 p p r |.|.a p p p p p p q r q O + + X |.|.|.|.|.|.|.|.|.|.|.|.|.|.|.|.|.|.|.|.|.",
"|.|.|.|.|.|.|.|.|.|.|.|.|.|.|.|.|.|.|.|.|.|.|.|.|.|.O O O O O O O O O O + O O |.|.|.|.|.|.|.|.|.|.|.|.|.|.|.|.|.|.|.|.|.|.|.|.|.",
"|.|.|.|.|.|.|.|.|.|.|.|.|.|.|.|.|.|.|.|.|.|.|.|.|.|.|.|.|.|.|.|.o |.|.|.|.|.|.|.|.|.|.|.|.|.|.|.|.|.|.|.|.|.|.|.|.|.|.|.|.|.|.|."
};
