/* XPM */
static char *result[] = {
/* columns rows colors chars-per-pixel */
"64 64 230 2 ",
"   c #070604",
".  c #0B0B0B",
"X  c #160C08",
"o  c #15120F",
"O  c #141514",
"+  c #171918",
"@  c #1B1C1B",
"#  c #22190E",
"$  c #281D17",
"%  c #1D201E",
"&  c #24221D",
"*  c #39251A",
"=  c #3D291C",
"-  c #1E1F21",
";  c #1E2220",
":  c #242523",
">  c #282625",
",  c #262826",
"<  c #2A2A26",
"1  c #262A29",
"2  c #2B2C2B",
"3  c #392B24",
"4  c #2C302F",
"5  c #36322B",
"6  c #2D3231",
"7  c #323433",
"8  c #353836",
"9  c #3A3835",
"0  c #363B3A",
"q  c #3A3D3B",
"w  c #412718",
"e  c #432C1C",
"r  c #4A2E1C",
"t  c #47301E",
"y  c #4C311E",
"u  c #53331D",
"i  c #432E21",
"p  c #492E26",
"a  c #453223",
"s  c #4C3323",
"d  c #43352B",
"f  c #4A3629",
"g  c #4D3A2C",
"h  c #533523",
"j  c #573A27",
"k  c #5B3B24",
"l  c #543B2A",
"z  c #473C33",
"x  c #523E32",
"c  c #663929",
"v  c #3B403F",
"b  c #58472F",
"n  c #4B4239",
"m  c #544134",
"M  c #584739",
"N  c #65432A",
"B  c #6B4E35",
"V  c #3D3E40",
"C  c #3D4342",
"Z  c #424544",
"A  c #474847",
"S  c #454B49",
"D  c #4A4D4B",
"F  c #574C42",
"G  c #4C524E",
"H  c #58524A",
"J  c #4D5351",
"K  c #535653",
"L  c #535955",
"P  c #595C59",
"I  c #675247",
"U  c #66584C",
"Y  c #665A54",
"T  c #5D625D",
"R  c #74624C",
"E  c #69635A",
"W  c #76675B",
"Q  c #515963",
"!  c #5C6966",
"~  c #656864",
"^  c #6B6B64",
"/  c #756D66",
"(  c #75736B",
")  c #6D7370",
"_  c #777975",
"`  c #943C47",
"'  c #D33E4A",
"]  c #9C5853",
"[  c #887769",
"{  c #91796F",
"}  c #867C74",
"|  c #DF525E",
" . c #F06B74",
".. c #7E817C",
"X. c #9C886D",
"o. c #84827C",
"O. c #8D877B",
"+. c #968979",
"@. c #A38C6E",
"#. c #A48E72",
"$. c #A78E73",
"%. c #A59175",
"&. c #AA9375",
"*. c #A59579",
"=. c #AB9579",
"-. c #AD997D",
";. c #B0977B",
":. c #B29A7E",
">. c #777F80",
",. c #FB7686",
"<. c #7C8381",
"1. c #8B8A83",
"2. c #888B88",
"3. c #938E85",
"4. c #968E86",
"5. c #8C928F",
"6. c #9A9585",
"7. c #93928C",
"8. c #9B958C",
"9. c #9C998D",
"0. c #989995",
"q. c #9C9B94",
"w. c #A89787",
"e. c #A39B8C",
"r. c #B39D82",
"t. c #B89E83",
"y. c #B0928D",
"u. c #A29D93",
"i. c #A59C96",
"p. c #9DA29D",
"a. c #A9A28E",
"s. c #B5A284",
"d. c #B9A486",
"f. c #B5A489",
"g. c #BAA68A",
"h. c #BCAA8C",
"j. c #A6A194",
"k. c #ABA394",
"l. c #A3A29C",
"z. c #ABA49A",
"x. c #ADA99E",
"c. c #B3A495",
"v. c #BDAC92",
"b. c #B5AB9B",
"n. c #BBAC9C",
"m. c #BCB29E",
"M. c #9DAAAA",
"N. c #A7AAA7",
"B. c #B6AAA1",
"V. c #ABB1AD",
"C. c #BAB4A8",
"Z. c #ACB5B2",
"A. c #B7BAB6",
"S. c #F78B92",
"D. c #C1AC8E",
"F. c #C0B08F",
"G. c #C1AE94",
"H. c #C0AE9B",
"J. c #C3B295",
"K. c #C5B49A",
"L. c #C8B79C",
"P. c #C7B99C",
"I. c #CAB99D",
"U. c #EC94A3",
"Y. c #C5B8A4",
"T. c #CCBBA3",
"R. c #CAB0AA",
"E. c #C4BCAB",
"W. c #CCBCAA",
"Q. c #D0BEA5",
"!. c #D1BEAD",
"~. c #C4BDB2",
"^. c #C9BCB2",
"/. c #B8C2BB",
"(. c #C5C0AB",
"). c #CCC1AC",
"_. c #D2C1A6",
"`. c #D4C2AC",
"'. c #D9C7AE",
"]. c #CCC4B5",
"[. c #C9C5BA",
"{. c #D4C4B2",
"}. c #D6C9B6",
"|. c #DACAB5",
" X c #D6C8B8",
".X c #DCCDBA",
"XX c #DED1BE",
"oX c #E1CFBA",
"OX c #E0D0B7",
"+X c #E2D3BE",
"@X c #BDC9C5",
"#X c #C9CCC7",
"$X c #D3CDC3",
"%X c #D4CEC8",
"&X c #C9D0CF",
"*X c #D4D2C4",
"=X c #DDD3C2",
"-X c #D5D4CB",
";X c #DAD5CB",
":X c #D9D9C9",
">X c #DCDACD",
",X c #CDD3D4",
"<X c #D2D4D5",
"1X c #DCDCD3",
"2X c #D8D9D8",
"3X c #E3D5C2",
"4X c #E9D1C3",
"5X c #E5D9C6",
"6X c #E8D9C6",
"7X c #E4DBCB",
"8X c #EADECC",
"9X c #E3DCD5",
"0X c #DDE1DC",
"qX c #E2E2D5",
"wX c #EBE4D6",
"eX c #E4E4DB",
"rX c #EBE9DD",
"tX c #F1E5D3",
"yX c #CCE0E1",
"uX c #DEE3E4",
"iX c #E4E5E3",
"pX c #E9E7E3",
"aX c #ECEBE4",
"sX c #ECEDEA",
"dX c #F9F3E7",
"fX c #F0F0EA",
"gX c #F3F3ED",
"hX c #F4F5F2",
"jX c #F8F9F4",
"kX c #FCFFFC",
/* pixels */
"a.+.C.*.% + % ~ ( P.J.Q.& < & o._ 7X=X{.{.=XR.XX.XXX+X3X6X5XOX}.8X6XtX: < < 5.3X3X3XtX< 2 < < 0.[.+X`._.'.'._.J.T._.J.h.f.B P.P.",
"m.T.C.6.O + % 4 _ K.J._.& < % ..E wX7X3X{.7X=X+X+X3X+X3X5XXX6X+X}.|.8X5 < 2 Q } |.|.6X, < < 2 Z.p.{.'.|._._.`.L.`.P.J.f.h.B J.m.",
"I./.C.*.% : % 9 ) +.J.'.& < % ..8X8XqXXX.X=X=X|..X|.3X.X5X3X}.8X.X3X3XX , < : 2.XX{.oX< 2 2 < J A.|.'.'.'.'.'._._.P.J.f.h.b J.P.",
").m.a.+.& & & v / / P.OX2 , H ..8X:X{.3XE.3X.X!.3X|.+X6X5X6XXX8X|.3X3XtX, < , 2.tX{.+X< 2 < 2 2.V.OX'.`.'.'.`.L.'.P.J.:.:.b P.F.",
"P.P.m.O.< < & L E E P.# < % v _ wX7X5X=X3X=X3XXX3X.X3X+XXX=X7X.X8X7X3X7X- < > D 2.6X3X< 2 2 2 K Z.OX'.`.`._._.J._.F.J.:.h.b P.F.",
"P.(.(.O.< & , T ) E T.% , , T E 7X5X=X=X X5X|.3X+X.X+X3X3X3X|.|. X3X3X3Xe.< 4 > 2.+X.X* 2 2 4 - V.OX'.'._.'.T.J.(.P.J.:.h.B h.P.",
"Y.P.C.+.2 < & H ( ^ I.% < & ( L 7X;XXX8X.X3X|.|.+X|.3X3X+X3X3X3X}.+X5X=X8X7 4 > ) z.`.6X2 2 2 2 A.|.'.'._._.`.J.P.J.F.*.h.b F.h.",
"P.*.(.O.< 2 2 v ) ^ P.& , , ^ tX8X7X|.$X5X=X|.).|.+X3X.XXXXX`.5XXX3X5X3X4X- > 2 @ 2.6X8X2 2 4 : /. X`._._.Q.I.J.P.P.F.-.h.R F.F.",
"m.).(.6.2 < 4 2 ( ^ _.& 1 v E 8X8X7X}.XXXXXXXX|.3X.X.X3X+X6X+X{.3X8X+X+X+XtX< > > 5.8X3X< 2 4 2 @XC._.'._._._.F.(.v.h.&.F.R h.h.",
"(.r.C.*., < < & ^ ^ *.4 , S T 7X>XXX8X:XXXXX}.XX|..X3X|..X6X!.+X3X5X|.3X3X3X2 2 2 Q } 3X2 2 2 2 <.A.'.'.'._._.J.).J.h.*.h.X.h.h.",
"_.(.m.a.& < < : ~ ..< < < S P XX3X8X].7X=X*X}.}.3X|.+X3X+X|.=X4X+X6X|.XX3X=Xn 2 1 2 5.8X< 2 2 7 G @X_._.P.P.I.:.(.h.h.@.:.X.F.F.",
"_.(.Y.a.< < 4 : ! ( & & < T n +XwX8X7X7XXXXX}.}.3X3X|..X3X6X|.=XXX+X5X|.3X|.3X< 2 4 _ ;X> 4 2 4 2./._._._.P.P.h._.h.v.*.h.X.F.h.",
"J.).(.a.4 A D , T ( , < & T XX8XC.7 dX=XXX=X.X.XXX.X.XE..X|.=X+X+X3X5X5X|.+X6X$ 4 2 4 <.o 2 2 2 , /.`._._._.P.h.P.h.h.@.h.X.h.F.",
"}.).(.k.5 v Z S 8 q 6 8 6 8 v S S D z =X=X=X X|.`..X+X} $XoX3X+X.X5X3XXX).|.'.dX2 4 2 )  X4 2 6 , Z._.(._.P.P.h.(.h.h.@.F.X.h.h.",
"|.).(.a.4 1 q : 6 2 7 0 v C v S D v tXXXXX=X|. X|._.+X[ } C.3X.X.X}.XX}.|..X|.XX< 7 2 ! 0.6 2 2 , &X_._.P.P._.:.v.h.h.%.h.*.h.h.",
"(.{.).a.* 8 1 1 , 6 q v C S G G A D wX=X=X}..X{.{.`.R.8.+.[ B..XXX+X|.T.`._.+X.X$ 2 3 [ V 2 2 1 , @XC.P._.P.P.:.P.f.h.@.h.*.F.:.",
"].3X].c.9 < 2 2 6 9 V C J J J A C J K =X=X|.=X|..X!..XH. Xy.{ E.|.+X.X=X7X6X4X=XR.I [ I 7 4 4 2 , @X&X_.I.P.J.s.J.s.f.&.h.*.h.F.",
"{.].E.b.g < 1 < 4 7 0 C S S S V V A ) 7X=X$X X|..X.X!.E.{ 4.[ / %XfXpXfX;X3X3XY ] { { { } 9 2 7 4 6 &X_.T.I.I.s.v.s.d.&.h.*.h.h.",
"$X^.E.e.n 2 < 2 4 7 9 V S Z Z V V Z D 1X9X9X1X7X$X+X$X~.<X1XpXpXgXhXfXhXaXB.D { y.8.4.y.i.> 4 4 6 _ @X_.I.L.J.s.f.s.h.&.F.d.h.d.",
"-X1X1X#Xv 4 1 2 2 7 9 A C C Z A V q A 1X0X9X<X;X;X%X[.[.#XpXeXeXpXaXjXeX9Xc.] y.R.y.y.{ 8.2 4 7 4 4 @X_.L.I.P.f.h.s.f.%.F.:.:.h.",
"$X$X-X2X5 3 5 2 5 9 9 H S A S C v v A 0X<XeX9X;X%Xk.C.~.R.=XpX;X7X9XrXdXiX%X%Xy.R.y.{ 9XB.$ 2 4 6 < @XT.P.K.L.:.h.s.s.&.:.:.D.d.",
"%X%X2X2X7X`  .| '  .| '  .S. . . . .S. .| 0X^.A.B.C.k.e.i.$XgX9X!..X8X;X;X9X%X9X X{ y.y.wXK 4 2 4 , A.T.P.P.L.-.f.s.s.#.h.:.:.d.",
"$X#X-X1XwX]  .|  . .,. .,.S.U. .U.| ] / U.gX*Xb.n.{ ^ 0 4.pX;XpXR.H.4X!.9X4X;X%X^.^.[ R.$XX < 2 4 4 &XE.J.K.L.=.f.s.s.@.d.d.h.:.",
"$X-X%X%X;X4 < 5 < 7 v Z C C C C v v v + fX6X Xn.B.w.d + z aXsXhXw.A 4.c.!.8X9XpX%X$XB.R.$X~.( 7 4 7 yX#XL.J.J.=.f.:.:.%.d.d.d.d.",
"$X[.%X^.B.: : 1 2 7 4 8 v v v v n v 8 < ` ,.2XB.c.+.b.i.c.sXhXpXW . Z.<X[ n.3XfXdXrX5X=X7X7.H 1 4 4 C @XG.K.D.:.f.-.-.-.s.s.d.d.",
"^.$X^.A.A.2 < , 4 4 8 0 v C v C v v 9 9 ` U.%X^.n.+.A.^.pXjXjXhXR.B.u.{ w.E.=XtXaXdXaXrXaXjX5 7 2 2 >.@XK.L.L.:.h.s.s.%.s.d.s.s.",
"[.[.~.B.$X1 1 < 4 6 6 v v v v v 0 0 v 9 c | >X0Xb.w.b.H.8X9XkXkXhXe.y.n.n.Y.7XeXgXdXaXhXjXsXq.< 4 7 9 /.D.I.J.;.s.r.r.=.d.d.:.:.",
"^.^.C.b.]., : , 4 4 0 C v v v C v q q z 0X>X:X*XC.i.i.%Xy.pXjXjXhX2XA.c.].{.wXfXdXdXfXhXfX9Xq.: 2 4 : A.Q.Q.F.=.s.*.r.*.:.d.:.d.",
"[.^.m.b.E.@ 1 , ; 1 v 6 v v v v 0 q 9 9 eX-X>X*X[.b.a.z.( E.#X1XgXhX-X#X$X=X$XrXaXaXhXfXpX%XK 0.4 2 5 @XP.J.F.=.s.:.-.&.:.:.:.:.",
"^.C.m.c.b.: ; , 4 6 6 v v C C C v 7 8 q eXeX:X*X:X[./.b.$X[.$XA.[.1XrX1XeXaX;XeXsXgXsXpXiX$X2 2 4 4 6 /.m.h.D.;.:.:.:.&.:.h.:.:.",
"C.A.n.a.b., , , 1 6 8 v C C C C 8 9 q q :X:XeX>X0XeX*X].C.A.(.(.*X#X*X-XrXgXeXpXuX1X9XpX9X!.X > 1 2 7 @XN.h.h.*.-.-.-.&.:.:.:.:.",
"C.C.n.k.k., : , 4 6 6 v C C C C 8 q q 7 -X:X*X-X=X:XqXeX;X9X*X[.[.>X[.*X1XeXpX1X9X0XiXhX$X!. X> > 1 4 ! V.F.F.*.s.-.-.&.h.h.:.:.",
"j.b.k.e.a.: : % ; 6 v C C C C 0 8 q 8 n :X:X-X(.:X:XrX0X0XdXqX=X X0X:XqX*X*X:X0XsXhXhXjX%X[ R g d Y U W 3.+.+.[ d.-.=.=.r.t.:.=.",
"e.a.k.e.e., : : 4 1 6 C C C C C 0 q 8 q /./.[. X*XXX:X0XqX:XqX>X0X:X>X*X>XeXrXeXiXhXhXsX} c B N N B B B N k j h V.1Xr.-.r.;.r.r.",
"+.3.9.9.3.& : : 1 6 6 v C C C v C 7 0 q *.b.k.b.[.:XXX:XrXqXrXqX7XqX:X>XrX0XsXfXhXhXsXsXx j c k k c B u B N N N p 7.r.$.t.:.:.:.",
"U W W [ U % & , 1 6 0 v C C C C 0 0 8 0 U X.X.O.w.*.b.XX0XrXeX0X:XrXdX0XrXrXgXjXhXsXsXsXi.u k k N c k c k N k k u } ;.&.r.t.:.:.",
"M Y Y E F % : : ; 6 6 v C C C C 8 0 0 q [ [ { X.+.+.a.v.].rXqXrXeX7XeXgXgXjXgXgXpXiXhXsXl.i e h u y y h t y u s i ^ ;.=.-.-.;.r.",
"m d F n H @ % @ ; 6 6 6 8 C v C 8 8 8 q [ { W X.[ X.[ w.w.].qXwX[.1XeXpX0XgXaX0X9XpXsXsX~.d * * = = = g x Y d $ ) } r.-.r.t.;.=.",
"d n d 5 H + O % % 1 6 1 6 0 0 0 8 8 7 q ( / Y W U W [ [ [ +.6.;X6.0X1X-X#X1X-X[.N.z.4.x d g d f f a a a m n Y _ E _ r.=.;.t.r.;.",
"8.1.u.1XaX,X&X,X,X,X@XyX,X,X2X,XuXhXA.V $ U M U W F I Y I W W [ 9.Y u.7.[ e._ o.4.8.8.3./ F x x t g f A.F ~ ) Y ~ / =.$.;.t.:.;.",
"j.9.9.+.3.T G S J L L P P T T T ! ! ~ ) i.N.V.N.2XiXiX0X2XjX>XU U _ O.6.4.e.3.e.8.x.z.u.} R m x X E U / / H E D ^ ^ r.=.r.:.:.:.",
"u.e.8.6.+.L J S G A J J J L L T P T ~ ~ iXiXiX9XuXuXkXl.N.n W / [ +.6.9.u.i.i.u.u.z.z.i.O./ dXM g F n ^ } ^ Y E H ;.w.$.d.=.;.:.",
"9.9.9.8.O.T J G D D J Q L L P L L ,X,X#XiXpXuX0XN.N.7.o.V.A.A.C.x.x.b.x.~.[.k.z.u.z.i.B.M f z m F I H U Y U U #.r.&.=.&.;.t.:.:.",
"8.8.9.6.+.L G L D K K J S ,X,X,X<X<X<X2X7.V.N.q _ 0.p.N.i.u.x.x.x.x.x.B.~.0.k.k.u.F 3 f x M g M I F M Y F <.J.@.=.&.=.&.r.;.:.;.",
"9.9.9.9.q.E T J D 5.,X<X,X<X,X<XkX#XN.N.q 2.N.N.A.p.q.0.l.u.x.z.z.x.o.E 2.1.j.A 3 a m m m g m m M F B O ; <.m.X.=.=.=.&.:.;.;.;.",
"6.9.q.9.5.S 2X,X<X2X<X<X,XkXN.Z.V.J 5.p.V.N.0.0.q.q.q.u.u.k.i.Z.9.O.o.1.1.= i i a a f m g m m m M . O @ ; ) ..@.-.%.=.&.r.r.&.;.",
"uX,X,XuXuX,X,X2X2X&XZ.N.Z.V.K 5.p.N.N.i.0.7.0.0.8.9.q.j.z.o.n } 1.O.3 * 3 a d 3 f x g l m x d . 4 + O ; ; C ~ @.=.%.=.%.;.:.&.&.",
"sXsXiXiXuX,XkXZ.N.V.V.Q 5.N.N.V.M.0.0.7.7.8.8.8.u.l.u.3.8.3.1.0.3 = 3 i 3 f i g m m m x g O O @ oX. + + ; L ) X.=.%.#.%.:.:.;.;.",
"2.3.0.p.@X&XA.M.~ 5.N.Z.Z.N.i.0.1.7.8.8.8.u.q.i.3.z 1.1.7.  * = a i i i p g f g m m h dX@ O O < `.o @ ; ; % ) X.=.=.%.%.=.:.;.;.",
"C 8 0 0 Z ! 0.M.Z.Z.N.0.0.5.7.2.7.4.8.9.u.8.0.N.1.P 7.X f i f s f g a a 3 g l h x .X`.. @ O + $ K.Y.@ ; ; @ ~ +.-.#.*.@.r.=.&.&.",
"2.3.5.p.V./.A.N.p.0.5.4.2.4.2.y.8.8.u.O.7 1.~ 5.C.3 f i = * f a a d f f p x h 4XP.|.|.+ @ O > v.T.`.; ; ; @ ~ =.=.=.-.X.;.;.&.&.",
"2.5.7.0.q.N.0.7.7.7.2.1.4.2.8.0.u.7.A.3.Z.7.* = 3 i e I p r f f a g x g h .X|.$X`.!.n.@ @ O 3 v.K.I.; @ : ; P w.=.*.%.%.;.;.;.&.",
"o.1.2.1.2.1.1.1.3.2.7.7.7.8.4.2 0.O.yX8.* a = a f a l l l h s i l g w XX!.!.!.!.oX{.o O O : F `.g.K.- @ ; ; ~ ^ -.%.%.X.;.;.@.$.",
"  X z ( o.} } 1.A.sXkXgXY ^.7.uXuXi.r 3 e a e s a h h y h s j x f +XK.|.oX!..X!..X3X+ @ + 2 T.H.K.K.@ - - : V P %.%.*.*.-.;.&.$.",
"( / ^ / ( ( ( } N.iXkX&X^.i.l.p e i a i a = * i f s h h l j s Q.|.H.{.`.!.!.|.!..X$ + + + < L.Y.L.H.@ ; : ; L ~ *.=.;.@.&.&.;.&.",
"> F ( } ( } _ _ N.uXkX9XR.* p p r * f r a s e e y h s h b |.!.T.|.T..X{.!.!.oX!.!.O + - @ |.T.K.K.G.# $ ; : . T -.%.&.#.&.&.&.&.",
". .   . .         . $ p u w r p a a a s t a s h l h p  X!.!.!.`.r.Y.`.|.{.!.{.!.6X@ @ + < _.I.K.K.v.|.: - > 1 K %.%.%.@.=.=.@.$.",
"$ $ $ $ > $ o X * s r u r p r e = e t a a h s t r {.!.{.!.W.{.T.R..XW.`.!.W.!.|.# + + + X P.t.P.G.H.W.: ; - 4 L w.%.=.X.=.=.&.$.",
"z z n 5 3 M u h u h u r t r r e e a r s s h s XX`.!.!.{.{.!.W.H.`.R.v.).R.Q.Q.!.O + + & `.T.L.H.H.h.v.1 - : : K a.%.%.X.&.;.$.$.",
"x z 3 l h c k k h h r p r s i = a s g s l < _ XX{.W.!.!.{.!.T.K.{.T.'._.Q.!.!.8X: O @ & '.T.H.J.H.v.v.- : : 1 P F %.%.X.;.&.$.$.",
"z u k j j u u h k h y r r t t i r a r . . . <.) T.Y.W.!.{.W.W.R.g.Q..Xv.W.R._.. + @ O X K.f.G.n.v.v.v.@ ; , - 8 G =.&.X.;.&.$.$.",
"c y u j h k u h h h s e r s h t w .XT.. . O , _ |.R.W.!.!.!.!.Y.`.T.Q.L.Q.T.`.@ O O : T.I.f.K.v.v.v.G.+ : , : V K %.%.X.&.;.;.$.",
"k r r j h u u r s s s s h e t v.v.v.E.{.. O . _ _ T.].!.!.!.Q.R.`.T.Q.`.T.Q.Y.+ @ O # T.v.T.v.v.v.v.v.m : % : & G &.#.@.&.&.@.&.",
"u u u j h h u s r s h h r Y.f.v.v.v.R.E.  O O : _ !.W.{.W.T.T.L.T.T.T.`.!.`.O + O @ n.T.v.f.g.v.v.v.v.oX; ; : @ D =.#.@.;.&.&.@."
};
