/* XPM */
static char *result[] = {
/* columns rows colors chars-per-pixel */
"64 64 191 2 ",
"   c #020302",
".  c #070807",
"X  c #080807",
"o  c #0B0B0A",
"O  c #12120E",
"+  c #18160E",
"@  c #1C190F",
"#  c #151512",
"$  c #181713",
"%  c #1A1915",
"&  c #1E1D19",
"*  c #221D0F",
"=  c #231E11",
"-  c #201F1B",
";  c #262013",
":  c #2B2315",
">  c #23211D",
",  c #2C261A",
"<  c #2E291E",
"1  c #312615",
"2  c #352916",
"3  c #3C2D15",
"4  c #322A1C",
"5  c #392E1B",
"6  c #3F3017",
"7  c #3C321E",
"8  c #262520",
"9  c #282722",
"0  c #2B2A23",
"q  c #2F2E28",
"w  c #342E22",
"e  c #382F20",
"r  c #302F29",
"t  c #363025",
"y  c #3A3426",
"u  c #34332D",
"i  c #3C3629",
"p  c #3E392B",
"a  c #373631",
"s  c #383732",
"d  c #3C3A35",
"f  c #3E3D39",
"g  c #403117",
"h  c #433419",
"j  c #47381B",
"k  c #483A1F",
"l  c #413722",
"z  c #453A24",
"x  c #493D25",
"c  c #433C2D",
"v  c #4A3F28",
"b  c #443E31",
"n  c #403F3B",
"m  c #4C412D",
"M  c #50432B",
"N  c #464034",
"B  c #4C4433",
"V  c #43433E",
"C  c #49453A",
"Z  c #4F493A",
"A  c #504736",
"S  c #514837",
"D  c #544C3B",
"F  c #58503F",
"G  c #464641",
"H  c #4B4A45",
"J  c #4D4D49",
"K  c #524E43",
"L  c #504F4B",
"P  c #565042",
"I  c #5B5342",
"U  c #53524E",
"Y  c #59564E",
"T  c #5D584C",
"R  c #555551",
"E  c #5B5A55",
"W  c #5D5D59",
"Q  c #605747",
"!  c #615847",
"~  c #635B4B",
"^  c #645E51",
"/  c #615F58",
"(  c #6D634F",
")  c #72664F",
"_  c #666053",
"`  c #6C6555",
"'  c #63625B",
"]  c #69655A",
"[  c #6E6A5E",
"{  c #706550",
"}  c #746955",
"|  c #7C6F55",
" . c #736C5E",
".. c #7A6F5A",
"X. c #7E7056",
"o. c #7C715B",
"O. c #676761",
"+. c #686761",
"@. c #6B6A64",
"#. c #6F6E68",
"$. c #736F64",
"%. c #706F68",
"&. c #7B7465",
"*. c #797567",
"=. c #75736C",
"-. c #79766E",
";. c #797770",
":. c #7C7A73",
">. c #807156",
",. c #82755B",
"<. c #85795E",
"1. c #857A61",
"2. c #877A60",
"3. c #827C6D",
"4. c #887F6A",
"5. c #807E77",
"6. c #817F78",
"7. c #A0875D",
"8. c #A58B5E",
"9. c #A98D5E",
"0. c #AC905D",
"q. c #BB995C",
"w. c #89816E",
"e. c #858074",
"r. c #85827A",
"t. c #89867B",
"y. c #8C897E",
"u. c #938A75",
"i. c #A78F63",
"p. c #B49A67",
"a. c #B39F72",
"s. c #B8A274",
"d. c #C29E5B",
"f. c #C5A15E",
"g. c #C7A360",
"h. c #CAA563",
"j. c #CEA966",
"k. c #D0AB67",
"l. c #D2AD69",
"z. c #D7B26D",
"x. c #888780",
"c. c #8E8B81",
"v. c #908E84",
"b. c #939086",
"n. c #9D9782",
"m. c #96948B",
"M. c #98968D",
"N. c #9E9988",
"B. c #9C9B92",
"V. c #A59E85",
"C. c #A8A187",
"Z. c #A9A38E",
"A. c #A3A194",
"S. c #A2A299",
"D. c #A8A69C",
"F. c #ACA99E",
"G. c #B1AB92",
"H. c #B1AD9C",
"J. c #B7B19A",
"K. c #ADABA0",
"L. c #B0AEA3",
"P. c #B3B1A4",
"I. c #B9B5A3",
"U. c #B6B4A8",
"Y. c #B9B7AB",
"T. c #BCB9AD",
"R. c #BFBDB1",
"E. c #C0BCAC",
"W. c #C1BEB3",
"Q. c #C4C1B6",
"!. c #C7C4B8",
"~. c #C9C6BA",
"^. c #CECBBE",
"/. c #D0CDBF",
"(. c #D1CEC0",
"). c #D5D2C3",
"_. c #D9D6C6",
"`. c #DBD8C7",
"'. c #DDDAC9",
"]. c #E0DDCD",
"[. c #E2DFD0",
"{. c #E5E2D3",
"}. c #E8E5D7",
"|. c #EAE7D9",
" X c #EDEADC",
".X c #E9E8E0",
"XX c #F0EDE0",
"oX c #F3F1E6",
"OX c #F6F5ED",
"+X c #F7F8F3",
"@X c #FBFDFA",
/* pixels */
"4 w 0 ; : : ; ; % + $ @ 0 0 & % 9 u - - 0 & a u f f a n d f C K K K D D ^ ) F ^ ] _ F ! ` _ I ~ I ` &.` I c i D B c S c I N B c ",
": : u e < e w > 0 e < > < > % - > 9 0 f d G n n d J G J H J D I J D A I | F Q _  ._ _ F _ ~ S _ I F D ~ ` y y 7 y m N ! m B p y ",
"0 w 0 : * 0 0 < ; : > 0 t t > u u u G R J J R J W R f R R J T R I ~ I ` o.} ~ ( _ ` P A D D X.B B B I o.I p N h F N c p N t 4 > ",
"w e a i 0 d t 4 > w : < u t 0 G G G H J O.@.W R ' J R R E Y P ~ W ] } } ` ~ Q T D N N t 0 c I p ; D I ~ ~ I p p F S * 5 p p : ; ",
"d n f a 0 0 e 0 > t u d u s s G J ' R W =.:.;.@.O.' R R J H L R H ~ ^ I B c p y y t y 4 y d f $ O p B F F N : p I N c t 4 : m c ",
"f a d 8 9 u u < < t f u f ] ] f R @.@.@.:.M.S.B.c.#.#.U V u H Z b b f t c < 9 t i F i m S i > $ O O B B I B p e F t w e : t y * ",
"0 0 0 u a f u 0 > V u V s U R J W @.#.=.M.B.W.oXR.b.#.R f u u P D G b d c N F D D F c N N > : 9 $ o c B D m p p S D 7 : z D 6 t ",
"a r 8 a u u R R > d E / R R @.d W @.O.=.M.R.@X@X@XK.6.@.H d a u 0 0 y G D N B I ! y i C t ; 0 t 0 o S F ~ F 4 i m c B F ) 5 3 2 ",
"# $ - 0 0 u R R u _ @.@.s - $ ~.#.=.O.=.M.@X@X@X@XY.:.W G d a a 9 > - : : : : 5 i D i u w 0 u 0 0 @ e D _ S c ~ N B 7 y 6 3 5 5 ",
"> < - 0 0 q a n u ] #.@.& % O o }.K.+.%.:.K. X@X(.S.;.E G s a q 0 > < , 4 , : 4 y i Z b i V d 0 : t = D ~ S y y A N N y N c i 4 ",
"u a > > < u s 0 d +.@.] 0 R q O O +XG O.;.M.B.K.S.b.=.R G d f r u q f ^ p p p n p N U e ' U i 4 4 4 ; ` [ N D ` ! D N i D * w , ",
"> u > ; 0 9 0 0 r T R J H ;.=.G O O +XW #.r.M.M.c.:.] R G R f =.@.5.=.t.#.@.#./ ' V d d 5.Z t 0 : < : ` F A c + t v 2 4 * p * : ",
"d 0 % & % & 0 0 0 n V J W :.6.;.U O o {.K.:.:.;.%.@.=.;.:.5.m.:.=.=.+.@.O.#.@.W U 9 > V :.G 0 * 0 p e ~ D p t < y c : c : = o : ",
"O O O $ $ O & 0 - f f G E @.;.:.=.L O o B.v.#.=.=.@.@.O.O.+.O.H s f s f f G G s 9 % - R @.a $ @ , y y T ~ N : < m N D p = @ c @ ",
"# O O O O O - - > H U R c./ W @.@.@.' o . - r J J G a a 0 0 > > > 8 8 8 & 8 > % # $ u U U 0 % @ < p t I I c : A c 4 B 4 # e : : ",
"O o o O O O O & - G W E c.W W W @.@.@.L o o o $ - 9 & > % - # % % % $ & % % $ % o o $ a G 0 & $ < N m I I t p 4 4 i B B : p : = ",
"O O O O O O O $ 8 J ] E F./ C V ` @.@.@.q o o O # $ O # % O # O O O O # % % % % O X o % 0 > O * 0 p B _ ~ F F N 5 i B : e * * * ",
"O O O O o O O $ % L @.C Y.@.d i D L ' @.H & . o o o o O O O o o o o o o # O # O @ o o o % O O % 4 c N _ [ ~ v b p c : y y # * * ",
"o O O o o o O $ - V _ d c.;.s 0 t f W @.W $ . . . o o o o . .   .   o o O O # O # o o   o O O % : y D ` *.F ~ c c 5 C B 4 $ * = ",
"O O O O o o O 8 9 G ] N [ S.A t , 0 [ #.E O   . . o # o o o       . o o o o o o o o o     X o @ ; < y _ I D S N I y y 4 4 1 * = ",
"O O % % O O 8 % & n ] P y ^.[ i 5 & u @.d . . . . O O O O o o         o o o X o o .         . # > i p ~ ] D m 4 5 b 4 e 4 4 0 * ",
"9 d u 9 $ % ;.Z.z d _ U 0 D.A.F t = f ' $ o . o o o O O # o o         . o . . o o             o & i u ~ } y - + $ y B B e : : c ",
":.W J u # % P o.u.u _ [ B *.I.3.N 0 r n O . o o . # # # o o             o # % o                 o : 4 ]  .i < ; 5 : p ! 4 @ * , ",
"' R V d V =.U N.&.u _  .E F F._ ~ p O O O . o o O # q ' R #             o a H a o                 o : ^ =.y + o O , y c : + * > ",
"=.J N d 0 u R d u 9 ~ ] N P C.e.y.c O O . . o o O - @.S.S.@.          o > R W H >                   = ] ] w , * 4 4 4 e e = : * ",
"W d N i < 0 0 0 9 > N E U D <.J.C.5 . o O O O O $ n m.Y.Y.S.s           f #.@.R q .                 O B c 5 5 4 4 : * : w b * O ",
"R i t < 9 < 0 < < > C I [ t B I.o.o o O O O O O # G Y.Q.(.U.;.  .       ;.5.@.R q                   X 2 p e 2 w 4 ; : 4 : t D , ",
"d p u < > D r , 0 > m _ ] i p w.# # O # $ O O # $ 8 S.Q.Q.R.:.o     .   c.r.' V &                     % c y 4 4 , * ; : 2 7 p c ",
"u u < > > > ; L.> ; B ` B : t < o + O # $ $ $ - 0 - R U.K.S.#.      o   ;.=.G 9                       o 5 e w 5 : 2 5 p 5 4 z B ",
"B N < 4 = ; : 0 1 < c _ A : < % # O O O o % & 0 u u $ R m.m.J o X     X s W - .                         , b j v B x j 6 l 4 4 I ",
"D D i : : ; , 4 4 4 4 : < t : % u $ O O o O % & 8 .Xo o r :.8 . o o o o   & .           o O O .         = 5 N x 4 1 , 5 3 3 m I ",
"A p : = * : : 4 4 < : < 4 5 % # $ $ & ' R q - # r m.o o # 8 # # # O o o       . . o   o & 9 u w O       o 4 z 2 ; : 2 l z D I A ",
"= 4 = 4 1 4 4 e 4 1 4 , = = O # % 8 [ Z.c.+.G f x.H # % r % & q & O % o               o > t C C q %     X 1 5 4 : 2 z F ! I I j ",
": : 1 = = : 1 w 2 , : 2 : = O % - R L.^.D.5.U L O.r & f G % - r - % 0 o               o % u D H d - o   X * z B D B D F F M j z ",
"= = = : = 1 = 2 = 4 : 4 : @ # % f t././.G.;.G G a % - 8 G > u a 8 9 0 #               . $ a H I V p X     % b I I F S D D B B D ",
": : = 2 : 1 1 1 1 2 5 t = O O - =.T.'./.L.:.H s n - & - - q T f u a r $ .           . o # t D R F V O     o v D D S M S W E W R ",
"= = = 2 : : 1 = = e 1 = = o # a m.`.{.`.F.5.E f d n d u 0 Y b.] H n q O # .           o & u P ! I B O     o z m m B t W @.R G E ",
"1 g g g 1 : g g h 2 = 4 = @ O r K.].oX`.U.b.-.Y R O.O.R C m.K.:./ G 0 > 9 % X o O O o % 0 c ~ I D c O     O c D D a U E R J R W ",
"3 g 2 g 3 g 3 3 z g l 1 = # o a Y.XX X(.Y.K.I.T.U.!.T.v.1.(./.m.~ V u 0 a w * = i s p i N F ~ F F c X     # u J a 0 W W G J U R ",
"2 2 g : 3 3 3 g v h 3 3 4 o X q K.`.{.(.W.W.].{.}.XX].T.I.[./.S.@.W u u b p t t b Z D I F F I ~ F y X     O > u H @.E R R E W R ",
"g 3 3 g g h j j j h g j g O o @ t.(.{._.W.!.{.XXXX|.{._.(.].(.J.*.~ Y p p d y b N D P ! ~ ~ Q ~ K %       O f q r @.E J u G J J ",
"1 3 3 3 g g j j j g j F x * O 8 =.W.[.).Y.(. XOXXX}.{.{.`.'.).].I.r.S.D y c p p b D I ~ Q ~ I I A 0 .   o O n E E E R J R R J H ",
"3 3 3 g g h j k j x v x j 4 @ 0 @.S.^.(.W.Y.(.OXXX X X{.).(.[._.Y.K.T.y.U y p s b A F Q I I I D c >     O . f G @.V J s #.J U J ",
"1 g 3 g g g j g g h j j j j i t / c.K.W./.S.L. XOXOX X X`.'.Q.K.y.2.1.@.p p c p b S I I I I D B n -     O   a G R R R u =.J W W ",
"= = = = * ; = ; = 3 5 3 g l w i R c.J.W.W.H.V.`.OXXX{.|.{. XF.3.@.] Y q % > p p c B F F S F D B y O         f ;.0 G G f J G W R ",
"= = = = * = * * = = = = 2 w e 5 E K.W.^./.T.P.W.{.XX{.{.]. Xy.] a q %   . + y y c S I A A F S N > X         G @.f V # J G f R s ",
"* * * = * * * * = = = = = 2 y A T c.^.`.(.R.W.~._.|.]./.[.}.+.r # O o     O p p c D D N D Z C d O           % R J O.U G u J f d ",
"4 2 4 4 t l e 2 t 4 4 w l c B B I ] K.~.^.`.^.W./.].'.(.'.XXf     o .     O p p c D D A D V c > o             a q G W V R G d G ",
"4 < 4 < 4 e 4 4 w = } 6.>.I 2.2.~ I S.Y.(.`.Y.R.P.'.XX`.(.XXW 0 a X .     - c b B D S B D D i >               o V n J f a J J a ",
"b l c b c K ,.Y.E.J.J.V.V.W.E.V.} F ' S.~.(.W.P.P.!. X].'.W.U.f d . o o # 0 c v D F D b N V t o                 % a G H / J R a ",
"b b x b K D I ~ { >.3.V.Z.n.c.2.w.B u 5.L.~.Y.Y.K.K.(.{.`.^.Q.E O O O # & y B A I S D D A s %                     o 0 9 R a G n ",
"5.=.3.3.1...>.` ^ } } >.} >.>.>.] ~ B 4 B.S.U.D.S.B.S.{.'.Y.M.=.f % $ % > c A F I D S B b >                         o % $ & % 8 ",
"5.2.t.5.1.<.6.4.4.2.3.2.2.2.2.2.| *.~ p K v.S.S.N.v.r.V.{.W.5.R V a 9 8 0 B I I A S N i -                                     o ",
"2.2.<.3.6.4.4.4.2.4.4.2.2.>.2.2.<...] I q G =.M.M.:.*.M.5.m.M.+.s 0 9 y D I ~ F B d 0 o                                         ",
">.<.,.>.>.,.,.>.2.2.2.2.2.>.>.>.| } ( ^ p : a E ;.c.$.$.' $.y.m.:.~ K Q T I B y w 8 o         . X                             X ",
",.,.<.,.2.>.,.2.>.2.,.,.>.2.2.>.| | { ] R 0 G - +.5.r.#.U J / :.@.-.T K C w > o               # % X                         o o ",
">.) >.>.>.>.>.>.,.,.>.,.i.0.>.>.i.7.>.` ~ P G > f @.:.@.R J 9 f u r % $ O o                 o - - o                       o O % ",
">.>.>.>.>.2.8.p.a.h.q.h.q.2.8.9.8.7.| I ] =.] E J R ' E R G & O o o     . .         .     o $ 8 u #                   .     o % ",
"d.d.h.d.d.d.d.j.d.d.h.d.d.k.j.j.f.d.9.} D O.=.v.c.@.G a 8 :.# $ $ o o o o     .   o O $ & & r a u &                     o o # # ",
"h.h.z.h.l.h.l.g.k.k.h.d.d.h.k.z.f.k.9.) K 5.R.!.!.K.;.G 8 V 8 a 0 $ % $ # # o o & # 8 a f f n s q 9                       o O O ",
"d.d.h.z.z.z.z.l.h.j.z.z.z.h.j.h.j.d.9.>.^ S.~.~.Y.K.m.:.=.H J a =.8 q & - $ > 8 f a G R R f H G u u o                   . o O % ",
"0.d.d.h.j.h.d.l.z.z.z.h.h.h.h.d.d.j.d.} W S.P.K.m.x.B.M.n ] 8 J @.V d a a f a f G R E W R H G H G u O               o     O % > ",
"0.d.g.d.d.j.j.j.d.d.d.d.h.z.h.j.z.j.q.} / B.R.b.x.r.%.m.W 8 - W =.f @.U R W E R O.@.R W O.R R R H a &               .   o O % u ",
"f.h.k.z.h.z.d.d.d.h.h.d.d.s.h.d.f.a.9.` R D.B.:.:.#.R M.8 9 R ;.c.J L =.@.+.O.@.@.@.O.W W ' R R J H r               o o o % - s "
};
