/* XPM */
static char *result[] = {
/* columns rows colors chars-per-pixel */
"64 64 242 2 ",
"   c #010105",
".  c #050509",
"X  c #09070B",
"o  c #07080C",
"O  c #0B0B0E",
"+  c #120E0D",
"@  c #1B0E0B",
"#  c #19130E",
"$  c #0D0D12",
"%  c #060B10",
"&  c #110E12",
"*  c #1D0D16",
"=  c #0F1014",
"-  c #0F1118",
";  c #131214",
":  c #1A1513",
">  c #14141A",
",  c #1B1419",
"<  c #1C191D",
"1  c #1B1819",
"2  c #2B0E19",
"3  c #240D16",
"4  c #231B15",
"5  c #2C121B",
"6  c #251C18",
"7  c #2A1E1B",
"8  c #261618",
"9  c #33121C",
"0  c #3B141E",
"q  c #2F0F14",
"w  c #2C221C",
"e  c #2B2116",
"r  c #32251E",
"t  c #3A2A18",
"y  c #1B1C23",
"u  c #161A21",
"i  c #3B1A24",
"p  c #381622",
"a  c #2A1721",
"s  c #1F252E",
"d  c #22242C",
"f  c #2A2529",
"g  c #362921",
"h  c #3B2C22",
"j  c #3A2627",
"k  c #262933",
"l  c #292C36",
"z  c #282B36",
"x  c #2D323C",
"c  c #36363A",
"v  c #39393C",
"b  c #3A302E",
"n  c #48111D",
"m  c #483319",
"M  c #533A1B",
"N  c #412E16",
"B  c #431621",
"V  c #4B1926",
"C  c #4D1C2A",
"Z  c #451926",
"A  c #541C2A",
"S  c #5C1E2D",
"D  c #551825",
"F  c #591E31",
"G  c #661D2B",
"H  c #6D1E31",
"J  c #462929",
"K  c #52242F",
"L  c #433226",
"P  c #4D392C",
"I  c #47342A",
"U  c #592734",
"Y  c #493932",
"T  c #583734",
"R  c #4E3330",
"E  c #662738",
"W  c #762639",
"Q  c #67363C",
"!  c #6C2634",
"~  c #5C401C",
"^  c #62431D",
"/  c #594537",
"(  c #534433",
")  c #65493B",
"_  c #6A4E32",
"`  c #383A43",
"'  c #2F3341",
"]  c #782B43",
"[  c #683B49",
"{  c #773648",
"}  c #71324C",
"|  c #583745",
" . c #3D4145",
".. c #3C4653",
"X. c #305B6F",
"o. c #366377",
"O. c #2B617A",
"+. c #454447",
"@. c #554B44",
"#. c #474B57",
"$. c #49555A",
"%. c #56585A",
"&. c #574E4F",
"*. c #6B5545",
"=. c #765845",
"-. c #6C4D50",
";. c #7B624B",
":. c #776758",
">. c #6B645C",
",. c #475A65",
"<. c #555B66",
"1. c #53596C",
"2. c #6B5A65",
"3. c #49626B",
"4. c #586469",
"5. c #456572",
"6. c #5D6573",
"7. c #66676A",
"8. c #676C78",
"9. c #697479",
"0. c #79767B",
"q. c #746C6A",
"w. c #5F605A",
"e. c #86273B",
"r. c #8C3A3C",
"t. c #932D3F",
"y. c #885C39",
"u. c #882C44",
"i. c #87354B",
"p. c #96334B",
"a. c #A63B5A",
"s. c #A53351",
"d. c #914E52",
"f. c #84644C",
"g. c #8A684D",
"h. c #8C6B53",
"j. c #856957",
"k. c #936B58",
"l. c #94745B",
"z. c #987559",
"x. c #8F7059",
"c. c #965767",
"v. c #895468",
"b. c #A94764",
"n. c #AE556F",
"m. c #9B7A65",
"M. c #8C7072",
"N. c #AC6E73",
"B. c #AC455E",
"V. c #9A8371",
"C. c #A48467",
"Z. c #A68B7B",
"A. c #676C84",
"S. c #6E738B",
"D. c #6C7485",
"F. c #72758C",
"G. c #757987",
"H. c #757A93",
"J. c #797D95",
"K. c #777B96",
"L. c #8B7A84",
"P. c #A87B87",
"I. c #B76D84",
"U. c #C4728D",
"Y. c #7A8488",
"T. c #7B839B",
"R. c #7D859A",
"E. c #7E86A2",
"W. c #86868A",
"Q. c #988A8B",
"!. c #858897",
"~. c #8C9497",
"^. c #96969A",
"/. c #978F91",
"(. c #A7948A",
"). c #A7999A",
"_. c #AA8790",
"`. c #AAA599",
"'. c #B5A79B",
"]. c #828BA4",
"[. c #878BA6",
"{. c #8B92A9",
"}. c #9699A6",
"|. c #8D96B2",
" X c #949BB5",
".X c #949DBA",
"XX c #969BB6",
"oX c #A59DA5",
"OX c #B89BA5",
"+X c #9BA3BC",
"@X c #9AA3B9",
"#X c #9AA2A4",
"$X c #ABACAD",
"%X c #A5A6AA",
"&X c #B7A8A9",
"*X c #A8ABB4",
"=X c #B8ACB6",
"-X c #AEB4B7",
";X c #B3B3BC",
":X c #B8B9B9",
">X c #B0B6A9",
",X c #94A09D",
"<X c #C8899B",
"1X c #C89CAA",
"2X c #CAB1B8",
"3X c #BCC3BC",
"4X c #CBC0BF",
"5X c #9EA6C1",
"6X c #9DA9C6",
"7X c #A2ADCB",
"8X c #A6ABC4",
"9X c #A9B2CA",
"0X c #B9B9C4",
"qX c #A7B3D4",
"wX c #B0BAD5",
"eX c #B2BDE0",
"rX c #C2BCC3",
"tX c #BDC2C6",
"yX c #BAC1D6",
"uX c #B9C4E5",
"iX c #C7C7C7",
"pX c #D5CBCC",
"aX c #D3D3CE",
"sX c #C9CAD5",
"dX c #D4D4D3",
"fX c #DADAD5",
"gX c #D8DADA",
"hX c #CCD0D5",
"jX c #E8D6D8",
"kX c #E4E2DC",
"lX c #CDD4E5",
"zX c #D6DAE9",
"xX c #D1D9EF",
"cX c #DBE2F5",
"vX c #D9E2EB",
"bX c #E9E7E5",
"nX c #F2ECEB",
"mX c #F3F1EC",
"MX c #E5EBFB",
"NX c #FFFFFF",
"BX c #F5F6F6",
"VX c #EBF2F9",
/* pixels */
":X2X3X>X>X'.`.`.(.Z.m.c.).}.G.8XF.}.*XXXXXXXXXXXXX@XXXXX|.|. X|.{.R.E.!.R.T.T.Y.T.Y.E.E.E.S.S.D.S.S.A.A.A.A.S.S.F.L.[.K.S.A.K.BX",
"=X&X`.Z.m.Z.'.g.d.r.r.r.oX!.L.8XD.{.8XXX+X.X.X+X+XXX.XXX@X|.|.|. X].R.E.E.R.T.K.T.T.E.|.E.K.H.S.S.S.S.S.A.S.F.F.K.].[.K.S.A.[.NX",
"Z.d.y.r.t.(.>Xi.r.r.r.d.*XL.!.8XJ.;X8X.X*X.X+X.XXX.X.XXX5X.X.X|.|.{.].E.E.R.E.T.R.R.E.|.E.T.H.H.H.F.S.S.S.S.F.H.K.|.L.K.F.A.[.NX",
"B.r.r.r.d.'.(.c.m.P._.%X9XJ.!.8X!.0X8X.X+X5X5X+X*X.X8X8X@X.X@X|.|.{.].!.E.R.E.T.E.E.|.|.E.T.H.H.H.H.F.F.H.F.F.K.L..X|.K.F.A.[.NX",
"z.N.N._.OXOX2XrXrXsXlXxX8XG.!.+XR.0X9X5X+X+X6X6X6X5X7X5X+X@X|..X@X@XE.E.E.E.E.E.E.{.|..XE.T.T.T.H.H.H.H.H.S.H.K.|.5XL.F.F.A.[.NX",
"2XiXhXlXlXlXlXxXxXzXlXxX}.G.[.+X!.yX8X8X6X5X6X6X7X7X6X6X5X+X5X|.E.@XE.@XE.E.E.E.E.E.|.@XE.T.T.T.H.H.H.H.H.H.K.!.rXqXK.K.K.S.[.NX",
"zXzXzXzXzXxXzXcXcXxXcXxXL.A.^.XX!.hX9X6X6X6X6X7X7X7X8X6X6X6X6X5X6X.XE.E.E.E.E.,XE.{.@X9X.XE.E.T.T.K.K.T.K.H.K.].eX{.K.K.E.L.8XNX",
"zXMXcXsXrX=XrXrXcXcXcXxXL.L.|.XX].lX9X9X7X6X7X7X7X6X6X5X.X|.|.|.E.E.@XE.E.E.E.E.E.E.@XlX|.R.E.E.T.T.T.K.E.E.E.|.+X8XeXlXcXMXBXNX",
"MXpX_.c.d.d.d.c.=XMXMXvXR.F.].H.8.].F.D.A.8.D.D.A.1.,.,.#.#.#...X...,.4.1.3.8.A.S.H.|.9XE.E.E.E.|.5XqXyXsXzXMXVXNXNXNXNXNXNXNXNX",
"OXc.d.(.&X'.'.2XjXVXNXzX8.+.' l k k l x x ' ' x x x ' ' ' x l k x k k k k l ' ' ' ..#.4.A.|.cXVXBXNXNXNXNXNXNXNXNXBXBXMXMXxXcXNX",
"2XjXfXbXBXBXnXNXNXNXsX7.y > & & - - - > y y y u s s x l z k k x x x x l l l l l z z l x x 9.yXlXcXVXVXBXMXMXcXxXxXuXuXeXeXqXeXNX",
"NXNXNXNXNXBXNXNXsX8.d $ $ & $ & = $ = $ % = = - - > - - u u y y d k s s k k l l l l l l l k x ` ..,.A.K.E..X7XqXqXqXqXqXqX7XyXNX",
"NXNXNXBXNXNXsX9.d $ - = $ $ $ = $ $ $ $ % X % - $ $ = $ = = - ; ; ; > u u u y s s k k k k k k x l k k k ' ` 6.K.+XqXqXqX7X7XeXNX",
"NXNXNXNXgX9.d ; > > ; = > $ $ % $ $ % % X   % % % $ $ = = = - = ; ; = ; = = = > - u u y y y s k k k l l z z ' ' 1.J..XqXwX7XyXNX",
"NXNXgXG.k & > > ; = = $ $ $ O O %     %               . X o $ $ = = = = = ; = ; = = - - - u < > u y y d d k z z z ' 6.J.J.!.*XNX",
"vXW.k $ > > > ; ; = $ $ o $ o .     X .                     . O . . . o % o = % $ = = = - = = - $ $ > > > > u y y y d k ` 1.XXNX",
"` & > , - - & & $ $ $ % $ O .   % X .           . . . X O O $ O O O . . . O O $ $ $ O o o $ o = = $ - ; $ - - - > > u y d d 6.NX",
"- > > - & $ $ $ $ O $ O . . O % $           . % O & ; : : : : : # : > ; = = O O O $ = = .     . . % $ $ $ % $ - - - - > > % +.NX",
"- > - $ $ & $ $ $ $ o . . % $ .         O ; ; # # 4 8 8 6 6 6 8 4 4 1 8 : : > + O o o = O             % $ $ $ - & & - > > . +.NX",
"$ $ $ $ $ $ $ % $ O o o $ $ X       . ; : : : 8 7 7 w r r r r w f w w w e e e : ; + O X $ X             . . . $ & & $ $ -    .NX",
"- $ & $ $ $ O $ O O O X   X .   . $ : 4 6 7 e w 7 r r r r g g g r g r r r w w e e : ; O O o             .     . $ % $ $ $    .NX",
"$ & & $ $ $ $ $ = O =       . O $ : 8 7 w r r w r g g g h h h h r t r r w r w w e 1 4 ; = O                   . X $ $ $ -    .NX",
"$ $ $ O $ O $ O = O O + o     ; : 6 w w w r r r t h h h h L h t h r g r w w e 6 e 4 6 4 # O .                     X $ % &    .NX",
"$ . . $ O $ $ O + O : o O o + : 6 e e w r r h L L L L L J L J N h L h h h g h j e e 4 1 : ; O                     X O o O   ` NX",
"X . X $ O $ $ $ % * :   O O : 6 w e w f g L I P P P P P P I P P P P I R P P R I h J J J 7 : + X                   .   X %   v NX",
". % $ $ O $ & O O : .   O ; 6 e w w h h P T / / ) ) ) ) ) T / _ ) ) ) / T T T K E Q E U K K : O                         %    .NX",
"X $ $ $ $ O X   # O     + : 6 e w L I T T ) ) _ =.=._ =.=.=.y.y.=.=.*.) T E E E E U T U K K j : .                   .       ` NX",
"$ $ $ % $ $ X O + X   X ; 1 7 h R U T U T Q W -.-.=.f.f.f.f.f.z.l.h.=.Q Q Q T I b h J R K K J K & % O $         .   $ . .   v NX",
"$ $ & $ O O O & O O O : 8 j U K K J U E E Q Q Q ) d.g.h.z.z.z.m.k.f.=.=.=.*.*.) / ..*._ ) T R J 8 $ $ & .   O O & O $ $ +   v NX",
"$ $ $ O O $ + O o O O 8 7 j J b J R T T Q @.) ) ) =.f.z.m.C.C.m.k.g.h.f.f.g.k.j.4.X.X.*.) ( P L w $ $ & $ & & & O $ ; + O   v NX",
"$ $ O O $ X     + o O ; r b P ) *.=._ ;.g.g.f.f.g.g.g.z.m.C.C.z.k.g.f.g.h.m.l.3.w.O.X.&.@.T P L r + & & O O = = ; O O . .   c NX",
"$ O O O X     X O   # w I ( &.<.4.3.6.5.5.7.x.h.g.g.k.k.z.C.m.z.k.g.g.h.z.x.:.,.X.O.X.X.&.T L h e > , , $ O > : ; ; .       c NX",
"+ X X X     . X   . 4 h ( ( X.O.O.o.O.O.6.l.V.C.z.h.g.h.l.m.m.l.g.f.f.k.l.f.=._ =.$.w._ / P L t 7 1 1 > & $ , > ; O         c NX",
"O . . .     . X   + g ( L ( %.4.o.3.5.o.>.f.z.C.z.g.f.;.:.V.M.j.=.=.f.l.j.) / Y e / L 4 I h e 7 8 4 > ; ; $ O = + X     .   c NX",
"+ .         X X o 4 h b h ( ( ( ( ( @.@.t Y ( @.;.;.=.:.`.-X=XoX/.:.=.j.;.T @.v d ..k x ` v L r 6 4 ; + O + $ $ + O         v NX",
"  . +       . . + e h h r w e t r + g b e Y ( _ g._ :.%X%X0XwX0X:X-X/.:.;.;.%.X.o.O.5.3.O.3.%.) I h 8 & O . O $ = ; O X     c NX",
"  # #           : h L h h b / $.#...X.$.3.:.:.:.w.>.%X#XoX0XrX0X0X;X0X$X/.M.j.3.4.4.5.o.3.g.;.=.) P j 1 O       O ; ; ; &   v NX",
"# t @       X X e b ( ( ) ;.:.4.o.o.4.7.7.7.>.0.Y.^.#X$XrXlXxXsXtX8X%X*X-X$X(.m.7.q.5.o.l.l.l.h.:.=.) Y 8 O .       O O ;   +.NX",
"t N +     X + # w ( ( *.;.j.j.j.j.x.V.V.V.(.%X-X%X%XiXkXBXBXBXnXnXzXdX0X*X*X%X%X&X~./.Z.Z.C.m.m.m.k.h.;.@.j 1 . .       .   c NX",
"M t # + o + o 1 b / ;.;.j.m.Z.(.'.>X:X>X$X-X%X%XiXgXbXBXjXpXU.n.N.U.jXNXNXdX:X@X-X0XiXrX:X:X&X`.(.Z.m.k.g.=.T f O + +       c NX",
"M t # @ + + o e ( *.l.Q.'.=X0X:X0X;X-X*X@X%X@XmXNXNXnX2Xa.b.U.U.b.a.n.U.jXNXNXnX%X~.-X9XtXtXtXtXtX2X2X(.M.j.*.Y : 4 # O .   v NX",
"M t 4 # + + + h ) Q.*X-X;X0X0X0X0X0XtXsX-XD.>X&Xc.I.I.s.n.I.U.U.U.U.a.s.B.jXNXNXbX6.8.^.%X*X0XyX0X0X0X0X:XoX:.Y 4 4 4 # #    .NX",
"m m e @ ; + : ( W.;X0XsXhXhXgXgXvXgXtXY.,.9.2.q n H s.a.s.u.u.a.a.B.b.B.t.U.pXP.:X,X3.$.6.D.tXmXmXbXfXaX:X;X`.0.@.4 e N e   ( BX",
"N M e e # f q.9.^.-X:X$XhXfXdX-X^.G.3.#.Y.%X%X| 9 9 F ] ] e.] u.p.t.s.s.s.a.G [ 4XaX*X7.4.Y.#XaXbXBXmXfXaXpX$X>X:X%X;.~ r   +.NX",
"e ~ N e e w %.2.2 #.G.}.fXdX$X~.Y.9.4.~.3XiXiX^.6.k 3 Z V S F S D H H H W F <.fXmXbXkX3XW.9.#X-XaXkXnXkXaXfX3X%XM.Q.`.~ e   ( NX",
"4 M M e e 1 0.~.| 2 Y 0XgX:X^.W.Y.4.!.pXdXdXiX$X~.Y.4.` j p Z p 9 n 9 p d A.iXkXnXmXmXbXaX~.Y.>X3XaXkXiXiXiX).c.D -.`.~ 7    .NX",
"@ N ~ t 4 6 w./.W.C 9 -.3X-X%X,XY.W.$X3XdXfXhX3X$X~.G.4.,.` J i 9 Z z k #.;XkXbXbXmXmXkX-X:XW.~.3X:XkXiXv.d.t.D K &XZ.~ 6    .NX",
"X e ~ ^ M m t 8.}.M.p 9 R 0.L.0.L.=X$X}.%X3X:X-X>X~.Y.G.1.<.<.4.#.2.8.` !.iXfXfXkXkXkXfX3XY.-X~.$XaX2XN.H D G Q oXiX;.m 4   +.NX",
"X @ t ^ ^ ^ P 2./.-X-.0 p V C 9 F | } v.v.v.L.P.|.*X{.W.D.9.9.9.6.%X#X4.^.iXdXiXgXkXdXdXdX^.M.-.Q d.s.p.K D d.%X3X/.M t +   +.NX",
"+ X # m ~ ~ M w.W.-XoXF B Z a 3 C C i C F E F | [ 2.7.2.7.<.7.<.%.~.M.7.W.W.`.$X`.(./.P.-.U Z n q n e.t.W v.:XiXV.e N e +   +.NX",
"+ O + # r m m @.0.$XiXv.C Z a p i p p p Z C F C V V V Z p 9 p i g p K V K H ! W E G D D D G S K B n H t.M.:X:X$X .+ e ; = O +.NX",
"& + + O O # + b q.}.iX=X} C a i p * % % - * * a a 5 5 p i i i p p p i i i B 0 9 9 9 B 9 * 0 G S B G W I.-X$X^.W.4.k ; + > $ +.NX",
"O + O & O & + 4 &.^.2XhXP.E C p p - $ * * 2 3 * & $ % % % % % % $ 8 , 3 9 7 C T U E A V 9 3 B V K D { :X#XW.0.Q.0.%.y ; y % &.NX",
"& $ + & + ; & + +.W.;XiX0Xv.} Z a > 2 2 5 0 V E E U S F S S F W ] p.b.n.n.n.n.B.s.e.e.e.! A 0 9 G W _.$XW.L.W.G.7.7.y 1 > N C.NX",
"& $ $ & & ; ; > %.0.*XrXhXP.} F U C Z Z Z B B n D S S A A S S S U E { u.r.! H H W t.t.r.W S V V ! M.iX~.^.!.L.2.&.x 1 > h y.@.NX",
"8 > $ $ & ; ; & : <.oX;XsXrXF.} } } F A A B B 0 9 9 2 3 * 3 * * 3 q q 0 0 n G G e.t.t.e.G D D | W.:X=XoX$X/.0.<.l 1 u 1 y.4 c NX",
"4 , > + & ; & & + +.}.:X4XaX$XM.2.} i.E F A 0 0 p 9 2 2 2 5 9 2 9 B B 0 0 D G ! W W W G G ! 0.}.0X=XoX0X%XL.2.l 6 u > 7 g   ` NX",
". + > : , ; ; & & v ~.=X2XiXsX*X%X_.} ] W F 0 p 9 a 5 2 2 2 9 p B B B V D S W W W W H u.d.%X:XiXiX*X0X0X{.<.d < y 1 ; > -   v NX",
"  X 4 r > 1 > > , y 0.=X:XtXaXiXiXiXL.] ] ] E V 9 2 2 2 3 * * 3 q q 9 B A K D H W p.c.c.OXkXgXjX=X;X0XL.+.< < < > , > < : .  .NX",
"# ~ _ m ; > , , ; & %.%X:X2X4XpXpXrX0X_.} ] u.] E S V V C Z V A U E { { i.i.i.i.i.b.I.1XkXnXbXrXoXW.#.< & > , & ; > > > &   ` NX",
"fXkXjXaXhXdXdXdXdXdXgXnXBXBXBXmXBXBXnX2XP.n.W e.s.a.i.] W W ! ] p.c.n.P.P.n.n.c.I.<X<XnXNXNXBXnXnXgXsXdXdXdXhXdXdXdXdXdXgXhXgXNX",
"NXNXNXNXNXNXNXNXNXNXNXNXNXNXNXNXNXNXNXNXsXrXP.n.p.a.b.a.p.W W W W ! { c.d.d.n.I.2XkXNXNXNXNXNXNXNXNXNXNXNXNXNXNXNXNXNXNXNXNXNXNX",
"NXNXNXNXNXNXNXNXNXNXNXNXNXNXNXNXNXNXNXNXNXNXnXrXrX_.P.n.n.a.u.u.e.W u.p.B.I.U.1XmXNXNXNXNXNXNXNXNXNXNXNXNXNXNXNXNXNXNXNXNXNXNXNX",
"NXNXNXNXNXNXNXNXNXNXNXNXNXNXNXNXNXNXNXNXNXNXNXNXNXBXbXjXrX1XOXP.N.n.I.I.1XpXbXNXNXNXNXNXNXNXNXNXNXNXNXNXNXNXNXNXNXNXNXNXNXNXNXNX"
};
