/* XPM */
static char *result[] = {
/* columns rows colors chars-per-pixel */
"64 64 251 2 ",
"   c #020205",
".  c #090406",
"X  c #0D0807",
"o  c #03050B",
"O  c #0A060A",
"+  c #05090C",
"@  c #0B0B0D",
"#  c #120B0E",
"$  c #1A0A0D",
"%  c #0C110D",
"&  c #020711",
"*  c #030B14",
"=  c #0C0D12",
"-  c #0B0B16",
";  c #040E19",
":  c #120E12",
">  c #190F13",
",  c #0D1114",
"<  c #06121A",
"1  c #0C141B",
"2  c #0C181B",
"3  c #131315",
"4  c #1A1414",
"5  c #14151A",
"6  c #1C1718",
"7  c #151A1C",
"8  c #1B1C1C",
"9  c #24090D",
"0  c #290912",
"q  c #370A15",
"w  c #271716",
"e  c #221C1C",
"r  c #2C1C1B",
"t  c #36171A",
"y  c #13261E",
"u  c #20201E",
"i  c #2E221E",
"p  c #33221E",
"a  c #0B1621",
"s  c #091923",
"d  c #0D1A23",
"f  c #121C23",
"g  c #1C1D21",
"h  c #141C28",
"j  c #231D21",
"k  c #152223",
"l  c #1C2224",
"z  c #15222C",
"x  c #1B252D",
"c  c #192B28",
"v  c #182F2D",
"b  c #1B342B",
"n  c #182833",
"m  c #1B2B34",
"M  c #242424",
"N  c #2A2425",
"B  c #242629",
"V  c #2B2629",
"C  c #262A29",
"Z  c #2C2B2A",
"A  c #382926",
"S  c #332C2C",
"D  c #21362F",
"F  c #36312D",
"G  c #232D33",
"H  c #342D31",
"J  c #283435",
"K  c #243934",
"L  c #23333B",
"P  c #353332",
"I  c #3B3534",
"U  c #3B3836",
"Y  c #38373A",
"T  c #3C3B39",
"R  c #4E0D19",
"E  c #4D1721",
"W  c #631925",
"Q  c #452B28",
"!  c #43332E",
"~  c #4E342D",
"^  c #58352F",
"/  c #433533",
"(  c #483734",
")  c #4B3B35",
"_  c #443D3A",
"`  c #4C3D39",
"'  c #563B37",
"]  c #533D3A",
"[  c #613632",
"{  c #2E463B",
"}  c #46413E",
"|  c #4C423E",
" . c #5C4037",
".. c #53423D",
"X. c #5C443D",
"o. c #64473C",
"O. c #72483C",
"+. c #51743C",
"@. c #2A3842",
"#. c #303D42",
"$. c #463D48",
"%. c #6A3F42",
"&. c #2D4147",
"*. c #354949",
"=. c #36534C",
"-. c #2E4150",
";. c #374B54",
":. c #395356",
">. c #3C545A",
",. c #3F5A61",
"<. c #4C4542",
"1. c #484546",
"2. c #534642",
"3. c #5B4541",
"4. c #554944",
"5. c #5B4B45",
"6. c #59474E",
"7. c #544C4A",
"8. c #5B4E4A",
"9. c #54514B",
"0. c #5D514C",
"q. c #554E55",
"w. c #44505B",
"e. c #5C5453",
"r. c #595758",
"t. c #624342",
"y. c #634B44",
"u. c #684C47",
"i. c #6E4F4E",
"p. c #6D5346",
"a. c #63534D",
"s. c #6A534B",
"d. c #715245",
"f. c #74544B",
"g. c #77584C",
"h. c #7A5A4D",
"j. c #645652",
"k. c #6B5452",
"l. c #6C5B53",
"z. c #685A56",
"x. c #645C5B",
"c. c #745C53",
"v. c #775956",
"b. c #7D5C52",
"n. c #735D59",
"m. c #69605C",
"M. c #746155",
"N. c #7D6255",
"B. c #75625A",
"V. c #7B645B",
"C. c #7D685C",
"Z. c #425B62",
"A. c #475B66",
"S. c #595963",
"D. c #715F61",
"F. c #4C6169",
"G. c #56696F",
"H. c #686362",
"J. c #7B6864",
"K. c #6D7478",
"L. c #845D4B",
"P. c #815E52",
"I. c #855C56",
"U. c #86614E",
"Y. c #846355",
"T. c #8B6455",
"R. c #8A6956",
"E. c #84655B",
"W. c #896559",
"Q. c #846A5D",
"!. c #8B6B5C",
"~. c #956C59",
"^. c #936C5C",
"/. c #95715D",
"(. c #845F60",
"). c #846C62",
"_. c #8B6D62",
"`. c #846A68",
"'. c #8B6D6A",
"]. c #936E62",
"[. c #966F66",
"{. c #8C7164",
"}. c #857168",
"|. c #8C746B",
" X c #937364",
".X c #9B7464",
"XX c #9C7867",
"oX c #93766A",
"OX c #95796B",
"+X c #9B7B6B",
"@X c #8B7673",
"#X c #977972",
"$X c #9B7D73",
"%X c #A2796A",
"&X c #A37B6C",
"*X c #A57D72",
"=X c #AB7F73",
"-X c #A49F59",
";X c #9F806F",
":X c #9E8172",
">X c #9A837D",
",X c #A5816E",
"<X c #A28374",
"1X c #AA8373",
"2X c #A78779",
"3X c #AB8B7B",
"4X c #B38B7A",
"5X c #B2947B",
"6X c #774F81",
"7X c #6D7B83",
"8X c #997790",
"9X c #73878D",
"0X c #7D9BA1",
"qX c #8B9495",
"wX c #A98A85",
"eX c #B28E83",
"rX c #BA9584",
"tX c #8A9CA3",
"yX c #90B0B5",
"uX c #A5B0B0",
"iX c #C79F92",
"pX c #C8A691",
"aX c #9EBDC5",
"sX c #A2BDC5",
"dX c #9EC3CA",
"fX c #ACC5C7",
"gX c #A4C5CA",
"hX c #A5C9CC",
"jX c #ABC9CD",
"kX c #B5C4C4",
"lX c #B2C6C8",
"zX c #B3CACC",
"xX c #BACBCD",
"cX c #A5CDD1",
"vX c #ABCDD1",
"bX c #BCCFD1",
"nX c #A7D2D5",
"mX c #AAD2D5",
"MX c #BBD4D6",
"NX c #C2CFD0",
"BX c #C2D4D5",
"VX c #C4DADB",
"CX c #C9DBDC",
"ZX c #CADEE0",
"AX c #CCE2E4",
"SX c #CDE6E9",
"DX c #D7E8EA",
"FX c #D3EAED",
"GX c #D7EDF0",
"HX c #DCF2F4",
"JX c #E1F4F5",
/* pixels */
"=.{ b b c y c c l y y 5 7 8 y l u l g y l M C 7 3 @ = , , 3 4 e M M M u 8 u u u u u 8 y 8 u u u u u u u C u u N P I h 5 3 g   @ ",
"*.b y y l b D u 8 8 7 5 7 8 g 8 7 3 7 8 M l l 7 5 3 , : # 5 8 7 8 M C S Z u u u u u u i u u 8 % % 4 y 4 6 3 6 N F H Z Y B 8   @ ",
"=.*.K D y l c g 7 5 3 3 7 g g 7 5 7 8 8 5 5 5 , , 3 5 : @ 3 3 3 5 u B C F Z u u u Z M C Z Z F u 3 3 % % % # 6 N B j M l 5 7   @ ",
"y c J { *.{ C u 3 % % % % 3 3 3 5 u 7 , @ + + = @ % : @ @ 3 @ % 3 u S P F C u u u Z Z Z Z Z P U P S i u 8 3 u N e 4 M C 5 5   @ ",
"{ { D c v J l 5 @ . @ @ + @ , 3 l B 5 @ + + o o + + @ @ = # @ @ % 5 u M c M u M u M u M Z Z P P U Z B u u M P B e 4 e P 7 5   % ",
"D D K K D k 3 = + + + @ % @ % 5 8 l 5 + + +     o + + = % @ . @ X # 5 7 8 3 u M Z M u u u C Z P U { P Z M Z F M M 3 # 5 2 5 o , ",
"D D K v k 7 , = @ @ % , % % 5 8 8 3 + . @ o   o . + + @ @ . . o @ @ @ 3 3 3 3 M Z u 8 u u M Z F U U P B 8 6 B Z M 4 # 8 J 7 @ @ ",
"b b k y 7 2 5 , = % 3 @ , , g l 3 % o + 3 +   . o   @ @ o @ + @ @ = 3 @ : % 5 u 8 7 8 8 8 M M Z Z Z M u 8 5 6 u j e 3 , g 8 , @ ",
"v v b k 2 2 3 , 3 = = @ : 3 g 5 % @ + % 5 @ o o o O @ X @ @ @ @ @ o @ @ @ @ 8 8 3 % 3 5 6 8 8 8 6 3 3 3 3 6 8 8 8 j 4 @ % 3     ",
"&.K y 2 % , , * 5 3 = 3 5 6 5 @ + X X g 3 + O o O O X @ = @ 3 % O   . @ - : 6 6 @ @ X 3 5 5 3 3 % : % % % % 6 8 7 8 5 . + @     ",
":.:.=.v * + ; * 1 1 = 3 7 3 @ @ o o @ 5 3 . + @ O X X 3 3 4 6 8 3 . o o @ = : # @ @ : 5 5 > : # # X + X X % 3 8 3 4 8 o + %     ",
"=.=.=.b + o o o - 5 = 5 5 = + .       @ 3 o O # # > 4 6 w e e 6 4 > : = @ = X . . X @ : 3 3 % @ @ @ X . o + 3 6 # 3 8 @ @ @     ",
"=.=.=.b o       * 5 1 5 5 3 .           : X : r N N A A A p i w 4 4 4 # # # X X . + X X @ % 3 , @ @ + o o o % 5 % 5 8 @ + ,     ",
"=.=.=.{ 1     o & , 3 = 3 3 @           + 3 N F / ( ] ~ ..) ~ p r w $ 9 $ w w $ . . o         + .     . +   , 5 3 3 8 = @ , , 5 ",
"K &.=.,.@.o     o : 3 = + , @           . 3 F ( ....X.X.o.o.X. .^ ~ Q A A p p w > X X                 + o + , 5 5 5 7 7 f k z k ",
"b v &.,.A.m o o o o + @ o . @           + l I ..X.X.X.p.p.f.g.d.p.u.o.o.^ ~ Q Q w $ % @ + +     o o o o   + 5 5 8 5 7 g l 7 f z ",
"b m ;.,.A.>.h & o o o   o               + M I ..y.u.p.f.g.g.g.h.g.g.d.d.o.o.[ ^ Q w # @ 3 5 5 , , % = + @ = , 3 5 3 5 l k 2 2 2 ",
"+ k @.-.@.;.@.& * o o o o               = j H ) 3.s.f.g.g.h.h.h.g.g.g.g.g.d.o.o.~ Q w @ O 3 6 8 8 7 5 , = , @ , 7 5 5 7 2 2 , 1 ",
"  5 m n m @.@.1 o & & o               o - g N / 3.u.g.h.L.h.h.h.h.h.h.h.h.h.d.u.o. .! w . . O # 5 5 3 @ @ . @ 3 8 8 7 7 7 1 2 8 ",
"  1 n z n n n h ; & o o o o   o     o o - , g S ..s.g.b.Y.U.N.b.P.P.Y.Y.R.U.L.f.p.O.X.Q w # . . . o   .   . @ 6 7 8 f f f 2 g j ",
"o - n z n n n n 2 * o o o o o o o O O & - , g j ..p.g.N.N.Y.Y.Y.Y.Y.W.!.^._.W.Y.U.h.g.o.~ r > X . . . . . @ 3 8 g 7 f k d 2 5 t ",
"o ; n n n m m n f * o o o o o o & & - & o - g V } a.g.N.R.R.R.R.Y.T.W.^. X.X X!.R.Y.W.N.p.] A w 4 $ > : 6 6 8 i C g 7 f 2 , > q ",
"  - m n L L L n f * & o & o o * - = - - ; 5 5 j | f.M.R.Y.R.R.!.W.R.W.^. XXXXX.X X^.!.!.W.N.s.] ! A r i i e N / 1.g 2 , - , > q ",
"  - m n L L L x d ; o o & * & + ; = 5 - 3 h j / a.M.N.N.R.R.!./.]. X^./..X%X&X%X%XXX X].!._.E.n.g.u.X.X...) ! F I l 1 ; 1 f 6 q ",
"o - n n L L m h 1 * o * & o * * - 1 5 5 8 M Y 4.n.N.E.Q.R.!././.XX&X,X,X1X1X<X,X<X,X,XoX!.!.W.W.N.c.f.u.X.! p i S l , , 2 7 5 9 ",
". - n h m G n f ; o o o & * o * - 7 g g M } x.J.).Q.!.!.{././. X.X+XoX$X2XwX2X<X<X>X+XoX_._._.W.b.f.y.) A w i F 7.B , + * * @ $ ",
"  * n h n n h f - & & o o o * ; a g g j { z.J.}. X!.!.{./. X X XC.a...3.a.B.}.@X:X#X}.E.N.E._.!.h.y. .A i p ) s.m.M , + o o . 9 ",
"  * z h z n f f - - H I w # @ 1 g h V G 1.m.J.{.{.]. X/.{. X XM.8.] ( A A / 7.j.l.n.s.a.s.E.W.b.d.o.) | X.0.k.s.l.N * o o o 9 E ",
"  & z s h z f 7 = P @XJ.e.p 4 6 g j Z P 1.B.).{. X X X X!. X{.C.J.J.J.J.j...) ) | ....X.u.N.Y.b.d.o.o.y.%.<./ p X.S = o o $ E W ",
". o h s s h h 5 5 8.n.v.E.u.Q j j B Z I 7.B.).{. XXX.X{.!.{.{. X>XwXwXwX>X|.M.a.o.X. .o.g.N.Y.b.p.o.' t j x.6./ k._ = o . 0 E W ",
"  o 2 s s d k f 6 k.u.g.Y.b.s.) S V Z I 7.B.Q.{.OXXX X{.{.!.{.{.@X>X@X`.J.(.n.c.c.p.p.g.V._.{.!.f.O.Q p k.`.n.y.V.<.= o o q W W ",
". O a < s s h 7 j n.b.W._.g.c.c.` N N I 8.B.). XXXOXoX{.Q.Q.C.M...A t r r ( Q ~ X.O.d.N. X:X<X+Xh.g.d.g.v.f.f.g.}.7.- o . 0 R W ",
"O - < < < s h s 8 z.!.R./.R.g.g.l.F i F 5.B.). X+X+X+X{.R.N.O.| p ) j 0 H `.k.~ ^ d.h.Q.+XrXpX1XR.Y.h.d.d.f.I.W.{.0.= o . 0 R R ",
"- * < < < a s a 1 7.OX!./.h. .o.n.2.i A 5.B._. X.X+X+X X{.C.o.o.a.m.z.6.`.8X(.i.t.h.!. X;X5XpX5X/.U.U.g.g.P.W.!. Xj.= - @ 9 q R ",
"= * ; ; ; a a a - I @X{.!.o.[ o.d.k.A A 7.B.Q.{.OX;X;X:X;X/.).C.V.J.`.@X@X'.(.v.P.W.&X&X,X5XpXpX.XR.Y.h.h.N.R.R.;X7.* l Y j 9 q ",
"y + ; ; ; ; a a - 8 B./.R.O.O.O.N.V.( F 2.n.E._. X.X;X>X-X;X;X|.).Q.}.|.'.'.(.I.P.^.1X,X,X1X5XrX,X~.~.R.U.Y.!.;XoX} % m @.#.V 0 ",
"b % % < ; ; a ; ; * <.'.].L.L.L.oXJ.3.F 2.M.V.{.{..X;X2X3X5X2X:X{._.).{.'._.W.I.W.XX1X1X=X1X4XrX1X/.~.~.~.~./.;X{.S < k G x x j ",
"{ { 2 * * ; ; ; ; * e `.XX/.L.L.!.J.a.( 4.l.B.Q.{.+X;X1X5X5X5X3X:X|.|.{.'._._._..X1X=X=X%X&X=XrX5X/.~./.,X/.;X;XV.8 < < ; - + + ",
"+.{ d < * * ; ; * * O 4._._.!.W.p.M.l...4.M.C.Q.{.oX;X;X3X3X5X5X3X<X$XoXoX{.oXXX=X1X%X%X%X%X=X4X5X.X~..X/./.,X/.4., < * + + + o ",
"+.=.d + * ; * * ; * & e J.'.{.OXg.M.M.5.4.m.C.Q.!. X X;X:X:X>X3X3X3X<X:X+X+X*X3X4X=X.X.X/.%X1XeXiX=X~./.,X,X/.{.S 2 < < ; * * o ",
"-X{ h & ; ; ; ; ; & & & / @XOXoXQ.C.M.5.5.m.C.C._.{.{.oXOX+X;X:X2X3X3X3X3XwXrXrX4X%X~.~.[.=X=XrXpX4X%X/..X%X+Xn.8 a 2 d d d 2 * ",
"-X9.h & ; ; ; ; ; & & & - J.wX#X;X).M.0.5.j.C.C.Q.)._.{.oXoXOX;X:X>X<X3X5XeXrX4X1X.XT.T.~.=XeXrXiXrX%X/./.XXXX<.1 a d d d z f 1 ",
"-Xr.z ; ; ; ; & & * ; & & #.8XwX:X|.B.a.5.0.m.B.N.Q.Q.Q.}.{.{.OX+X:X<X2XeXrX4X4X=X~.T.L.[.=X8XiXiX4X*X.X.X;X{.V ; a s z m m d * ",
"rXS.z * ; ; ; ; ; ; & & & - 0.$X:XOXB.a.5.8.j.M.C.C.C.C.Q.{.{. XOX;X>X3XeXeX4X4X=X~.T.T.=XeXrXeXeX=X$XXX+X+XJ.5 1 2 d m >.:.@.* ",
"8Xw.z ; ; ; ; ; ; ; * & & & , 1.n.k.z.e.7.4.0.l.M.B.C.C.C.C.C.;XoX:X:X2X3X2X4X1X%X.X~.~.=XeX8XeX=X*X@X'.$X#X0.+ ; 2 s L ,.,.>.-.",
"6Xw.n * ; ; ; a ; ; * * & & & o O j e.0.2.2.8.j.M.M.M.M.M.C.C.Q.}.OX>X:X2X<X*X*X%X=X[.I.[.[.D.(.[.'.`.'.OXOXP   * < 2 &.,.,.Z.Z.",
"$.w.n & ; ; ; ; ; * & & o o o o o , e.e.4.2.5.a.g.M.M.M.M.M.C.C.}.oXOX:X:X*X*X*X=X=X.XI.i.[ E %.v.i.f.`.oX}.8   o < n >.G.qXyX9X",
"-.-.@.; a ; ; ; * * & & o o   o o - q.r.7.<.4.0.+.l.l.M.N.M.N.C.Q.}.|.OXOXOX+X*X=X=X=X(.I.%.6.%.[ ' X.b.).).#.G.9XtXuXgXVXJXJXGX",
"@.-.-.a ; ; ; ; * & & o o o o o o o 1.H.q.<.<.4.a.l.s.l.g.M.M.N.C.)._.|.'.[.[.#X%X%X%X#X'.J.i.t.u.t.) y.l.qXCXGXFXFXFXFXHXHXJXJX",
";.w.w.n * * * & & & o o o o     o o 1.x.e.<.<.2.9.j.s.l.l.l.l.M.V.V.).)._.`.].].'.].'.`.(.k.i.g.E.c.t.!  .uXGXDXFXFXAXSXGXHXGXHX",
">.;.;.;.@.1 ; & & - & - O = * - o : 1.x.e.1.<.<.4.0.j.l.l.l.l.M.M.V.C.).I.b.E.).(.(.n.a.6.%.6.n._._.W.) ! uXGXFXFXSXSXFXJXDXDXJX",
">.;.>.>.>.;.@.@.#.;.*.*.*.*.;.*.G.K.S.H.e.1.} } | 9.a.j.a.l.l.l.M.B.V.`.b.n.c.B.l.i.5.2.) ` j.`.oXXX[.n.9.kXFXSXFXFXFXFXDXDXDXDX",
";.;.>.>.>.;.>.>.>.>.,.,.w.,.>.7X7XS.x.H.r.7.<.T { ..9.0.j.l.l.l.M.B.B.V.b.c.u.y...] ) ` 3.k.'.'.(.I.v.D.J.NXSXSXSXSXAXDXDXDXDXDX",
";.;.;.>.>.,.,.,.,.,.,.,.F.F.7X9XS.q.x.H.H.e.<.T U _ } ..0.j.l.l.l.M.M.N.v.s.3.] / ! ) 3.k.v.k.%.$.' t.e.K.CXSXSXAXVXVXAXZXAXAXDX",
",.F.F.G.F.F.A.A.,.,.G.9X7X7XtX7XS.1.e.m.H.m.7.T P U U } | 0.j.l.l.l.l.n.c.s.5.) ( ( ] 3.%.~ t $ 0 0 ' j.8XVXZXVXVXMXBXZXCXDXZXDX",
",.;.#.-.@.;.>.,.7X9XyXaXaXaXtXK.1.Z 8.x.m.H.r.1.U P P P } | 0.a.a.s.a.f.k.k.y.3.] ) / Q t 9 $ 9 q E t.j.qXVXVXVXMXMXVXCXCXCXCXCX",
"m n L w.7X0XyXyX0XnXmXVXmXMX0Xw.S A 8.j.x.H.x.7.{ P S S P T <.0.0.5.0.p.a.a.5.X.3.X.~ Q Q q q q E ^ s.9.uXCXCXVXVXVXVXVXVXCXCXCX",
">.G.0XaXnXnXcXcXnXnXnXnXnXnX7X#.F ! 5.0.j.z.z.e.2.Y P S P P _ <.| ..X.a.a.o.y.y.y.t.t.%.%.' [ [ [ t.s.r.kXVXVXVXVXVXVXVXVXVXVXVX",
"aXgXdXdXcXnXmXmXnXnXnXnXmXcXS.V N Q 2.8.j.j.j.0.8.$.Y P H I Y T } } | 5.5.5.y.a.y.y.o.X.%.%.%.%.t.i.5.H.xXBXBXBXMXBXVXBXBXBXBXBX",
"cXdXdXdXdXcXvXmXnXnXnXnXcXcXS.V A ! ..7.8.j.e.9.7.7.1.Y H H H P F P | 4.5.5.0.y.y.3.X.X.$.' ] ] 3.3.{ >XBXBXBXbXbXbXBXbXBXbXBXNX",
"hXjXvXcXvXzXvXvXcXcXcXcXcXcX7X/ ! ! | 4.5.0.9.8.4.7.4.$.F Z Z Z Z S U / 2...5.y.5.X.X. .~ A r Q $...1.uXbXNXbXNXxXbXbXbXbXbXbXbX",
"vXzXzXzXvXvXzXvXvXhXjXjXhXcXsXq.I / ) ..4.0.0.7.4.2.<.1.I Z V V B Z Z Z I } 2.5.o.o.X.| ! i w F ] / r.uXxXbXbXxXxXxXxXbXxXxXzXvX",
"zXlXzXzXlXlXlXhXjXfXgXhXgXhXsXtX1./ ( | ..4.5.5.2.<.| | _ Z N B M N M M N F _ | X.a.u.4./ i i A S S 9XkXxXxXxXkXzXxXzXkXzXzXzXfX",
"lXlXlXlXlXlXlXfXfXgXgXgXgXhXsXsXK._ ( ) | ..2.7...| } ) } / Z M M B M u u u N S / | 4.2._ A N S M 1.uXkXkXzXkXlXlXfXfXfXzXfXfXfX"
};
