/* XPM */
static char *result[] = {
/* columns rows colors chars-per-pixel */
"64 64 254 2 ",
"   c #000000",
".  c #0A0907",
"X  c #0D0B05",
"o  c #03050A",
"O  c #130D08",
"+  c #0C1309",
"@  c #17170A",
"#  c #070B17",
"$  c #110F15",
"%  c #0E121C",
"&  c #191615",
"*  c #271A0C",
"=  c #251A18",
"-  c #331C11",
";  c #19280C",
":  c #1C310E",
">  c #1A241A",
",  c #29280E",
"<  c #282715",
"1  c #382715",
"2  c #283613",
"3  c #393717",
"4  c #333C15",
"5  c #090E22",
"6  c #0B1125",
"7  c #0C142B",
"8  c #141929",
"9  c #0D1533",
"0  c #0F193A",
"q  c #131C38",
"w  c #271E27",
"e  c #192825",
"r  c #1B233A",
"t  c #2A2528",
"y  c #33332F",
"u  c #282639",
"i  c #452713",
"p  c #532B15",
"a  c #453419",
"s  c #57381A",
"d  c #6A371C",
"f  c #473624",
"g  c #573B2B",
"h  c #493234",
"j  c #294A15",
"k  c #3A4519",
"l  c #375A1B",
"z  c #37651C",
"x  c #37701E",
"c  c #35482C",
"v  c #3A6A23",
"b  c #454B1C",
"n  c #5B4C1E",
"m  c #46571E",
"M  c #444828",
"N  c #575926",
"B  c #53512E",
"V  c #594538",
"C  c #674826",
"Z  c #754D25",
"A  c #6A532F",
"S  c #7A5634",
"D  c #496A23",
"F  c #596827",
"G  c #497724",
"H  c #547A28",
"J  c #536835",
"K  c #636927",
"L  c #66772B",
"P  c #706E33",
"I  c #131F49",
"U  c #18244B",
"Y  c #192758",
"T  c #292948",
"R  c #293148",
"E  c #393748",
"W  c #242C56",
"Q  c #2D3253",
"!  c #1C2C67",
"~  c #1E316A",
"^  c #1F3276",
"/  c #283668",
"(  c #2B376D",
")  c #363B66",
"_  c #243678",
"`  c #4C3A51",
"'  c #5B3E51",
"]  c #375654",
"[  c #3A4677",
"{  c #324E72",
"}  c #3D6A71",
"|  c #524A50",
" . c #7A5A48",
".. c #695152",
"X. c #785C57",
"o. c #536A53",
"O. c #726852",
"+. c #484768",
"@. c #564A65",
"#. c #51556D",
"$. c #484A79",
"%. c #585378",
"&. c #675767",
"*. c #72506D",
"=. c #755968",
"-. c #506B70",
";. c #726D73",
":. c #984C1D",
">. c #885A2A",
",. c #985424",
"<. c #91512B",
"1. c #865A39",
"2. c #AB5725",
"3. c #AA5D36",
"4. c #97642E",
"5. c #8B6D39",
"6. c #986637",
"7. c #9F6830",
"8. c #A26B33",
"9. c #A36839",
"0. c #B36A33",
"q. c #A87539",
"w. c #B37A3A",
"e. c #C15F25",
"r. c #C6662A",
"t. c #D17130",
"y. c #855E52",
"u. c #8A6246",
"i. c #966543",
"p. c #997846",
"a. c #896758",
"s. c #907553",
"d. c #A86B4C",
"f. c #A87847",
"g. c #905E70",
"h. c #916A6B",
"j. c #B1746E",
"k. c #4C8C28",
"l. c #5A862A",
"z. c #518E29",
"x. c #55912A",
"c. c #5C942C",
"v. c #599036",
"b. c #68882D",
"n. c #61962E",
"m. c #6F902F",
"M. c #64992F",
"N. c #6F8631",
"B. c #768B33",
"V. c #689434",
"C. c #669A31",
"Z. c #6C9D31",
"A. c #749735",
"S. c #7C9234",
"D. c #719F33",
"F. c #74A134",
"G. c #7CA536",
"H. c #75A239",
"J. c #7CA53A",
"K. c #729150",
"L. c #79A442",
"P. c #5E8869",
"I. c #829636",
"U. c #859936",
"Y. c #889C38",
"T. c #B0823F",
"R. c #80A737",
"E. c #84A538",
"W. c #8EA33A",
"Q. c #84A939",
"!. c #8CAD3B",
"~. c #93A63C",
"^. c #92AD3D",
"/. c #94B23E",
"(. c #99B43F",
"). c #D3853D",
"_. c #908A51",
"`. c #AF8B4E",
"'. c #B88845",
"]. c #BB9956",
"[. c #88A845",
"{. c #95AB48",
"}. c #9DB641",
"|. c #9FB841",
" X c #97B448",
".X c #8FAB51",
"XX c #96B555",
"oX c #A0B841",
"OX c #A5BB4A",
"+X c #A7BD55",
"@X c #988971",
"#X c #B3946C",
"$X c #9AA063",
"%X c #B2B971",
"&X c #C7964B",
"*X c #D79248",
"=X c #C99B54",
"-X c #E59846",
";X c #D7A958",
":X c #D2AE59",
">X c #E9AB5D",
",X c #C78C66",
"<X c #C6A364",
"1X c #D9B561",
"2X c #ADC056",
"3X c #B3C45A",
"4X c #AEC26A",
"5X c #B9C766",
"6X c #C4CE73",
"7X c #C8CE74",
"8X c #ECC66B",
"9X c #263B88",
"0X c #2A3F8C",
"qX c #2A4786",
"wX c #344F88",
"eX c #2B4398",
"rX c #394A95",
"tX c #3C738D",
"yX c #2C47A3",
"uX c #3959A7",
"iX c #464D89",
"pX c #4E558F",
"aX c #4F728F",
"sX c #6A6D8C",
"dX c #415AAA",
"fX c #4F6EB1",
"gX c #6762A1",
"hX c #3C63C0",
"jX c #4A73C6",
"kX c #8E6587",
"lX c #84689F",
"zX c #AF75A7",
"xX c #5D8B92",
"cX c #54A785",
"vX c #6D89AF",
"bX c #69B4A6",
"nX c #708ECC",
"mX c #79AFD3",
"MX c #588DEB",
"NX c #5F90E5",
"BX c #7BADEE",
"VX c #B68785",
"CX c #9E95A8",
"ZX c #8D99B9",
"AX c #D2BCAF",
"SX c #CDD486",
"DX c #D5D887",
"FX c #E0CEA0",
"GX c #A0B6D6",
"HX c #89B9EF",
"JX c #97C3DD",
"KX c #BED5EB",
"LX c #C9CDCF",
"PX c #C9D4E8",
/* pixels */
"|.(.(./.(.(.oX(.oX(././.!.F.c.F.!.}.}././.}.!.C.Z./.(.oX(.2X(.(.(./.(.oXoXoXoX(.!.!.!.F.c.F.!.(./.Z.C.!.Q.C.F.(.|.|.(.|.|.(././.",
"oX}.R.Z.!.oXoXoXoX/.Z.M.c.D.G.F.C.Q./.F.Z.!.(.!.!.(.oXoX|.|.(.(.G.D.!.oXoXoX|.!.Z.M.M.F.G.F.Z.!.(.!.!.(.(.Q.!.|.|.|.|.|.2X!.F.D.",
"|.}.G.M.Q.(.oX(./.G.M.x.k.C./.G.Z. X2XL.Z.!. X!.!.(.(.!./.(.|.(.F.Z.!.oX|.(.!.F.M.x.k.D.!.G.Z.XX2X2X|.|.(.!.!.|./.!./.|.oX/.D.M.",
"}.|.}./.(.(.oX!.Z.M.R.F.x.Z./.(.XX5XSX2X/.}.!.C.D./.Q.M.G.(.|.(./././.(.(.!.M.D.G.Z.z.F.(./.|.6X7X3X|.|.Q.Z.F./.G.M.G.|.oX(././.",
"!.|.3X5XXX!././.F.G./.!.D.G.(.(.OX4X4XXXQ././.G.D.F.H.Z.D.G./.OX3X5X XQ.(./.F.G.(.!.D.Q.(.|.2X4X4X XJ.|.!.F.D.F.F.M.F.G./.oX3X5X",
"F. X7XDXXXC.!.(././.(.(.(.(.(.(.(.J.c.x.M.!.(./.H.c.C.Q.D.c.H. X7XSX[.M.!.(././.(.|./.(.(.(./.H.v.x.Z.!.|./.H.M.F.!.D.c.G.2XDX7X",
"x.D.XX5XXXJ././.G.G./.oX(.Q.G.!.(.!.F.F.G./..XP.-.} -.-.P.k.v.H.4X5X XG././.G.G.(.oX|.Q.G.!./.J.F.F.G./.|.|.+X4X+X XZ.k.c.J.5X4X",
"z.c.J.oX|.}./.Q.Z.C.[..X.XK.v.H.(.(.(.(. X{.@XpXdXdXuXpX] x x k.V.!.(.(./.G.M.F./.|.(.G.M.G.}.}.|.(.|././.|.5XDX5X XZ.x.x.M.!.^.",
"R.Q./.(.(./.G.C.F.K.-.aX-.aX-.P. X}.}.|..XP.sXlXnXZXnXlX| 2 : : 2 m I.^.D.Z.G.!.(.oX(./.Q./.|.|.(.oX/.F.G.(.2X3XXXZ.F.G.Q.!./.U.",
"/.!./.oXoX/.F.Z./.K.+.wXfXfXgXxX$X.X[.(.{.sXgXzXzXGXZXkX' 1 1 a 1 a K N.n.Z.^.(.^.^.(./.!.}.}./././.!.Z.F./.(.!.F.M.G.(./.!./.U.",
"G.M.G.(.oX(./.^.(.S.y @.GXPXPXZXaXo.n.Q.XXkXzXzXzXzXg.h d 2.t.&Xq.:.s k N.~.(.Q.Z.F.(.G.C.J./.D.Z.!.(./././.R.n.Z.!././.F.M.!.W.",
"Q.Z.F.R./.oXoXoXoXU.D o.VXLXPXKXvXo.z m.{.h.y.*.g.kX' p :.t.-X-X-X).:.s K B.^.!.Z.G.(. X.XL.G.Z.F.!.oXoXoX(.G.z.c.G././.G.Z.F.m.",
"(./.F.c.R.}.(.(.}.^.W.L c -.JXKXLX;.j b.S.f = & w = p 2.r.t.t.t.-X;X).<.1 3 I.(./.}.oX6XSX.XM.G./.oXoX(.(.(.R.z.k.c.G.(.(.!.M.G ",
"oXoX!.G.!.(.Q.F.D.J.}.U.F | -.ZXKXGXCX-.o.e O k 1 O p e.t.t.t.t.-X-Xd...= < l.R.(.oXOX5X6XXXG./.(.oX(.G.R.(./.F.F.F.!.(.oX(.G.b.",
"(.oX(.(.(.!.Z.x.x.C.!.}.{.H y -.ZXKXPXgX[ r 4 L N * p 3.r.e.e.e.e.9.@./ 7 ; G Z./.|.oX|.}./.}.|.(.(.R.M.Z.!.(.(./././.(.(.oX(.W.",
"Q.(.oX(.G.Z.F.G.G.!.(.|.}.V.v c -.ZXJXaXu O.5.N < $ w @.| p p p p i w 7 # : b.Q.}.oX(.R.D.!.(.oX(.F.Z.F.F.Z.G./.Q.M.M.F.!.(.oXY.",
"G.(.(.Q.F.M.G.!.(.|.oX(.!.F.c.c r -.vX#.] @X_.t     9 / T - 1 , @ . = - O 2 S.oX(.(.!.F.M.Q.|.|.}.L.L.L.G.M.F.(.G.c.x.C.Q.(.!.B.",
"/.(.G.M.F.G.Z.Z.!.|.(.!.M.F.[.o.{ / E aXvXsX$.e     # 6 p ,.q.`.a , 5.I.1 2 S.(.oXJ.C.Z.!./.}.|.2X5X4XL.C.Q./.(./.!.!./. X/.Z.l.",
"2XoXR.Z.!./.F.F./.|.|.!.D.G.{.o./ E V ;.sXsX%...E r % . i :.&X1Xp.P ].].a ; N S.^.!.Z.Q./.!.E.E.[.$X_.v H W.(.Q./.oX3X5X2X(.F.l.",
"6XOX(./.(.(././.(.(.(././.(./.F < P _.J y 1.,XAXGXpXY # . - 5.:X1X1X8X].a X ; m U.(./.(.}.F.z.z.G c t e k I.D.c.D.}.7XDX3X(./.S.",
"2XJ.!.oXoXoXoX(.G.F.F.!.(.oX(.B.N K K 1 * 8.>XFXLXvXwX%   X a 5.:X8XDXj.1 8 ] #.J N.(.oX}.E.b.l j N B R y B m j G D.4X5X XJ./.Y.",
"J.M.G.(.oXoX2X(.Z.x.c.M.!.(.oX(.Y.F < @ 3 _.>X8XFXJXaXr o o . t 5.<X,Xg.h E vXvXy J I.W.W.[.L.b a _.@XpX_ e & = j G G.}.G.C.!.~.",
"!.Q.!.(.(.2X6X5X XJ.G.F.Z.R.(.oXoXI.L F K N O.;.ZXJXnX( 9 o 9 W h V ' g Z y.nXNXaX-.M k M o.-.| d n | wXiX*...d 3 4 L /.!.Q./.U.",
"!.!.(.(./.2X7X7XOX/.(.Q.M.Z.!.(.}.(./.{.B.4 8 qXjXBXmXfX_ q W $.E - - p 2.j.nXNXHXaXr = < | sXh.S 1 8 9XpXkXg.y.g , N S.E.!./.U.",
"c.c.G.(.G.Z. X+XH.Z././.!.F.Z.G.(.oX(.D.G : q uXNXHXHXBXfXwX@.u.<.2.:.2.r.j.nXMXMXjX[ | ,.`.#XVXg.t 7 9XpXa.h.%...C a k G M.!.W.",
"x.k.F./.G.M.G.F.x.c.!.|.(.Q.Z.G.(.^.E.D.G : q uXMXBXHXBXjXuX;.f.w.r.t.r.t.d.pXuXuXdXpX=.d.&X<XVXkX` ` $.&.u.a.;.a.1.p O j z.R.W.",
"Z.x.F.(.(.!.Z.x.k.c.!.|.oX(././.(.F.n.G.B.4 7 9XhXMXMXMXjXuX@X:X&X8.8.3.8.Z t 7 8 h  .&.pXa.d.*.pXkXg.a.6.q.`.<X].6.a @ j l.Q.I.",
"Q.F.!.(.oX(.G.D.Z.G./.|.(./.G.!.(.Q.F.!.!.L c R ~ qXeXwX{ -.O.`.a.&.&.&.&.` @ @ 1 V ..*.*.*.&.%.*.g.j.=.a.`.'.5.O.&.| ` c z S.Y.",
"|.(.(.(.(.|.(.(.(.(./.(./.G.n.F./.(.(.(.!.Y.L < o # # & 4 N P P &.iXiXiXwX/ % 1 Z ..[ *.d.*.pXX.d.i.y.$.;.]._.M E iXkXkXh 2 L E.",
"|.(.Q.F.!.(.oXoX|./.F.Z.Z.F.F.F.Z.!.}.J.b.D 4 +     @ 3 n K >.7.i.y.g.y.&.y $ O - t U ` *.=.a.`.&Xw.S E ` `.T.5.O.=.#X#XV @ D l.",
"|.(.G.M.G.|.|.(./.G.M.z.k.Z.!.H.v.V.m.l.z e & & @ % < b B K 1.2.2.2.2.,.C 4 + o $ 5 7 W $.=.j.=X;Xw.Z * 1  .`.;X&Xf.&X=XS 1 l l ",
"|.|./.!.(.|.|./.F.C.G.D.k.M.!.P.{ E 2 : e Y Q V V / U e u { E i i i i - , @ . 6 ! ^ _ +.a.h.j.`.w.8.Z * 8 +.=.f.q.8.w.'.`.I.k : ",
"/.oX2X4X X!.(.(.D.F./.S.v D L o./ u = e U ) %.i.i.@.Q % U } ~ I e e e 9 9 6 o 0 0XyXeX&.i.j.j.d.6.u.V & 6 ! E A S y.u.q.,X#Xf + ",
"F.}.6XDXXXC.R.(.^.!.^.b.2 ; & & & f A @.[ X.i.r.0.i.M % ] } tXwX} P.qXqXqXY 5 0 0XyXrX&.6.i.d.8.u.%.) % o # $ & T $.X.i.j.j.y o ",
"c.G.+X6XXXH.~.~.N.F F N a t r t a Z 6.h.h.d.0.r.d.X.] Y ] tXtXtXbXbXxXtXtX] 6 0 0XiXpX&.X.u.7.7.u.iX^ 6       o U 0X) C ' ' T r ",
"z.x.J.OX|.}.~.I.b @ = 1 A ..( @.1.9.f.=X;X*Xr.3.y.$.qX9XqXqXtXcXmXmXbXcXcX} > q _ %.u.=.pXX.6.6.y.iX~ 5   X X O Y { T & = t ) [ ",
"F.G.!.(.oX^.L m s s s V @.` Y ) &._.=X-X-Xt.i.y.&.&.` Y U U { xXmXJXbXcXtX{ ; e .. .6.s.@Xs.i.X.+.T 9 # ; m F F o.] J F F F O.o.",
" X!.(.(.[.B.3 t Z 4.u...[ Y % U iX@X;X-Xt.0.y.pX%.X.g $ o 7 ! yXNXmXbXcXtX! 7 t 1.9.d.&X1X&Xp.%._ 9 o   3 I.^.Q.Z.v.H./.~.!. X[.",
"R.Z.R.^.L 4 Q )  .u.@.) q # . y X.p.f.t.0.j.j.a.&.%.Q $ 0 ~ 9XyXuXfXuX{ U I ! | u.d.j.,X&X=X].sX9X9     3 U.!.Z.Z.Q./.(.G.D.!.W.",
"R.M.F.A.k $ Q $.A V ) W y @ O 1  .f.T.q.d.j.j.i. .) I # y pXwX9XeXeX9X/ T E [ &.i.d.j.j.'.=X<XsX9XU 5 o 4 I.G.z.M.G././.F.C.F.S.",
"(.!.F.k.2 O g S a & % y L m & U $.@X:X).t.0.i.9.Z w o O A #X..e ~ 9XI T g.g.y.1.9.9.d.&X;X&Xp.pXeXeXY % k U.G.k.k.c.Q.(./.Q.Z.k.",
"oX(.Q.b.j @ C S u 9 o < m 3 + 7 Q a.=X-X*Xw.7.7.Z @ @ p 4.&X`.A Q Y U W pXkXi.3.7.7.8.'.&X'.i.%.yXyX^ 6 4 U.!.D.M.F.Q.|.oX/.F.l.",
"oXoX(.E.b @ d  .$.! 5 . @ O   o $ C q.;X;XT.7.7.Z * p :.r.r.&X].B 0 ! eXrX%.u.7.7.7.7.8.q.7.1.$.eXeX^ 6 4 S.(.(./.!./.(.(.oX(.U.",
"Q.(.oX~.b & E %.rX_ 6 ; m 4 X   X s 7.'.&Xw.7.7.>.d p d d d  .;.+.! 9XrX%.X.6.7.7.7.7.7.,.Z a u ! 9X^ % 2 l.Q.(.!.F.Z.F.!.oXoXY.",
"G.(.(.E.m t ! qXeX^ 6 2 N.F + o % g 1.6.7.7.7.7.4.1.g = % 6 W 9X9X9X9XwX..i.4.9.7.7.8.7.<.s @ . 5 ^ ^ 5 : G F./.G.c.x.M.Q.(.(.S.",
"!.(.E.M.b.F y U 9X^ 7 : H l + 0 ! [ %.y.7.7.7.7.y.&.[ ^ ~ ! U 0 0 0 q U +.&.u.7.7.7.8.6.4.>.s * 5 ^ ^ 7 2 b.!.(./.R.R.Q.(./.F.l.",
"2X}.G.C.J.U.k # Y Y % : G l + I eXpXsX;.u.S Z Z | ) 9X^ _ ~ 9 o       # Y ) C Z Z S u.y.u.1.>.s t Y Y 5 4 I.(.!./.oX3X3XoX/.D.l.",
"6XOX/.!.}.U.k o # # o 4 N.D + I qXCX#XsX) t * * & 5 5 6 5 5 #         o # 5 = * * E ) iX$.X.6.>.C t % o k I.R.M.G.oX7XDX3XoX^.m.",
"2X[./.}.oXY.k     X ; m U.F ; E ;.#X].&.! U 0 0 0 0 5 o                           7 Y ! ! h C >.4.A M u y F b.V.D.Q.4X7X+XQ. XU.",
"Q.C.G. XoXW.b X   ; z v.Q.F ; A <X&X5.f 7 Y 9X9XeX9XY #                           o # $ $ $ - C 6.].#XpX/ e l S.F.n.Q.|.H.C.!.W.",
"Q.G.Q.(.oX}._...< : H D.Z.z @ C T.T.>.i # q ! eXiX#.y $                               * a u W +.O.`.].@X&.; 2 b.F.F.!./.R.G.!.Y.",
"/./.(.oX(.XX7X%XM 4 S.Q.c.l @ s 8.8.>.1   o 7 ( iXX.g O                             o f S +.9X0XiXa.T.].5.4 j l.F./. X/./.(.(.U.",
"n.Z.R.(.G.F.+XXXH D E./.U.D @ A ].T.>.1     & | =.#.E #                             o u +.W Y 9XiXX.>.A N L m.R./.(.R.M.n.Z.!.W.",
"k.k.F./.G.M.G.G.c.c.!.oX}.F @ n `.w.4.g = . * s | ) U o                           # 6 Y / u t +.;.a.Z * 4 U.oX(./.Q.D.c.k.x.Q.~.",
"Z.z.F.(./.Q.Z.x.k.c.!.oX(.F @ @ a Z 6.g.*.w . * * 6 # o                           9 ! U 8 f S `.#Xf.Z * 4 U.oX(.R.M.F.R.c.x.Q.~.",
"R.Z.R.(.(.(.G.M.M.F./.~.L b X o X s 9.,Xj.h                                     . u @.T $ s q.&X=Xs.| & 4 b.^.(.Q.Z.Q./.G.D.!.~.",
"(./.(.(.(.oX/.(./.(.(.N., X     X s q.;X].f                                     . p <.p * p 4.7.u.#./ 8 2 G F.(.(./.(.}.(./.(.~.",
"oX(.!.G.^.(.oXOX(./.G.D @       X s 7.'.T.1                                     o y *.h O - p s f T R M H Z.R.(.oXoXoXoXoX(.R.b.",
"oX(.F.M.Q.(.oX(.(.R.n.z ; O @ X X p >.4.Z ,                                     o q ( U o   X X X @ k B.^.~./.oX(.(.(.oX(.^.Z.G ",
"oXoX!.Q./.oX(./.G.Z.F.b.z l D 4 X @ 1 3 - O                                       # 9 5 o       @ b N.~.!.F.G.(.Q.F.Q.oXoX(.Q.m.",
"/.oX2X2X X X/./.Z.Z./.Q.n.Z.!.K , ; @ + +                                                     . 2 L ^.(.!.M.Z.R.F.M.F.!.(.oX2X{.",
"G.(.6X7XXXZ.!.(.!.!.(./.!./.(.W.N.H z z j ;                                                 + j x k.Z./.(.!.F.M.Z.R.D.M.!.2X7X%X",
"M.J.3X7XXXZ.!.(.!.!.(.oX(./.Q./.(.G.M.c.c.m 4 4 3 V M 3 2 : ; ; 4 4 4 4 4 2 : : 4 4 4 : : 2 k H c.M.F./.oXoX X.X X XZ.z.C. X7X%X",
"k.c.[.2X|./.(.!.Z.Z./.oXoXR.n.G.(./.^.!.!.E.U.Y.$X%X%X[.l.x x G b.S.I.U.I.m.G H S.I.S.l.G b.U.E./.!./.}.(.oX4XSX5X XZ.k.z.Z. XOX"
};
