/* XPM */
static char *result[] = {
/* columns rows colors chars-per-pixel */
"64 64 255 2 ",
"   c #000000",
".  c #0A0A07",
"X  c #140D06",
"o  c #0D1708",
"O  c #15150A",
"+  c #131B0B",
"@  c #1B1D0C",
"#  c #0A0C15",
"$  c #0D1419",
"%  c #1B1B13",
"&  c #171718",
"*  c #251A0B",
"=  c #2E1E0E",
"-  c #281A13",
";  c #1D220C",
":  c #1A290D",
">  c #162418",
",  c #1D3315",
"<  c #2E260E",
"1  c #242A0E",
"2  c #272617",
"3  c #352716",
"4  c #283413",
"5  c #373817",
"6  c #0F1729",
"7  c #281B25",
"8  c #1A292C",
"9  c #282826",
"0  c #362826",
"q  c #393826",
"w  c #312F34",
"e  c #4E3215",
"r  c #48371B",
"t  c #49382D",
"y  c #6E3C2E",
"u  c #294715",
"i  c #3A4519",
"p  c #2C5719",
"a  c #35591B",
"s  c #3B671E",
"d  c #2F4C32",
"f  c #365A3B",
"g  c #36682E",
"h  c #46451A",
"j  c #414B1A",
"k  c #49561E",
"l  c #59511E",
"z  c #64471E",
"x  c #42641F",
"c  c #484727",
"v  c #4A5826",
"b  c #575727",
"n  c #494838",
"m  c #505231",
"M  c #6D522D",
"N  c #7C5226",
"B  c #4C6A2B",
"V  c #586926",
"C  c #577928",
"Z  c #676628",
"A  c #63732A",
"S  c #697B2C",
"D  c #686437",
"F  c #796A37",
"G  c #697632",
"H  c #787530",
"J  c #111C41",
"K  c #18274F",
"L  c #2C304B",
"P  c #1B2D66",
"I  c #283867",
"U  c #4F384B",
"Y  c #643E51",
"T  c #314B48",
"R  c #39734B",
"E  c #304A74",
"W  c #3E6770",
"Q  c #4F4B4C",
"!  c #6B4D4E",
"~  c #4E7252",
"^  c #72714F",
"/  c #495377",
"(  c #72586D",
")  c #4F6F73",
"_  c #6D6C6F",
"`  c #717171",
"'  c #797F7F",
"]  c #865628",
"[  c #9B5222",
"{  c #8C5736",
"}  c #896B33",
"|  c #9C6834",
" . c #867637",
".. c #A16831",
"X. c #AE7336",
"o. c #D76C2F",
"O. c #DC6D2B",
"+. c #D56C33",
"@. c #C97137",
"#. c #D77536",
"$. c #8A5C4F",
"%. c #A75F47",
"&. c #956C4F",
"*. c #867847",
"=. c #85765A",
"-. c #AC7450",
";. c #8B5C6B",
":. c #916D6F",
">. c #AE7372",
",. c #CF7346",
"<. c #CA7267",
"1. c #CD746A",
"2. c #4B8C27",
"3. c #4E8B28",
"4. c #558B2A",
"5. c #55912A",
"6. c #5C952C",
"7. c #548D34",
"8. c #588835",
"9. c #62962E",
"0. c #69902F",
"q. c #64992F",
"w. c #6A8630",
"e. c #778B32",
"r. c #659A31",
"t. c #6B9C31",
"y. c #689835",
"u. c #799736",
"i. c #719F32",
"p. c #74A134",
"a. c #7CA536",
"s. c #7AA53B",
"d. c #3D8056",
"f. c #599250",
"g. c #729451",
"h. c #79A548",
"j. c #6BA253",
"k. c #53956D",
"l. c #6D8E6E",
"z. c #58A460",
"x. c #7AA568",
"c. c #6DA873",
"v. c #908E3B",
"b. c #859C38",
"n. c #81A637",
"m. c #82A739",
"M. c #8CA33A",
"N. c #85A939",
"B. c #8BAD3B",
"V. c #91A73B",
"C. c #92AD3D",
"Z. c #8FB03C",
"A. c #94B23E",
"S. c #99B43F",
"D. c #D8823A",
"F. c #8F914E",
"G. c #989353",
"H. c #A68A49",
"J. c #B4904E",
"K. c #B8984E",
"L. c #A68A53",
"P. c #A79355",
"I. c #8AAB45",
"U. c #97B346",
"Y. c #9DB641",
"T. c #9FB841",
"R. c #91A852",
"E. c #9AB756",
"W. c #A0B841",
"Q. c #A5BB4A",
"!. c #B4A654",
"~. c #A7BC57",
"^. c #918C73",
"/. c #A5976A",
"(. c #AA9A79",
"). c #B39272",
"_. c #8FB36F",
"`. c #B7B864",
"'. c #B3AC73",
"]. c #D4924E",
"[. c #E3934C",
"{. c #CEAD57",
"}. c #E8AC57",
"|. c #CD9074",
" X c #D0B16C",
".X c #E5BA66",
"XX c #E6B679",
"oX c #B1C257",
"OX c #B2C36D",
"+X c #B8C768",
"@X c #C5CD73",
"#X c #D2C871",
"$X c #E6C775",
"%X c #EECB72",
"&X c #263E89",
"*X c #374F8B",
"=X c #3A5598",
"-X c #3456AD",
";X c #3962A8",
":X c #4F5588",
">X c #485A9A",
",X c #556C85",
"<X c #526F8C",
"1X c #72738E",
"2X c #4558A2",
"3X c #5B64A8",
"4X c #4C79D3",
"5X c #94718F",
"6X c #B1758B",
"7X c #A5719A",
"8X c #C97B8F",
"9X c #758C8B",
"0X c #649398",
"qX c #6D95D0",
"wX c #5189EA",
"eX c #6394E4",
"rX c #74A9F3",
"tX c #878887",
"yX c #8F928C",
"uX c #969782",
"iX c #A59884",
"pX c #AD8890",
"aX c #B8AF85",
"sX c #A0AB9D",
"dX c #8F99AE",
"fX c #C58A86",
"gX c #CC968E",
"hX c #CEB08A",
"jX c #E8B493",
"kX c #E6B6B2",
"lX c #94C288",
"zX c #D7C987",
"xX c #D6D588",
"cX c #CACD90",
"vX c #E8C983",
"bX c #F4D58D",
"nX c #E9D79A",
"mX c #F7E296",
"MX c #D2CFA7",
"NX c #F2D7AA",
"BX c #D7E0A5",
"VX c #F6E6B2",
"CX c #98A7C5",
"ZX c #8DB1D7",
"AX c #8BBAEC",
"SX c #D9B1C5",
"DX c #94C6F6",
"FX c #A4CEF5",
"GX c #AAD0F4",
"HX c #E0D8D3",
"JX c #F5E9CD",
"KX c #DFE1E3",
"LX c #C0E1FE",
"PX c #D6EBFE",
"IX c #F1ECE7",
/* pixels */
"W.R.l.,XW W ) ) ,X) d , u i i j i j j c ~ ) 1X1X_ v C y.f.~ W ) 1X^.iX(.iXsXdX9Xl.R.U.N.N.A.W.W.W.W.S.N.p.B.W.oX+XE.i.i.p.a.a.B.",
"U.F.,X=X>X=X=X=X2XE L 2 2 2 > 9 2 > % 2 L :X2X2XI & j I.l.>X=X=X1XhXXXXXvXNXsX<X/ F.Y.A.A.Y.S.S.S.S.A.i.6.a.T.T.U.p.6.p.A.S.A.S.",
"l.' ^.tX:.( ) <X( ;.:.tXtXtXtXtX5XtX=.&.$.;.tXCX/ & j I.l.*X3XtXiXgXjXjXjXbX X/ T g.U.s.p.I.S.a.p.Z.S.N.a.Z.S.N.p.i.p.Z.S.B.p.n.",
") 1X(. X].-.R.x.L.].kXHXIXIXIXIXIXJXnX.X].,.jXKXtX9 5 e.l.:X1X).|.fX6X7XfXXXP.q 1 w.s.y.r.N.B.t.6.B.S.S.S.S.S.t.5.t.Z.S.S.a.6.t.",
"l.` 9X(.].].H.P.[.}.XXNXJXIXJXjXNXNXXX}.1.1.SXIXyX9 ; c ~ 1X;.^ M Y Y 1X1X5X_ 6 o 5 V R.E.I.i.i.a.Z.W.W.W.W.A.t.2.6.i.B.S.B.p.i.",
"I.g.) <X(. X].D.}.}.,.,.kXJXjX[.}.$X}.#.1.8XSXKXtX%   X 0 5X( 0 & 6 L *X2X2XI 8 + ; n (.cXh.9.n.S.S.S.S.S.W.S.p.2.2.5.p.S.T.A.a.",
"U.I.~ ) l.^.^.L.].[.>.:.fXjX,.#.>.:.8X1.1.1.6XdX/ &     7 U U T Q F =.yXdXyX^.&.D f R 9XyXj.a.C.W.W.S.N.a.B.S.N.p.p.p.B.T.W.S.Z.",
"S.N.y.~ :X=Xk._.J.,.;.:X%.,.O.+.;.:X5X8X1.,.;.:XP .     X # d k._.@X%XnXnX$X$X$X`.x.0X<X<Xl.V.S.W.S.A.i.6.a.S.S.S.A.A.S.S.S.T.T.",
"s.t.i.8.T L ^ G.].].L.;.X.O.O.+.%.;.>.1.1.<.;.K 6       > d k._.MXVXVXmXmXbXbX%X%X@X_.c.W ~ V b.A.s.p.p.i.p.p.B.S.B.p.i.p.B.S.W.",
"6.9.m.e.5 - ] D.}..XD.o.O.O.O.O.+.+.+.,.1.6XY & # # . . 8 z.lXBXVXKXVX$X%XnXbX%X.X#X@Xc.k.d 1 w.Z.p.r.s.N.t.6.a.A.p.5.2.5.p.S.T.",
"p.p.p.4., % D G.].[.D.O.O.O.O.O.O.O.+.<.1.<.Y X w _ Q & a _.cXVXMXyXl.^ *.^ =. .} F F.R.g.q ; S T.E.E.h.p.i.p.Z.S.N.p.i.p.B.S.Z.",
"N.N.r.s , 2 ~ x.H.D.O.O.O.O.O.O.O.O.1.8X1.+.y * _ SXyXw m !.zXnX(.n % - % % % % % % r L.!.r ; S Q.xXcXE.6.p.A.S.S.S.S.Y.U.T.S.a.",
"U.I.f.W ^ F *.G.G.H.@.O.O.O.O.O.O.O.,.1.1.<.y % ` KXCX9X( ^  .=.^ ! Q d T Q U T T Q Y M M = + B h.OX+XE.p.Z.S.N.p.Z.oX+X@XoXoXB.",
"U.F.) ,X).{.].X.G.x.H.+.o.O.O.O.O.O.+.,.1.6XY 7 ` KXPXZX0Xw % - U 5X5Xl.l.5XyXl.l.5X5Xt % . o a 6.N.oXT.S.S.A.p.6.p.S.+XnX@XT.A.",
"^.l.1X(.{.[.K.H.G.^.:.$.%.o.O.o.%.;.>.1.1.<.y % ` KXPXFX3XI K U ;.|.^.~ ^ ).iX~ ~ (.).! U 7 . p 5.a.A.T.S.B.p.p.t.p.s.oX+XoXa.B.",
"<X:X(. XD.H.F.x.H.-.;.:X%.+.O.+.;.:X5X6X<.@.z ; ` KXPXFXqX2X>X7XfXXXL.q n !.K.t c K.jXfX;.7 O p 5.a.S.T.A.t.5.p.B.t.6.s.E.a.6.p.",
"*X>X1X:.{ ]  .G.G.=.:.:.J.[.D.#.-.tX6X<.).H.c % ` KXPXFXZX3X5XgXjXNXiX0 r !.K.3 5 K.XXgX5X0 ; x i.Z.S.W.A.t.2.6.p.i.i.N.S.N.p.N.",
">X=X=XE w 3 ] X.F.x.&.@.[.}.[.#.]..X].@.*.l.f % ` KXPXGXZX7XfXXXNXJXsXt c {.K.r r !.XXgX5Xw ; A A.S.S.W.A.t.2.2.5.p.A.S.S.S.A.S.",
"~ W ) ) d 4 e N m R ( $.].[.{.G./.^.&.N c R 8 + ` KXPXFXCX5X;.|.bXNXMX^.uXMXzXF.*.{.$XaX;.w ; S S.N.N.A.S.N.t.t.i.B.S.B.a.p.a.N.",
"7.f.h.u.4.s 1 * @ > I / &.-.F.l.<X*XL O O + . o ` KXPXFX1XL U 6XgXjXnXHXJXIXJXbX.X%X X_.k.8 1 S B.q.5.a.A.C.C.B.C.C.C.p.5.3.5.i.",
"p.i.p.i.5.C s i j v ~ _ ! z m R I K 6 . ; i 1 O ` KXPXFX1X6 7 Y >.|.bXNXVXJXVX%X%XXX).^ R i v w.0.x p x V Z Z V V V V w.q.5.2.t.",
"A.N.q.2.2.3.i.M.M.V.I.F.b @ O + o # . o k w.k & ` KXPXFX0X6 . $ U 5XgXjXbX%X%X%XXXgX5Xt 4 A b.9.B u o + @ ; % % @ @ ; V b.t.3.t.",
"W.A.p.t.t.p.A.S.W.S.B.e.V j i j i a j j k V 5 O ` KXPXFXqXK J J L Y ;.uXiXiXiXiX:.;.! t z b.m.C p u d c M D Q D M d d a V 4.t.n.",
"W.S.S.A.A.S.S.S.W.Z.t.6.i.M.M.M.M.b.b.b.b ; . # ` KXPXDXqX=X&X*XP 6 w :X>X>X>X>X*Xw 0 z } v.b.j , R z._. X#XzX#X{._.k.f 1 V M.S.",
"S.W.W.W.W.S.B.a.a.p.i.t.p.a.A.S.B.u.e.V d J 6 # ` KXPXFXqX,X) >X:XU Q 1X1X9X1X5X` ! Z H.H. .Z b Z ~ j.R.`.`. X`.Q._.z.R $ v M.I.",
"Z.W.W.W.T.Z.q.5.3.6.p.B.i.6.s.Y.i.4.a > K &XJ $ ` KXPXFXdX^.^ c.0X5X6X XXX X X#X.X{.{..XK.l 5 v.K.F.G 8.6.w.^ w.5.z.z.T o s M.N.",
"A.W.W.S.B.p.i.6.2.5.a.S.a.p.E.oXg.p 8 K &X-XP $ ^ GXLXFXsXx.^.9XyX:.).!.K.{.!.{.{.K.!.H.H < < H..Xv.V 8.f.^ ^ G 4.h.x.B @ k V.B.",
"S.S.W.Z.t.6.a.N.6.5.a.S.A.U.@XcX^ > J *X-X4XE 6 / DXFXDXZXc.9XpX>.^ F H H H H H H H Z q * . < H..Xv.C f.c.^.6X^ G P.{.D @ k V.Y.",
"A.N.A.A.p.i.Z.A.a.i.Z.S.W.oX+X'.m $ P -XwXeX*X$ / ZXAXrX0X~ l.gXaX/.*.k l F.G.v. .l i u 8 $ 2 P.$XH.S I._.sXuXg.G I.E.D @ k V.oX",
"h.q.B.Y.A.A.T.S.S.A.S.S.S.A.s.6.u $ I wXrXrX<X> W ZXeX2XI 8 ~ hXNXnX/.q v '.zX.XJ.c , R d., 9 /.zXG.H P.#X_.c.f.7.z.c.T + v V.@X",
"s.i.Z.A.B.N.A.T.S.S.Z.N.A.S.a.4.u $ *XeXrXDX,X6 T qX4X-XP # n zXmXmX/.q 0 ^ /.L. .M D g.j.d 3 /.zXF.w.R.+XlXx.f.8.j.x.B + i u.oX",
"Y.A.Y.Z.r.q.B.Y.W.S.i.6.N.S.S.n.i & ) AXFXDX,X$ K =X-X&XP 6 m {.%X%XP.3 O 2 2 < c H.{.#X!.r < H.#XI.7.j.9XuX7X=.S G.{.D + u 2.s.",
"T.S.B.a.t.i.B.T.W.S.p.t.B.S.W.M.v $ W rXDXAX<X$ 6 P P P J # 5  .H.H.F r 3 < 3 = r  .K..X{.r 2 P.#XR.8.j._.sXtX^ w.R.~.D O u 6.a.",
"T.Z.q.q.a.Z.S.T.W.S.A.A.S.W.W.M.k $ E wXrXDX<X$ . # 6 6 #   X * < < r N ] ] ] ] z e l K.{.c 5 /.xXG.H !.+XaXc.f.7.f.c.f $ j M.A.",
"T.Z.p.i.Z.S.Z.N.A.S.B.N.A.S.Z.u.i $ &XwXrXrX1Xm t c n Q w X X = 3 3 e ] ........N u i H F 3 3 /.zXF.S R.`.lX^.f.8.h.x.B + i u.B.",
"W.S.Z.A.S.Z.t.q.B.A.p.q.N.A.p.2.u $ *XwXwXeXdX X{.{.hXMX' 7 = M N ] ] | ........} V p 5 * . 2 P.#XI.7.j.c.sXyX` G G.`.D + u 3.p.",
"S.W.W.W.T.A.p.t.B.A.I.h.h.a.p.6.x i E =X;X;XyX$XbXmXVXJX^.9 < Z } }  .g.*.F. . .A x p 1 % $ w L..Xb.C l.9XsXyX^ A R.~.D + u 4.i.",
"Z.W.W.W.W.S.A.Z.S.oX@XcXR.6.p.B.N.e.v 8 6 8 ^ $XmXJXVXbXH.1 : x 2.3.8.z.c.z.f.8.x , 1 i n E :X(..Xv.G :.iX9Xc.f.3.j.c.T + k b.p.",
"Z.A.Z.N.a.Z.S.W.S.oX@XxXE.r.N.W.W.C.V , 1 5 Z H.hXVXNX.XX.5 1 p p p g R d.d.R g u < 5 B ~ *X>X_.~.u.A =.:.l.z.7.8.j.x.B @ k M.N.",
"S.Z.t.5.5.q.B.S.S.S.oXoXT.Z.S.W.W.U.r.s C e.V c &.%X.XD...l i ; o ; o > > > > + 1 y F f.k.<X=X0Xx.f.4.G ^ 8.7.8.A G.`.D @ k C.S.",
"Z.a.q.6.6.t.B.S.W.T.Z.B.A.T.W.S.A.n.i.q.i.a.C i Z v.X.[ ] N k 1 ; < * = * = = * e $.&.c.0XW E <Xc.g.u.F.^ F.e.g.*.P.`.D @ k C.W.",
"q.q.a.B.Z.Z.S.W.W.A.p.6.N.T.W.A.p.q.p.N.p.6.0.e.Z 5 = = r l l l l N N N ] ] ] N { >.pX9Xk.8 8 ) pX'. X).>.'.{.|.pXuXc.T + k V.W.",
"q.q.a.B.S.W.W.S.Z.a.t.q.N.T.T.S.I.h.h.s.t.q.a.A.V X . + i B G F } %.-.H.J.J.J.J.].fXiXl.R > $ Y ;.>.L.:.;.-.L.:.;._ R f i A A.S.",
"N.a.q.t.B.W.W.S.p.6.a.B.A.T.S.oX+XcXE.r.p.B.S.C.V + @ h C f.g.*.&.>.|.}.$XvX$X$X.XXXK.m > . . % 0 3 3 0 9 0 3 3 9 > , B e.V.A.N.",
"A.A.t.t.B.S.W.S.p.q.B.S.Z.B.a.U.OXxXE.t.a.S.A.N.k o 1 h g ~ ^ &.>.gXjXjXbXmXmXbX$X{.F.m 2 X   o : 1 4 < 4 4 4 : : 1 5 w.~.oXW.N.",
"S.S.Z.Z.S.W.W.S.Z.Z.S.A.p.6.5.r.I.oXQ.C.A.S.n.4.a . . X > > Q 5XfXXXvXmXmX%XbXmX X! n ^ ^ 9 o u s 4.e.e.e.e.e.C s C u.`.xX@XQ.A.",
"W.W.W.S.Z.N.B.Z.A.T.T.A.a.5.3.3.p.Y.W.W.A.N.p.4.a . . 6 & - t ;.>.J.'.'.hXaX X'.^.m Q ^.^.w + p 5.n.W.W.Y.A.N.t.9.p.I.+XxX+XC.A.",
"W.W.W.Z.t.6.6.q.B.T.T.T.A.N.6.3.p.Y.W.S.a.q.i.n.v # 6 I I M z 0 7 3 r q Q ) :XQ m _ ^.cXaXn + p 2.n.S.W.A.s.9.p.N.t.r.I.oXI.r.p.",
"W.W.oXQ.p.6.5.q.a.B.S.T.T.S.a.q.n.S.W.S.p.2.4.e.l 3 w / ( &.F q & . # > L :XE w Q uXhXMXaXn + s q.B.S.W.A.q.3.t.n.i.q.a.A.a.q.p.",
"W.oX@XxX~.N.N.s.r.r.N.T.T.S.Z.B.A.S.W.S.p.2.a 5 h z M $.=.^.^.:.Q & 2 ^ l.tXyX^.^.cXBXMX(.q ; V B.A.W.W.A.q.2.3.9.p.B.A.S.S.B.A.",
"Z.E.@XxXoXB.S.A.p.q.p.B.Z.oXT.S.A.Z.A.S.a.4.p X 3 ! $...L.(.uX^.Q ; w =.(.(.(.(.hXnXnXhX=.w @ S S.A.Z.S.A.a.6.6.9.n.S.A.B.B.B.A.",
"r.t.oXoXs.t.B.S.Z.a.t.t.N.S.W.S.a.q.n.S.A.n.k o 8 / ( | L.(.` t 2 . < { H.-.-.@.]..X$XK.F < 1 G A.p.q.N.S.A.N.N.N.A.S.a.6.6.q.p.",
"r.r.a.a.5.5.N.S.W.A.i.q.N.S.A.N.i.9.0.e.e.e.j . K / ( { -./.^ &     * z ] | ..o.#.}.{.J.{ 7 7 b e.9.q.n.W.W.W.W.T.A.B.i.6.2.2.t.",
"Z.a.t.5.2.5.N.T.W.S.A.B.Z.S.a.q.i.a.V 5 4 4 @ . 3 ! $...X.| M O     . * e ] ....X.X.,.>.5X/ P L i S M.A.W.W.W.W.S.p.q.i.a.q.2.t.",
"T.Z.t.5.5.q.B.W.W.W.Z.Z.S.S.p.6.0.w.h .       . 3 z ] ] N N e X         = N ......X.>.).6X5X/ t 5 V b.V.S.A.Z.S.S.a.q.a.A.a.q.i.",
"T.S.B.B.N.B.A.S.W.A.p.t.N.S.Z.a.V 5 +           X = = = < 2 O           = N ....%.>.8XhXXX<.%.[ [ e h w.A.a.q.n.S.A.N.A.T.Z.B.Z.",
"S.W.W.W.T.S.A.Z.Z.n.t.9.p.B.S.V.k .                                     * z ] N $.;.>.).]...[ [ [ = @ k e.9.q.a.S.T.T.T.T.W.T.S.",
"S.W.W.W.W.A.p.6.9.q.p.n.t.t.N.M.k .                                     . * = = 3 0 0 t r e = e = X . ; i S n.A.T.T.T.T.W.T.S.N.",
"A.S.S.S.A.N.r.5.2.3.n.A.p.q.B.T.Z 2 o                                                           .   . o 4 A B.S.T.A.Z.A.T.W.T.N.",
"S.W.W.A.p.q.a.p.5.5.a.A.B.I.+XxXE.G 5 .                                                             o i S 0.q.N.S.n.t.n.S.W.S.A.",
"Y.A.S.Z.r.q.B.Z.t.6.N.T.S.Q.@XxXOXm.V : ; ; X                                                     o 1 S Z.p.6.p.N.i.6.p.Z.A.W.oX",
"h.p.Z.S.B.B.A.S.Z.B.A.T.W.T.R.h.i.q.w.S S A i .                                                 X , s 0.S.Z.a.i.q.i.a.i.t.n.W.oX",
"h.q.B.S.Z.Z.Y.T.T.T.A.Z.Y.A.p.5.5.6.u.S.W.C.G 5 2 ; + o o o + @ ; ; ; ; : + + + ; ; : + o + ; ; 1 x 6.n.T.T.A.h.p.h.A.i.3.r.Z.oX",
"Z.N.S.A.a.i.Z.T.T.A.a.t.B.Y.Z.s.a.n.A.W.W.W.R.^.F.G x a p p a V A A A V V a a V A V V a a V A A S i.n.A.T.S.Q.OXOXoXY.i.2.5.r.U."
};
